*
G04 Mass Parameters ***
*
G04 Image ***
*
%INC:\DOCUMENTS AND SETTINGS\JUANBALA\ESCRITORIO\ORCAD\RESPIRADOR HGGM-UC3M.DRD*%
%ICAS*%
%MOIN*%
%IPPOS*%
%ASAXBY*%
G74*%FSLAN2X34Y34*%
*
G04 Aperture Definitions ***
*
%ADD10C,0.1500*%
%ADD11R,0.1500X0.1500*%
%ADD12O,0.0800X0.1000*%
%ADD13R,0.0800X0.1000*%
%ADD14C,0.0640*%
%ADD15R,0.0640X0.0640*%
%ADD16C,0.1000*%
%ADD17R,0.1000X0.1000*%
%ADD18C,0.0880*%
%ADD19R,0.0880X0.0880*%
%ADD20R,0.0460X0.0580*%
%ADD21R,0.0720X0.0460*%
%ADD22R,0.0460X0.0720*%
%ADD23R,0.0410X0.0560*%
%ADD24R,0.0580X0.0460*%
%ADD25R,0.0380X0.0370*%
%ADD26R,0.0370X0.0380*%
%ADD27R,0.0700X0.0560*%
%ADD28R,0.0700X0.0880*%
%ADD29C,0.0760*%
%ADD30C,0.3000*%
%ADD31O,0.1000X0.0800*%
%ADD32R,0.1000X0.0800*%
%ADD33R,0.0760X0.0760*%
%ADD34R,0.1300X0.0520*%
%ADD35R,0.0500X0.0520*%
%ADD36C,0.2900*%
%ADD37R,0.0260X0.0480*%
%ADD38O,0.1200X0.0800*%
%ADD39R,0.1200X0.0800*%
%ADD40O,0.0800X0.1200*%
%ADD41R,0.0800X0.1200*%
%ADD42R,0.0450X0.0700*%
%ADD43R,0.0700X0.0450*%
%ADD44R,0.0320X0.0380*%
%ADD45R,0.0380X0.0320*%
%ADD46R,0.1330X0.0500*%
%ADD47R,0.1260X0.1000*%
%ADD48O,0.1200X0.0760*%
%ADD49R,0.1200X0.0760*%
%ADD50R,0.0480X0.0240*%
%ADD51R,0.0240X0.0480*%
%ADD52C,0.0280*%
%ADD53C,0.0100*%
%ADD54C,0.0200*%
%ADD55C,0.0400*%
%ADD56C,0.0600*%
%ADD57C,0.0120*%
%ADD58C,0.0250*%
%ADD59C,0.0500*%
%ADD60C,0.0280*%
%ADD61C,0.0080*%
%ADD62C,0.0240*%
%ADD63C,0.1620*%
%ADD64R,0.1620X0.1620*%
%ADD65O,0.0880X0.1080*%
%ADD66R,0.0880X0.1080*%
%ADD67C,0.1120*%
%ADD68R,0.1120X0.1120*%
%ADD69R,0.0540X0.0660*%
%ADD70R,0.0800X0.0540*%
%ADD71R,0.0540X0.0800*%
%ADD72R,0.0490X0.0640*%
%ADD73R,0.0660X0.0540*%
%ADD74R,0.0440X0.0430*%
%ADD75R,0.0430X0.0440*%
%ADD76R,0.0780X0.0640*%
%ADD77R,0.0800X0.0980*%
%ADD78C,0.3200*%
%ADD79O,0.1080X0.0880*%
%ADD80R,0.1080X0.0880*%
%ADD81R,0.1380X0.0600*%
%ADD82R,0.0580X0.0600*%
%ADD83C,0.3100*%
%ADD84R,0.0360X0.0580*%
%ADD85O,0.1320X0.0920*%
%ADD86R,0.1320X0.0920*%
%ADD87O,0.0920X0.1320*%
%ADD88R,0.0920X0.1320*%
%ADD89R,0.0530X0.0780*%
%ADD90R,0.0780X0.0530*%
%ADD91R,0.0400X0.0460*%
%ADD92R,0.0460X0.0400*%
%ADD93R,0.1410X0.0580*%
%ADD94R,0.1360X0.1100*%
%ADD95O,0.1320X0.0880*%
%ADD96R,0.1320X0.0880*%
%ADD97R,0.0580X0.0340*%
%ADD98R,0.0340X0.0580*%
%ADD99C,0.0360*%
%ADD100C,0.0580*%
%ADD101C,0.0360*%
%ADD102C,0.0049*%
%ADD103C,0.0160*%
%ADD104C,0.0050*%
%ADD105C,0.0060*%
%ADD106R,0.0700X0.0700*%
%ADD107C,0.0040*%
%ADD108C,0.0010*%
*
G04 Plot Data ***
*
G54D53*
G01X0044208Y-0054583D02*
X0043542D01*
X0044208Y-0053917D01*
Y-0053750D01*
X0044125Y-0053583D01*
X0043625D01*
X0043542Y-0053750D01*
X0042592Y-0054417D02*
X0042675Y-0054583D01*
X0043175D01*
X0043258Y-0054417D01*
Y-0054083D01*
X0043092Y-0053917D01*
X0042592D01*
Y-0053583D01*
X0043258D01*
X0041642Y-0054417D02*
X0041808Y-0054583D01*
X0042142D01*
X0042308Y-0054417D01*
Y-0054250D01*
X0041975Y-0053917D01*
X0042308Y-0053583D01*
X0041642D01*
X0031812Y-0054583D02*
X0031229D01*
Y-0053583D01*
X0030946Y-0054250D02*
X0030279D01*
X0030946Y-0054583D02*
Y-0054083D01*
X0030696Y-0053583D01*
X0030529D01*
X0030279Y-0054083D01*
Y-0054583D01*
X0029662D02*
Y-0053583D01*
X0029996D02*
X0029329D01*
X0028462Y-0054583D02*
X0028379Y-0054417D01*
Y-0053750D01*
X0028462Y-0053583D01*
X0028962D01*
X0029046Y-0053750D01*
Y-0054417D01*
X0028962Y-0054583D01*
X0028462D01*
X0027762D02*
Y-0053583D01*
X0028096D02*
X0027429D01*
X0043819Y-0052389D02*
X0044153D01*
X0044208Y-0052500D01*
Y-0052611D01*
X0044153Y-0052722D01*
X0043819D01*
X0043764Y-0052611D01*
Y-0052500D01*
X0043986Y-0052056D01*
X0030314Y-0052722D02*
X0030203Y-0052611D01*
X0030147Y-0052500D01*
Y-0052278D01*
X0030203Y-0052167D01*
X0030314Y-0052056D01*
X0030425D01*
X0030536Y-0052167D01*
X0030592Y-0052278D01*
Y-0052500D01*
X0030536Y-0052611D01*
X0030425Y-0052722D01*
X0030314D01*
X0029892Y-0052500D02*
X0029447D01*
X0029669Y-0052056D01*
X0029780D01*
Y-0052722D01*
X0029192D02*
X0028969D01*
X0029080D02*
Y-0052056D01*
X0028969Y-0052167D01*
X0028492Y-0052722D02*
X0028603D01*
Y-0052611D01*
X0028492D01*
Y-0052722D01*
X0027847D02*
X0027736Y-0052611D01*
X0027681Y-0052500D01*
Y-0052278D01*
X0027736Y-0052167D01*
X0027847Y-0052056D01*
X0027958D01*
X0028069Y-0052167D01*
X0028125Y-0052278D01*
Y-0052500D01*
X0028069Y-0052611D01*
X0027958Y-0052722D01*
X0027847D01*
X0044208Y-0051000D02*
X0043764D01*
X0043986Y-0050556D01*
X0044097D01*
Y-0051222D01*
X0030147Y-0051111D02*
X0030203Y-0051222D01*
X0030536D01*
X0030592Y-0051111D01*
Y-0050889D01*
X0030480Y-0050778D01*
X0030147D01*
Y-0050556D01*
X0030592D01*
X0029892Y-0051222D02*
X0029447D01*
X0029892Y-0050778D01*
Y-0050667D01*
X0029836Y-0050556D01*
X0029503D01*
X0029447Y-0050667D01*
X0029192Y-0051222D02*
X0028969D01*
X0029080D02*
Y-0050556D01*
X0028969Y-0050667D01*
X0028492Y-0051222D02*
X0028603D01*
Y-0051111D01*
X0028492D01*
Y-0051222D01*
X0027847D02*
X0027736Y-0051111D01*
X0027681Y-0051000D01*
Y-0050778D01*
X0027736Y-0050667D01*
X0027847Y-0050556D01*
X0027958D01*
X0028069Y-0050667D01*
X0028125Y-0050778D01*
Y-0051000D01*
X0028069Y-0051111D01*
X0027958Y-0051222D01*
X0027847D01*
X0044208Y-0049500D02*
X0043764D01*
X0043986Y-0049056D01*
X0044097D01*
Y-0049722D01*
X0030314D02*
X0030203Y-0049611D01*
X0030147Y-0049500D01*
Y-0049278D01*
X0030203Y-0049167D01*
X0030314Y-0049056D01*
X0030425D01*
X0030536Y-0049167D01*
X0030592Y-0049278D01*
Y-0049500D01*
X0030536Y-0049611D01*
X0030425Y-0049722D01*
X0030314D01*
X0029503Y-0049389D02*
X0029836D01*
X0029892Y-0049500D01*
Y-0049611D01*
X0029836Y-0049722D01*
X0029503D01*
X0029447Y-0049611D01*
Y-0049500D01*
X0029669Y-0049056D01*
X0028914Y-0049722D02*
X0028803Y-0049611D01*
X0028747Y-0049500D01*
Y-0049278D01*
X0028803Y-0049167D01*
X0028914Y-0049056D01*
X0029025D01*
X0029136Y-0049167D01*
X0029192Y-0049278D01*
Y-0049500D01*
X0029136Y-0049611D01*
X0029025Y-0049722D01*
X0028914D01*
X0028381D02*
X0028492D01*
Y-0049611D01*
X0028381D01*
Y-0049722D01*
X0027736D02*
X0027625Y-0049611D01*
X0027569Y-0049500D01*
Y-0049278D01*
X0027625Y-0049167D01*
X0027736Y-0049056D01*
X0027847D01*
X0027958Y-0049167D01*
X0028014Y-0049278D01*
Y-0049500D01*
X0027958Y-0049611D01*
X0027847Y-0049722D01*
X0027736D01*
X0044153Y-0047889D02*
X0044208Y-0047778D01*
Y-0047667D01*
X0044153Y-0047556D01*
X0043819D01*
X0043764Y-0047667D01*
Y-0047778D01*
X0043819Y-0047889D01*
X0044153D01*
X0044208Y-0048000D01*
Y-0048111D01*
X0044153Y-0048222D01*
X0043819D01*
X0043764Y-0048111D01*
Y-0048000D01*
X0043819Y-0047889D01*
X0043508Y-0048222D02*
X0043286D01*
X0043397D02*
Y-0047556D01*
X0043286Y-0047667D01*
X0030592Y-0048222D02*
X0030147D01*
X0030592Y-0047778D01*
Y-0047667D01*
X0030536Y-0047556D01*
X0030203D01*
X0030147Y-0047667D01*
X0029447Y-0048111D02*
X0029503Y-0048222D01*
X0029836D01*
X0029892Y-0048111D01*
Y-0047889D01*
X0029780Y-0047778D01*
X0029447D01*
Y-0047556D01*
X0029892D01*
X0028914Y-0048222D02*
X0028803Y-0048111D01*
X0028747Y-0048000D01*
Y-0047778D01*
X0028803Y-0047667D01*
X0028914Y-0047556D01*
X0029025D01*
X0029136Y-0047667D01*
X0029192Y-0047778D01*
Y-0048000D01*
X0029136Y-0048111D01*
X0029025Y-0048222D01*
X0028914D01*
X0028381D02*
X0028492D01*
Y-0048111D01*
X0028381D01*
Y-0048222D01*
X0027736D02*
X0027625Y-0048111D01*
X0027569Y-0048000D01*
Y-0047778D01*
X0027625Y-0047667D01*
X0027736Y-0047556D01*
X0027847D01*
X0027958Y-0047667D01*
X0028014Y-0047778D01*
Y-0048000D01*
X0027958Y-0048111D01*
X0027847Y-0048222D01*
X0027736D01*
X0044153Y-0046389D02*
X0044208Y-0046278D01*
Y-0046167D01*
X0044153Y-0046056D01*
X0043819D01*
X0043764Y-0046167D01*
Y-0046278D01*
X0043819Y-0046389D01*
X0044153D01*
X0044208Y-0046500D01*
Y-0046611D01*
X0044153Y-0046722D01*
X0043819D01*
X0043764Y-0046611D01*
Y-0046500D01*
X0043819Y-0046389D01*
X0043508Y-0046722D02*
X0043286D01*
X0043397D02*
Y-0046056D01*
X0043286Y-0046167D01*
X0030314Y-0046722D02*
X0030203Y-0046611D01*
X0030147Y-0046500D01*
Y-0046278D01*
X0030203Y-0046167D01*
X0030314Y-0046056D01*
X0030425D01*
X0030536Y-0046167D01*
X0030592Y-0046278D01*
Y-0046500D01*
X0030536Y-0046611D01*
X0030425Y-0046722D01*
X0030314D01*
X0029447Y-0046611D02*
X0029503Y-0046722D01*
X0029836D01*
X0029892Y-0046611D01*
Y-0046389D01*
X0029780Y-0046278D01*
X0029447D01*
Y-0046056D01*
X0029892D01*
X0028914Y-0046722D02*
X0028803Y-0046611D01*
X0028747Y-0046500D01*
Y-0046278D01*
X0028803Y-0046167D01*
X0028914Y-0046056D01*
X0029025D01*
X0029136Y-0046167D01*
X0029192Y-0046278D01*
Y-0046500D01*
X0029136Y-0046611D01*
X0029025Y-0046722D01*
X0028914D01*
X0028381D02*
X0028492D01*
Y-0046611D01*
X0028381D01*
Y-0046722D01*
X0027736D02*
X0027625Y-0046611D01*
X0027569Y-0046500D01*
Y-0046278D01*
X0027625Y-0046167D01*
X0027736Y-0046056D01*
X0027847D01*
X0027958Y-0046167D01*
X0028014Y-0046278D01*
Y-0046500D01*
X0027958Y-0046611D01*
X0027847Y-0046722D01*
X0027736D01*
X0043764Y-0045111D02*
X0043819Y-0045222D01*
X0044153D01*
X0044208Y-0045111D01*
Y-0044889D01*
X0044097Y-0044778D01*
X0043764D01*
Y-0044556D01*
X0044208D01*
X0030536Y-0044889D02*
X0030592Y-0044778D01*
Y-0044667D01*
X0030536Y-0044556D01*
X0030203D01*
X0030147Y-0044667D01*
Y-0044778D01*
X0030203Y-0044889D01*
X0030536D01*
X0030592Y-0045000D01*
Y-0045111D01*
X0030536Y-0045222D01*
X0030203D01*
X0030147Y-0045111D01*
Y-0045000D01*
X0030203Y-0044889D01*
X0029892Y-0045000D02*
X0029447D01*
X0029669Y-0044556D01*
X0029780D01*
Y-0045222D01*
X0028914D02*
X0028803Y-0045111D01*
X0028747Y-0045000D01*
Y-0044778D01*
X0028803Y-0044667D01*
X0028914Y-0044556D01*
X0029025D01*
X0029136Y-0044667D01*
X0029192Y-0044778D01*
Y-0045000D01*
X0029136Y-0045111D01*
X0029025Y-0045222D01*
X0028914D01*
X0028381D02*
X0028492D01*
Y-0045111D01*
X0028381D01*
Y-0045222D01*
X0027736D02*
X0027625Y-0045111D01*
X0027569Y-0045000D01*
Y-0044778D01*
X0027625Y-0044667D01*
X0027736Y-0044556D01*
X0027847D01*
X0027958Y-0044667D01*
X0028014Y-0044778D01*
Y-0045000D01*
X0027958Y-0045111D01*
X0027847Y-0045222D01*
X0027736D01*
X0043875Y-0043722D02*
X0044208Y-0043056D01*
X0043764D01*
X0043064Y-0043611D02*
X0043175Y-0043722D01*
X0043397D01*
X0043508Y-0043611D01*
Y-0043500D01*
X0043286Y-0043278D01*
X0043508Y-0043056D01*
X0043064D01*
X0030258Y-0043722D02*
X0030592Y-0043056D01*
X0030147D01*
X0029892Y-0043500D02*
X0029447D01*
X0029669Y-0043056D01*
X0029780D01*
Y-0043722D01*
X0028914D02*
X0028803Y-0043611D01*
X0028747Y-0043500D01*
Y-0043278D01*
X0028803Y-0043167D01*
X0028914Y-0043056D01*
X0029025D01*
X0029136Y-0043167D01*
X0029192Y-0043278D01*
Y-0043500D01*
X0029136Y-0043611D01*
X0029025Y-0043722D01*
X0028914D01*
X0028381D02*
X0028492D01*
Y-0043611D01*
X0028381D01*
Y-0043722D01*
X0027736D02*
X0027625Y-0043611D01*
X0027569Y-0043500D01*
Y-0043278D01*
X0027625Y-0043167D01*
X0027736Y-0043056D01*
X0027847D01*
X0027958Y-0043167D01*
X0028014Y-0043278D01*
Y-0043500D01*
X0027958Y-0043611D01*
X0027847Y-0043722D01*
X0027736D01*
X0044208Y-0042222D02*
X0043764D01*
X0044208Y-0041778D01*
Y-0041667D01*
X0044153Y-0041556D01*
X0043819D01*
X0043764Y-0041667D01*
X0030592Y-0042000D02*
X0030147D01*
X0030369Y-0041556D01*
X0030480D01*
Y-0042222D01*
X0029892Y-0042000D02*
X0029447D01*
X0029669Y-0041556D01*
X0029780D01*
Y-0042222D01*
X0028914D02*
X0028803Y-0042111D01*
X0028747Y-0042000D01*
Y-0041778D01*
X0028803Y-0041667D01*
X0028914Y-0041556D01*
X0029025D01*
X0029136Y-0041667D01*
X0029192Y-0041778D01*
Y-0042000D01*
X0029136Y-0042111D01*
X0029025Y-0042222D01*
X0028914D01*
X0028381D02*
X0028492D01*
Y-0042111D01*
X0028381D01*
Y-0042222D01*
X0027736D02*
X0027625Y-0042111D01*
X0027569Y-0042000D01*
Y-0041778D01*
X0027625Y-0041667D01*
X0027736Y-0041556D01*
X0027847D01*
X0027958Y-0041667D01*
X0028014Y-0041778D01*
Y-0042000D01*
X0027958Y-0042111D01*
X0027847Y-0042222D01*
X0027736D01*
X0044208Y-0040500D02*
X0043764D01*
X0043986Y-0040056D01*
X0044097D01*
Y-0040722D01*
X0030592D02*
X0030147D01*
X0030592Y-0040278D01*
Y-0040167D01*
X0030536Y-0040056D01*
X0030203D01*
X0030147Y-0040167D01*
X0029892Y-0040500D02*
X0029447D01*
X0029669Y-0040056D01*
X0029780D01*
Y-0040722D01*
X0028914D02*
X0028803Y-0040611D01*
X0028747Y-0040500D01*
Y-0040278D01*
X0028803Y-0040167D01*
X0028914Y-0040056D01*
X0029025D01*
X0029136Y-0040167D01*
X0029192Y-0040278D01*
Y-0040500D01*
X0029136Y-0040611D01*
X0029025Y-0040722D01*
X0028914D01*
X0028381D02*
X0028492D01*
Y-0040611D01*
X0028381D01*
Y-0040722D01*
X0027736D02*
X0027625Y-0040611D01*
X0027569Y-0040500D01*
Y-0040278D01*
X0027625Y-0040167D01*
X0027736Y-0040056D01*
X0027847D01*
X0027958Y-0040167D01*
X0028014Y-0040278D01*
Y-0040500D01*
X0027958Y-0040611D01*
X0027847Y-0040722D01*
X0027736D01*
X0044208Y-0039000D02*
X0043764D01*
X0043986Y-0038556D01*
X0044097D01*
Y-0039222D01*
X0043064Y-0039111D02*
X0043175Y-0039222D01*
X0043397D01*
X0043508Y-0039111D01*
Y-0039000D01*
X0043286Y-0038778D01*
X0043508Y-0038556D01*
X0043064D01*
X0042808Y-0039222D02*
X0042586D01*
X0042697D02*
Y-0038556D01*
X0042586Y-0038667D01*
X0030314Y-0039222D02*
X0030203Y-0039111D01*
X0030147Y-0039000D01*
Y-0038778D01*
X0030203Y-0038667D01*
X0030314Y-0038556D01*
X0030425D01*
X0030536Y-0038667D01*
X0030592Y-0038778D01*
Y-0039000D01*
X0030536Y-0039111D01*
X0030425Y-0039222D01*
X0030314D01*
X0029892Y-0039000D02*
X0029447D01*
X0029669Y-0038556D01*
X0029780D01*
Y-0039222D01*
X0028914D02*
X0028803Y-0039111D01*
X0028747Y-0039000D01*
Y-0038778D01*
X0028803Y-0038667D01*
X0028914Y-0038556D01*
X0029025D01*
X0029136Y-0038667D01*
X0029192Y-0038778D01*
Y-0039000D01*
X0029136Y-0039111D01*
X0029025Y-0039222D01*
X0028914D01*
X0028381D02*
X0028492D01*
Y-0039111D01*
X0028381D01*
Y-0039222D01*
X0027736D02*
X0027625Y-0039111D01*
X0027569Y-0039000D01*
Y-0038778D01*
X0027625Y-0038667D01*
X0027736Y-0038556D01*
X0027847D01*
X0027958Y-0038667D01*
X0028014Y-0038778D01*
Y-0039000D01*
X0027958Y-0039111D01*
X0027847Y-0039222D01*
X0027736D01*
X0044208Y-0037500D02*
X0043764D01*
X0043986Y-0037056D01*
X0044097D01*
Y-0037722D01*
X0043508D02*
X0043286D01*
X0043397D02*
Y-0037056D01*
X0043286Y-0037167D01*
X0030203Y-0037389D02*
X0030536D01*
X0030592Y-0037500D01*
Y-0037611D01*
X0030536Y-0037722D01*
X0030203D01*
X0030147Y-0037611D01*
Y-0037500D01*
X0030369Y-0037056D01*
X0029447Y-0037611D02*
X0029558Y-0037722D01*
X0029780D01*
X0029892Y-0037611D01*
Y-0037500D01*
X0029669Y-0037278D01*
X0029892Y-0037056D01*
X0029447D01*
X0028914Y-0037722D02*
X0028803Y-0037611D01*
X0028747Y-0037500D01*
Y-0037278D01*
X0028803Y-0037167D01*
X0028914Y-0037056D01*
X0029025D01*
X0029136Y-0037167D01*
X0029192Y-0037278D01*
Y-0037500D01*
X0029136Y-0037611D01*
X0029025Y-0037722D01*
X0028914D01*
X0028381D02*
X0028492D01*
Y-0037611D01*
X0028381D01*
Y-0037722D01*
X0027736D02*
X0027625Y-0037611D01*
X0027569Y-0037500D01*
Y-0037278D01*
X0027625Y-0037167D01*
X0027736Y-0037056D01*
X0027847D01*
X0027958Y-0037167D01*
X0028014Y-0037278D01*
Y-0037500D01*
X0027958Y-0037611D01*
X0027847Y-0037722D01*
X0027736D01*
X0043819Y-0035889D02*
X0044153D01*
X0044208Y-0036000D01*
Y-0036111D01*
X0044153Y-0036222D01*
X0043819D01*
X0043764Y-0036111D01*
Y-0036000D01*
X0043986Y-0035556D01*
X0043508Y-0036000D02*
X0043064D01*
X0043286Y-0035556D01*
X0043397D01*
Y-0036222D01*
X0030536Y-0035889D02*
X0030592Y-0035778D01*
Y-0035667D01*
X0030536Y-0035556D01*
X0030203D01*
X0030147Y-0035667D01*
Y-0035778D01*
X0030203Y-0035889D01*
X0030536D01*
X0030592Y-0036000D01*
Y-0036111D01*
X0030536Y-0036222D01*
X0030203D01*
X0030147Y-0036111D01*
Y-0036000D01*
X0030203Y-0035889D01*
X0029892Y-0036222D02*
X0029447D01*
X0029892Y-0035778D01*
Y-0035667D01*
X0029836Y-0035556D01*
X0029503D01*
X0029447Y-0035667D01*
X0028914Y-0036222D02*
X0028803Y-0036111D01*
X0028747Y-0036000D01*
Y-0035778D01*
X0028803Y-0035667D01*
X0028914Y-0035556D01*
X0029025D01*
X0029136Y-0035667D01*
X0029192Y-0035778D01*
Y-0036000D01*
X0029136Y-0036111D01*
X0029025Y-0036222D01*
X0028914D01*
X0028381D02*
X0028492D01*
Y-0036111D01*
X0028381D01*
Y-0036222D01*
X0027736D02*
X0027625Y-0036111D01*
X0027569Y-0036000D01*
Y-0035778D01*
X0027625Y-0035667D01*
X0027736Y-0035556D01*
X0027847D01*
X0027958Y-0035667D01*
X0028014Y-0035778D01*
Y-0036000D01*
X0027958Y-0036111D01*
X0027847Y-0036222D01*
X0027736D01*
X0044208Y-0034722D02*
X0043764D01*
X0044208Y-0034278D01*
Y-0034167D01*
X0044153Y-0034056D01*
X0043819D01*
X0043764Y-0034167D01*
X0030314Y-0034722D02*
X0030203Y-0034611D01*
X0030147Y-0034500D01*
Y-0034278D01*
X0030203Y-0034167D01*
X0030314Y-0034056D01*
X0030425D01*
X0030536Y-0034167D01*
X0030592Y-0034278D01*
Y-0034500D01*
X0030536Y-0034611D01*
X0030425Y-0034722D01*
X0030314D01*
X0029892D02*
X0029447D01*
X0029892Y-0034278D01*
Y-0034167D01*
X0029836Y-0034056D01*
X0029503D01*
X0029447Y-0034167D01*
X0028914Y-0034722D02*
X0028803Y-0034611D01*
X0028747Y-0034500D01*
Y-0034278D01*
X0028803Y-0034167D01*
X0028914Y-0034056D01*
X0029025D01*
X0029136Y-0034167D01*
X0029192Y-0034278D01*
Y-0034500D01*
X0029136Y-0034611D01*
X0029025Y-0034722D01*
X0028914D01*
X0028381D02*
X0028492D01*
Y-0034611D01*
X0028381D01*
Y-0034722D01*
X0027736D02*
X0027625Y-0034611D01*
X0027569Y-0034500D01*
Y-0034278D01*
X0027625Y-0034167D01*
X0027736Y-0034056D01*
X0027847D01*
X0027958Y-0034167D01*
X0028014Y-0034278D01*
Y-0034500D01*
X0027958Y-0034611D01*
X0027847Y-0034722D01*
X0027736D01*
X0044153Y-0032889D02*
X0044208Y-0032778D01*
Y-0032667D01*
X0044153Y-0032556D01*
X0043819D01*
X0043764Y-0032667D01*
Y-0032778D01*
X0043819Y-0032889D01*
X0044153D01*
X0044208Y-0033000D01*
Y-0033111D01*
X0044153Y-0033222D01*
X0043819D01*
X0043764Y-0033111D01*
Y-0033000D01*
X0043819Y-0032889D01*
X0043064Y-0033111D02*
X0043119Y-0033222D01*
X0043453D01*
X0043508Y-0033111D01*
Y-0032889D01*
X0043397Y-0032778D01*
X0043064D01*
Y-0032556D01*
X0043508D01*
X0030592Y-0033222D02*
X0030147D01*
X0030592Y-0032778D01*
Y-0032667D01*
X0030536Y-0032556D01*
X0030203D01*
X0030147Y-0032667D01*
X0029892Y-0033222D02*
X0029669D01*
X0029780D02*
Y-0032556D01*
X0029669Y-0032667D01*
X0029025Y-0033222D02*
X0028914Y-0033111D01*
X0028858Y-0033000D01*
Y-0032778D01*
X0028914Y-0032667D01*
X0029025Y-0032556D01*
X0029136D01*
X0029247Y-0032667D01*
X0029303Y-0032778D01*
Y-0033000D01*
X0029247Y-0033111D01*
X0029136Y-0033222D01*
X0029025D01*
X0028492D02*
X0028603D01*
Y-0033111D01*
X0028492D01*
Y-0033222D01*
X0027847D02*
X0027736Y-0033111D01*
X0027681Y-0033000D01*
Y-0032778D01*
X0027736Y-0032667D01*
X0027847Y-0032556D01*
X0027958D01*
X0028069Y-0032667D01*
X0028125Y-0032778D01*
Y-0033000D01*
X0028069Y-0033111D01*
X0027958Y-0033222D01*
X0027847D01*
X0052612Y-0031083D02*
X0052112D01*
X0052779Y-0031583D02*
X0052112D01*
Y-0030583D01*
X0052779D01*
X0051496Y-0031583D02*
Y-0030583D01*
X0051829D02*
X0051162D01*
X0050296Y-0031583D02*
X0050212Y-0031417D01*
Y-0030750D01*
X0050296Y-0030583D01*
X0050796D01*
X0050879Y-0030750D01*
Y-0031417D01*
X0050796Y-0031583D01*
X0050296D01*
X0049929Y-0030583D02*
Y-0031583D01*
X0049762Y-0031417D01*
X0049429Y-0030750D01*
X0049262Y-0030583D01*
Y-0031583D01*
X0043425D02*
Y-0031083D01*
X0043758Y-0030583D02*
X0043508Y-0031083D01*
X0043342D01*
X0043092Y-0030583D01*
X0042475Y-0031583D02*
Y-0030583D01*
X0042808D02*
X0042142D01*
X0041525Y-0031250D02*
X0041858Y-0031583D01*
X0041192Y-0031417D02*
X0041275Y-0031583D01*
X0041608D01*
X0041692Y-0031417D01*
X0041858Y-0031250D01*
Y-0030750D01*
X0041775Y-0030583D01*
X0041275D01*
X0041192Y-0030750D01*
Y-0031417D01*
X0036908Y-0031583D02*
X0036325D01*
Y-0030583D01*
X0035458Y-0031583D02*
X0035375Y-0031417D01*
Y-0030750D01*
X0035458Y-0030583D01*
X0035958D01*
X0036042Y-0030750D01*
Y-0031417D01*
X0035958Y-0031583D01*
X0035458D01*
X0034758D02*
Y-0030583D01*
X0035092D02*
X0034425D01*
X0029087Y-0031583D02*
Y-0030583D01*
X0028921Y-0030750D01*
X0028754Y-0031083D01*
X0028587Y-0030750D01*
X0028421Y-0030583D01*
Y-0031583D01*
X0028137Y-0031250D02*
X0027471D01*
X0028137Y-0031583D02*
Y-0031083D01*
X0027887Y-0030583D01*
X0027721D01*
X0027471Y-0031083D01*
Y-0031583D01*
X0027187D02*
X0026854D01*
X0027021D02*
Y-0030583D01*
X0027187D02*
X0026854D01*
X0025821Y-0031583D02*
Y-0030583D01*
X0025737Y-0031583D02*
X0026237D01*
X0026404Y-0031250D01*
Y-0030917D01*
X0026237Y-0030583D01*
X0025737D01*
X0022650Y-0031583D02*
Y-0030583D01*
X0022483Y-0030750D01*
X0022317Y-0031083D01*
X0022150Y-0030750D01*
X0021983Y-0030583D01*
Y-0031583D01*
X0021367D02*
Y-0031083D01*
X0021700Y-0030583D02*
X0021450Y-0031083D01*
X0021283D01*
X0021033Y-0030583D01*
X0020750Y-0030750D02*
X0020667Y-0030583D01*
X0020167D01*
X0020083Y-0030750D01*
Y-0030917D01*
X0020167Y-0031083D01*
X0020667D01*
X0020750Y-0031250D01*
Y-0031417D01*
X0020667Y-0031583D01*
X0020167D01*
X0020083Y-0031417D01*
X0042937Y-0029583D02*
Y-0028583D01*
X0043271D02*
X0042604D01*
X0042071Y-0029083D02*
X0042321Y-0029583D01*
X0041654Y-0029083D02*
X0042154D01*
X0042321Y-0028917D01*
Y-0028750D01*
X0042154Y-0028583D01*
X0041654D01*
Y-0029583D01*
X0041371Y-0029250D02*
X0040704D01*
X0041371Y-0029583D02*
Y-0029083D01*
X0041121Y-0028583D01*
X0040954D01*
X0040704Y-0029083D01*
Y-0029583D01*
X0040421Y-0029083D02*
X0039754D01*
X0040421Y-0029583D02*
Y-0028583D01*
X0039754Y-0029583D02*
Y-0028583D01*
X0039471Y-0029417D02*
X0039387Y-0029583D01*
X0038887D01*
X0038804Y-0029417D01*
Y-0028750D01*
X0038887Y-0028583D01*
X0039387D01*
X0039471Y-0028750D01*
X0037196Y-0029583D02*
X0036612D01*
Y-0028583D01*
X0036329Y-0029583D02*
X0035746D01*
Y-0028583D01*
X0035462Y-0029583D02*
X0035129D01*
X0035296D02*
Y-0028583D01*
X0035462D02*
X0035129D01*
X0034429Y-0029083D02*
X0034679Y-0029583D01*
X0034012Y-0029083D02*
X0034512D01*
X0034679Y-0028917D01*
Y-0028750D01*
X0034512Y-0028583D01*
X0034012D01*
Y-0029583D01*
X0033146D02*
Y-0028583D01*
X0033062Y-0029583D02*
X0033562D01*
X0033729Y-0029250D01*
Y-0028917D01*
X0033562Y-0028583D01*
X0033062D01*
X0053500Y0012000D02*
Y0011000D01*
X0054500Y0012000D02*
X0053500D01*
X0054500Y0011000D02*
Y0012000D01*
X0053500Y0011000D02*
X0054500D01*
Y0011500D02*
X0053500D01*
X0054000Y0012000D02*
Y0011000D01*
X0053500Y0012000D02*
Y0011000D01*
X0054500Y0012000D02*
X0053500D01*
X0054500Y0011000D02*
Y0012000D01*
X0053500Y0011000D02*
X0054500D01*
Y0011500D02*
X0053500D01*
X0054000Y0012000D02*
Y0011000D01*
X0043500Y0033750D02*
Y0032750D01*
X0044500Y0033750D02*
X0043500D01*
X0044500Y0032750D02*
Y0033750D01*
X0043500Y0032750D02*
X0044500D01*
Y0033750D02*
X0043500Y0032750D01*
X0044500D02*
X0043500Y0033750D01*
X0034750Y0037000D02*
Y0036000D01*
X0035750Y0037000D02*
X0034750D01*
X0035750Y0036000D02*
Y0037000D01*
X0034750Y0036000D02*
X0035750D01*
Y0037000D02*
X0034750Y0036000D01*
X0035750D02*
X0034750Y0037000D01*
X0021825Y-0052000D02*
X0020825Y-0053000D01*
X0021825D02*
X0020825Y-0052000D01*
X0021825Y-0051000D02*
X0020825D01*
X0021325Y-0050500D02*
Y-0051500D01*
X0021075Y-0049400D02*
Y-0049600D01*
X0021325Y-0049650D02*
X0021075Y-0049400D01*
X0021575D02*
X0021325Y-0049650D01*
X0021575Y-0049600D02*
Y-0049400D01*
X0021325Y-0049350D02*
X0021575Y-0049600D01*
X0021075D02*
X0021325Y-0049350D01*
Y-0047850D02*
X0021075Y-0048100D01*
X0021575D02*
X0021325Y-0047850D01*
X0021075Y-0048100D02*
X0021575D01*
X0021075Y-0046400D02*
Y-0046600D01*
X0021225Y-0046250D02*
X0021075Y-0046400D01*
X0021425Y-0046250D02*
X0021225D01*
X0021575Y-0046400D02*
X0021425Y-0046250D01*
X0021575Y-0046600D02*
Y-0046400D01*
X0021425Y-0046750D02*
X0021575Y-0046600D01*
X0021225Y-0046750D02*
X0021425D01*
X0021075Y-0046600D02*
X0021225Y-0046750D01*
X0021075Y-0044750D02*
Y-0045000D01*
X0021325Y-0044750D02*
X0021075D01*
X0021325Y-0045250D02*
Y-0044750D01*
X0021575Y-0045250D02*
X0021325D01*
X0021575Y-0045000D02*
Y-0045250D01*
X0021075Y-0045000D02*
X0021575D01*
X0021075Y-0043250D02*
Y-0043750D01*
X0021575Y-0043250D02*
X0021075D01*
X0021575Y-0043750D02*
Y-0043250D01*
X0021075Y-0043750D02*
X0021575D01*
Y-0043500D02*
X0021075D01*
X0021325Y-0043250D02*
Y-0043750D01*
X0021075Y-0041750D02*
Y-0042250D01*
X0021575Y-0041750D02*
X0021075D01*
X0021575Y-0042250D02*
Y-0041750D01*
X0021075Y-0042250D02*
X0021575D01*
Y-0041750D02*
X0021075Y-0042250D01*
X0021575D02*
X0021075Y-0041750D01*
X0021325Y-0040250D02*
X0021075Y-0040500D01*
X0021575D02*
X0021325Y-0040250D01*
Y-0040750D02*
X0021575Y-0040500D01*
X0021075D02*
X0021325Y-0040750D01*
X0021575Y-0039000D02*
X0021075D01*
X0021325Y-0038750D02*
Y-0039250D01*
X0021575Y-0037250D02*
X0021075Y-0037750D01*
X0021575D02*
X0021075Y-0037250D01*
X0020825Y-0035500D02*
Y-0036500D01*
X0021825Y-0035500D02*
X0020825D01*
X0021825Y-0036500D02*
Y-0035500D01*
X0020825Y-0036500D02*
X0021825D01*
Y-0036000D02*
X0020825D01*
X0021325Y-0035500D02*
Y-0036500D01*
X0020825Y-0034000D02*
Y-0035000D01*
X0021825Y-0034000D02*
X0020825D01*
X0021825Y-0035000D02*
Y-0034000D01*
X0020825Y-0035000D02*
X0021825D01*
Y-0034000D02*
X0020825Y-0035000D01*
X0021825D02*
X0020825Y-0034000D01*
X0021325Y-0032500D02*
X0020825Y-0033000D01*
X0021825D02*
X0021325Y-0032500D01*
Y-0033500D02*
X0021825Y-0033000D01*
X0020825D02*
X0021325Y-0033500D01*
X0021425Y-0033000D02*
X0021225D01*
X0021325Y-0032900D02*
Y-0033100D01*
X0056800Y-0055300D02*
X0019450D01*
X0056750Y-0055250D02*
X0019500D01*
X0056750Y-0053250D02*
X0019500D01*
X0056750Y-0051750D02*
X0019500D01*
X0056750Y-0050250D02*
X0019500D01*
X0056750Y-0048750D02*
X0019500D01*
X0056750Y-0047250D02*
X0019500D01*
X0056750Y-0045750D02*
X0019500D01*
X0056750Y-0044250D02*
X0019500D01*
X0056750Y-0042750D02*
X0019500D01*
X0056750Y-0041250D02*
X0019500D01*
X0056750Y-0039750D02*
X0019500D01*
X0056750Y-0038250D02*
X0019500D01*
X0056750Y-0036750D02*
X0019500D01*
X0056750Y-0035250D02*
X0019500D01*
X0056750Y-0033750D02*
X0019500D01*
X0056750Y-0032250D02*
X0019500D01*
X0056750Y-0032200D02*
X0019500D01*
X0056750Y-0030250D02*
X0019500D01*
X0056750Y-0030200D02*
X0019500D01*
X0056750Y-0028250D02*
X0019500D01*
X0056800Y-0028200D02*
X0019450D01*
X0056800Y-0055250D02*
Y-0028250D01*
X0056750Y-0055250D02*
Y-0028250D01*
X0045208Y-0055250D02*
Y-0030250D01*
X0039658Y-0055250D02*
Y-0030250D01*
X0031592Y-0053250D02*
Y-0030250D01*
X0023200Y-0053250D02*
Y-0030250D01*
X0023150Y-0053250D02*
Y-0030250D01*
X0019450Y-0055250D02*
Y-0028250D01*
X0019500Y-0055250D02*
Y-0028250D01*
X0034375Y0020625D02*
Y0019625D01*
X0035375Y0020625D02*
X0034375D01*
X0035375Y0019625D02*
Y0020625D01*
X0034375Y0019625D02*
X0035375D01*
Y0020125D02*
X0034375D01*
X0034875Y0020625D02*
Y0019625D01*
X0007000Y0011625D02*
Y0010625D01*
X0008000Y0011625D02*
X0007000D01*
X0008000Y0010625D02*
Y0011625D01*
X0007000Y0010625D02*
X0008000D01*
Y0011125D02*
X0007000D01*
X0007500Y0011625D02*
Y0010625D01*
X0034500Y0014000D02*
Y0013000D01*
X0035500Y0014000D02*
X0034500D01*
X0035500Y0013000D02*
Y0014000D01*
X0034500Y0013000D02*
X0035500D01*
Y0013500D02*
X0034500D01*
X0035000Y0014000D02*
Y0013000D01*
X0034000Y0014000D02*
Y0013000D01*
X0035000Y0014000D02*
X0034000D01*
X0035000Y0013000D02*
Y0014000D01*
X0034000Y0013000D02*
X0035000D01*
Y0013500D02*
X0034000D01*
X0034500Y0014000D02*
Y0013000D01*
X0033500Y0014000D02*
Y0013000D01*
X0034500Y0014000D02*
X0033500D01*
X0034500Y0013000D02*
Y0014000D01*
X0033500Y0013000D02*
X0034500D01*
Y0013500D02*
X0033500D01*
X0034000Y0014000D02*
Y0013000D01*
X0031500Y0014000D02*
Y0013000D01*
X0032500Y0014000D02*
X0031500D01*
X0032500Y0013000D02*
Y0014000D01*
X0031500Y0013000D02*
X0032500D01*
Y0013500D02*
X0031500D01*
X0032000Y0014000D02*
Y0013000D01*
Y0014000D02*
Y0013000D01*
X0033000Y0014000D02*
X0032000D01*
X0033000Y0013000D02*
Y0014000D01*
X0032000Y0013000D02*
X0033000D01*
Y0013500D02*
X0032000D01*
X0032500Y0014000D02*
Y0013000D01*
Y0014000D02*
Y0013000D01*
X0033500Y0014000D02*
X0032500D01*
X0033500Y0013000D02*
Y0014000D01*
X0032500Y0013000D02*
X0033500D01*
Y0013500D02*
X0032500D01*
X0033000Y0014000D02*
Y0013000D01*
Y0014000D02*
Y0013000D01*
X0034000Y0014000D02*
X0033000D01*
X0034000Y0013000D02*
Y0014000D01*
X0033000Y0013000D02*
X0034000D01*
Y0013500D02*
X0033000D01*
X0033500Y0014000D02*
Y0013000D01*
X0034500Y0029500D02*
Y0028500D01*
X0035500Y0029500D02*
X0034500D01*
X0035500Y0028500D02*
Y0029500D01*
X0034500Y0028500D02*
X0035500D01*
Y0029000D02*
X0034500D01*
X0035000Y0029500D02*
Y0028500D01*
X0034000Y0029500D02*
Y0028500D01*
X0035000Y0029500D02*
X0034000D01*
X0035000Y0028500D02*
Y0029500D01*
X0034000Y0028500D02*
X0035000D01*
Y0029000D02*
X0034000D01*
X0034500Y0029500D02*
Y0028500D01*
X0033500Y0029500D02*
Y0028500D01*
X0034500Y0029500D02*
X0033500D01*
X0034500Y0028500D02*
Y0029500D01*
X0033500Y0028500D02*
X0034500D01*
Y0029000D02*
X0033500D01*
X0034000Y0029500D02*
Y0028500D01*
X0032500Y0029500D02*
Y0028500D01*
X0033500Y0029500D02*
X0032500D01*
X0033500Y0028500D02*
Y0029500D01*
X0032500Y0028500D02*
X0033500D01*
Y0029000D02*
X0032500D01*
X0033000Y0029500D02*
Y0028500D01*
Y0029500D02*
Y0028500D01*
X0034000Y0029500D02*
X0033000D01*
X0034000Y0028500D02*
Y0029500D01*
X0033000Y0028500D02*
X0034000D01*
Y0029000D02*
X0033000D01*
X0033500Y0029500D02*
Y0028500D01*
X0032000Y0029500D02*
Y0028500D01*
X0033000Y0029500D02*
X0032000D01*
X0033000Y0028500D02*
Y0029500D01*
X0032000Y0028500D02*
X0033000D01*
Y0029000D02*
X0032000D01*
X0032500Y0029500D02*
Y0028500D01*
X0031500Y0029500D02*
Y0028500D01*
X0032500Y0029500D02*
X0031500D01*
X0032500Y0028500D02*
Y0029500D01*
X0031500Y0028500D02*
X0032500D01*
Y0029000D02*
X0031500D01*
X0032000Y0029500D02*
Y0028500D01*
X0042750Y0016125D02*
Y0015125D01*
X0043750Y0016125D02*
X0042750D01*
X0043750Y0015125D02*
Y0016125D01*
X0042750Y0015125D02*
X0043750D01*
Y0015625D02*
X0042750D01*
X0043250Y0016125D02*
Y0015125D01*
X0037000Y0006250D02*
Y0005250D01*
X0038000Y0006250D02*
X0037000D01*
X0038000Y0005250D02*
Y0006250D01*
X0037000Y0005250D02*
X0038000D01*
Y0005750D02*
X0037000D01*
X0037500Y0006250D02*
Y0005250D01*
X0037000Y0008125D02*
Y0007125D01*
X0038000Y0008125D02*
X0037000D01*
X0038000Y0007125D02*
Y0008125D01*
X0037000Y0007125D02*
X0038000D01*
Y0007625D02*
X0037000D01*
X0037500Y0008125D02*
Y0007125D01*
X0032375Y0002125D02*
Y0001125D01*
X0033375Y0002125D02*
X0032375D01*
X0033375Y0001125D02*
Y0002125D01*
X0032375Y0001125D02*
X0033375D01*
Y0001625D02*
X0032375D01*
X0032875Y0002125D02*
Y0001125D01*
X0044000Y0006250D02*
Y0005250D01*
X0045000Y0006250D02*
X0044000D01*
X0045000Y0005250D02*
Y0006250D01*
X0044000Y0005250D02*
X0045000D01*
Y0005750D02*
X0044000D01*
X0044500Y0006250D02*
Y0005250D01*
X0039125Y0008625D02*
Y0007625D01*
X0040125Y0008625D02*
X0039125D01*
X0040125Y0007625D02*
Y0008625D01*
X0039125Y0007625D02*
X0040125D01*
Y0008125D02*
X0039125D01*
X0039625Y0008625D02*
Y0007625D01*
X0046125Y0008625D02*
Y0007625D01*
X0047125Y0008625D02*
X0046125D01*
X0047125Y0007625D02*
Y0008625D01*
X0046125Y0007625D02*
X0047125D01*
Y0008125D02*
X0046125D01*
X0046625Y0008625D02*
Y0007625D01*
X0044000Y0008125D02*
Y0007125D01*
X0045000Y0008125D02*
X0044000D01*
X0045000Y0007125D02*
Y0008125D01*
X0044000Y0007125D02*
X0045000D01*
Y0007625D02*
X0044000D01*
X0044500Y0008125D02*
Y0007125D01*
X0040250Y0008250D02*
Y0007250D01*
X0041250Y0008250D02*
X0040250D01*
X0041250Y0007250D02*
Y0008250D01*
X0040250Y0007250D02*
X0041250D01*
Y0007750D02*
X0040250D01*
X0040750Y0008250D02*
Y0007250D01*
X0047250Y0008250D02*
Y0007250D01*
X0048250Y0008250D02*
X0047250D01*
X0048250Y0007250D02*
Y0008250D01*
X0047250Y0007250D02*
X0048250D01*
Y0007750D02*
X0047250D01*
X0047750Y0008250D02*
Y0007250D01*
X0047000Y0006750D02*
Y0005750D01*
X0048000Y0006750D02*
X0047000D01*
X0048000Y0005750D02*
Y0006750D01*
X0047000Y0005750D02*
X0048000D01*
Y0006250D02*
X0047000D01*
X0047500Y0006750D02*
Y0005750D01*
X0040000Y0006750D02*
Y0005750D01*
X0041000Y0006750D02*
X0040000D01*
X0041000Y0005750D02*
Y0006750D01*
X0040000Y0005750D02*
X0041000D01*
Y0006250D02*
X0040000D01*
X0040500Y0006750D02*
Y0005750D01*
X0030690Y0023815D02*
Y0022815D01*
X0031690Y0023815D02*
X0030690D01*
X0031690Y0022815D02*
Y0023815D01*
X0030690Y0022815D02*
X0031690D01*
Y0023315D02*
X0030690D01*
X0031190Y0023815D02*
Y0022815D01*
X0033315Y0023815D02*
Y0022815D01*
X0034315Y0023815D02*
X0033315D01*
X0034315Y0022815D02*
Y0023815D01*
X0033315Y0022815D02*
X0034315D01*
Y0023315D02*
X0033315D01*
X0033815Y0023815D02*
Y0022815D01*
X0053500Y0031250D02*
Y0030250D01*
X0054500Y0031250D02*
X0053500D01*
X0054500Y0030250D02*
Y0031250D01*
X0053500Y0030250D02*
X0054500D01*
Y0030750D02*
X0053500D01*
X0054000Y0031250D02*
Y0030250D01*
X0043000Y0037875D02*
Y0036875D01*
X0044000Y0037875D02*
X0043000D01*
X0044000Y0036875D02*
Y0037875D01*
X0043000Y0036875D02*
X0044000D01*
Y0037375D02*
X0043000D01*
X0043500Y0037875D02*
Y0036875D01*
X0043000Y0038375D02*
Y0037375D01*
X0044000Y0038375D02*
X0043000D01*
X0044000Y0037375D02*
Y0038375D01*
X0043000Y0037375D02*
X0044000D01*
Y0037875D02*
X0043000D01*
X0043500Y0038375D02*
Y0037375D01*
X0043250Y0035750D02*
Y0034750D01*
X0044250Y0035750D02*
X0043250D01*
X0044250Y0034750D02*
Y0035750D01*
X0043250Y0034750D02*
X0044250D01*
Y0035250D02*
X0043250D01*
X0043750Y0035750D02*
Y0034750D01*
X0057650Y0030475D02*
Y0029475D01*
X0058650Y0030475D02*
X0057650D01*
X0058650Y0029475D02*
Y0030475D01*
X0057650Y0029475D02*
X0058650D01*
Y0029975D02*
X0057650D01*
X0058150Y0030475D02*
Y0029475D01*
X0008625Y0037875D02*
Y0036875D01*
X0009625Y0037875D02*
X0008625D01*
X0009625Y0036875D02*
Y0037875D01*
X0008625Y0036875D02*
X0009625D01*
Y0037375D02*
X0008625D01*
X0009125Y0037875D02*
Y0036875D01*
X0008625Y0036375D02*
Y0035375D01*
X0009625Y0036375D02*
X0008625D01*
X0009625Y0035375D02*
Y0036375D01*
X0008625Y0035375D02*
X0009625D01*
Y0035875D02*
X0008625D01*
X0009125Y0036375D02*
Y0035375D01*
X0008000Y0033625D02*
Y0032625D01*
X0009000Y0033625D02*
X0008000D01*
X0009000Y0032625D02*
Y0033625D01*
X0008000Y0032625D02*
X0009000D01*
Y0033125D02*
X0008000D01*
X0008500Y0033625D02*
Y0032625D01*
Y0032500D02*
Y0031500D01*
X0009500Y0032500D02*
X0008500D01*
X0009500Y0031500D02*
Y0032500D01*
X0008500Y0031500D02*
X0009500D01*
Y0032000D02*
X0008500D01*
X0009000Y0032500D02*
Y0031500D01*
X0008500Y0033000D02*
Y0032000D01*
X0009500Y0033000D02*
X0008500D01*
X0009500Y0032000D02*
Y0033000D01*
X0008500Y0032000D02*
X0009500D01*
Y0032500D02*
X0008500D01*
X0009000Y0033000D02*
Y0032000D01*
X0008500Y0034250D02*
Y0033250D01*
X0009500Y0034250D02*
X0008500D01*
X0009500Y0033250D02*
Y0034250D01*
X0008500Y0033250D02*
X0009500D01*
Y0033750D02*
X0008500D01*
X0009000Y0034250D02*
Y0033250D01*
X0008625Y0036875D02*
Y0035875D01*
X0009625Y0036875D02*
X0008625D01*
X0009625Y0035875D02*
Y0036875D01*
X0008625Y0035875D02*
X0009625D01*
Y0036375D02*
X0008625D01*
X0009125Y0036875D02*
Y0035875D01*
X0008625Y0038375D02*
Y0037375D01*
X0009625Y0038375D02*
X0008625D01*
X0009625Y0037375D02*
Y0038375D01*
X0008625Y0037375D02*
X0009625D01*
Y0037875D02*
X0008625D01*
X0009125Y0038375D02*
Y0037375D01*
X0047975Y0002725D02*
Y0001725D01*
X0048975Y0002725D02*
X0047975D01*
X0048975Y0001725D02*
Y0002725D01*
X0047975Y0001725D02*
X0048975D01*
Y0002225D02*
X0047975D01*
X0048475Y0002725D02*
Y0001725D01*
X0040975Y0002725D02*
Y0001725D01*
X0041975Y0002725D02*
X0040975D01*
X0041975Y0001725D02*
Y0002725D01*
X0040975Y0001725D02*
X0041975D01*
Y0002225D02*
X0040975D01*
X0041475Y0002725D02*
Y0001725D01*
X0034125Y0037875D02*
X0033625Y0037375D01*
X0034625D02*
X0034125Y0037875D01*
Y0036875D02*
X0034625Y0037375D01*
X0033625D02*
X0034125Y0036875D01*
X0034225Y0037375D02*
X0034025D01*
X0034125Y0037475D02*
Y0037275D01*
Y0038375D02*
X0033625Y0037875D01*
X0034625D02*
X0034125Y0038375D01*
Y0037375D02*
X0034625Y0037875D01*
X0033625D02*
X0034125Y0037375D01*
X0034225Y0037875D02*
X0034025D01*
X0034125Y0037975D02*
Y0037775D01*
X0034750Y0036125D02*
X0034250Y0035625D01*
X0035250D02*
X0034750Y0036125D01*
Y0035125D02*
X0035250Y0035625D01*
X0034250D02*
X0034750Y0035125D01*
X0034850Y0035625D02*
X0034650D01*
X0034750Y0035725D02*
Y0035525D01*
X0007750Y0036000D02*
X0007250Y0035500D01*
X0008250D02*
X0007750Y0036000D01*
Y0035000D02*
X0008250Y0035500D01*
X0007250D02*
X0007750Y0035000D01*
X0007850Y0035500D02*
X0007650D01*
X0007750Y0035600D02*
Y0035400D01*
X0007250Y0036000D02*
X0006750Y0035500D01*
X0007750D02*
X0007250Y0036000D01*
Y0035000D02*
X0007750Y0035500D01*
X0006750D02*
X0007250Y0035000D01*
X0007350Y0035500D02*
X0007150D01*
X0007250Y0035600D02*
Y0035400D01*
X0006250Y0036000D02*
X0005750Y0035500D01*
X0006750D02*
X0006250Y0036000D01*
Y0035000D02*
X0006750Y0035500D01*
X0005750D02*
X0006250Y0035000D01*
X0006350Y0035500D02*
X0006150D01*
X0006250Y0035600D02*
Y0035400D01*
X0005750Y0036000D02*
X0005250Y0035500D01*
X0006250D02*
X0005750Y0036000D01*
Y0035000D02*
X0006250Y0035500D01*
X0005250D02*
X0005750Y0035000D01*
X0005850Y0035500D02*
X0005650D01*
X0005750Y0035600D02*
Y0035400D01*
X0006750Y0036000D02*
X0006250Y0035500D01*
X0007250D02*
X0006750Y0036000D01*
Y0035000D02*
X0007250Y0035500D01*
X0006250D02*
X0006750Y0035000D01*
X0006850Y0035500D02*
X0006650D01*
X0006750Y0035600D02*
Y0035400D01*
X0008500Y0031125D02*
X0008000Y0030625D01*
X0009000D02*
X0008500Y0031125D01*
Y0030125D02*
X0009000Y0030625D01*
X0008000D02*
X0008500Y0030125D01*
X0008600Y0030625D02*
X0008400D01*
X0008500Y0030725D02*
Y0030525D01*
X0009000Y0031125D02*
X0008500Y0030625D01*
X0009500D02*
X0009000Y0031125D01*
Y0030125D02*
X0009500Y0030625D01*
X0008500D02*
X0009000Y0030125D01*
X0009100Y0030625D02*
X0008900D01*
X0009000Y0030725D02*
Y0030525D01*
Y0027750D02*
X0008500Y0027250D01*
X0009500D02*
X0009000Y0027750D01*
Y0026750D02*
X0009500Y0027250D01*
X0008500D02*
X0009000Y0026750D01*
X0009100Y0027250D02*
X0008900D01*
X0009000Y0027350D02*
Y0027150D01*
X0008500Y0027750D02*
X0008000Y0027250D01*
X0009000D02*
X0008500Y0027750D01*
Y0026750D02*
X0009000Y0027250D01*
X0008000D02*
X0008500Y0026750D01*
X0008600Y0027250D02*
X0008400D01*
X0008500Y0027350D02*
Y0027150D01*
X0007625Y0026250D02*
X0007125Y0025750D01*
X0008125D02*
X0007625Y0026250D01*
Y0025250D02*
X0008125Y0025750D01*
X0007125D02*
X0007625Y0025250D01*
X0007725Y0025750D02*
X0007525D01*
X0007625Y0025850D02*
Y0025650D01*
Y0027125D02*
X0007125Y0026625D01*
X0008125D02*
X0007625Y0027125D01*
Y0026125D02*
X0008125Y0026625D01*
X0007125D02*
X0007625Y0026125D01*
X0007725Y0026625D02*
X0007525D01*
X0007625Y0026725D02*
Y0026525D01*
Y0025375D02*
X0007125Y0024875D01*
X0008125D02*
X0007625Y0025375D01*
Y0024375D02*
X0008125Y0024875D01*
X0007125D02*
X0007625Y0024375D01*
X0007725Y0024875D02*
X0007525D01*
X0007625Y0024975D02*
Y0024775D01*
X0006375Y0022250D02*
X0005875Y0021750D01*
X0006875D02*
X0006375Y0022250D01*
Y0021250D02*
X0006875Y0021750D01*
X0005875D02*
X0006375Y0021250D01*
X0006475Y0021750D02*
X0006275D01*
X0006375Y0021850D02*
Y0021650D01*
X0006000Y0011625D02*
X0005500Y0011125D01*
X0006500D02*
X0006000Y0011625D01*
Y0010625D02*
X0006500Y0011125D01*
X0005500D02*
X0006000Y0010625D01*
X0006100Y0011125D02*
X0005900D01*
X0006000Y0011225D02*
Y0011025D01*
X0004875Y0006500D02*
X0004375Y0006000D01*
X0005375D02*
X0004875Y0006500D01*
Y0005500D02*
X0005375Y0006000D01*
X0004375D02*
X0004875Y0005500D01*
X0004975Y0006000D02*
X0004775D01*
X0004875Y0006100D02*
Y0005900D01*
X0006000Y0007625D02*
X0005500Y0007125D01*
X0006500D02*
X0006000Y0007625D01*
Y0006625D02*
X0006500Y0007125D01*
X0005500D02*
X0006000Y0006625D01*
X0006100Y0007125D02*
X0005900D01*
X0006000Y0007225D02*
Y0007025D01*
X0007500Y0007625D02*
X0007000Y0007125D01*
X0008000D02*
X0007500Y0007625D01*
Y0006625D02*
X0008000Y0007125D01*
X0007000D02*
X0007500Y0006625D01*
X0007600Y0007125D02*
X0007400D01*
X0007500Y0007225D02*
Y0007025D01*
X0007250Y0004375D02*
X0006750Y0003875D01*
X0007750D02*
X0007250Y0004375D01*
Y0003375D02*
X0007750Y0003875D01*
X0006750D02*
X0007250Y0003375D01*
X0007350Y0003875D02*
X0007150D01*
X0007250Y0003975D02*
Y0003775D01*
X0006375Y0004375D02*
X0005875Y0003875D01*
X0006875D02*
X0006375Y0004375D01*
Y0003375D02*
X0006875Y0003875D01*
X0005875D02*
X0006375Y0003375D01*
X0006475Y0003875D02*
X0006275D01*
X0006375Y0003975D02*
Y0003775D01*
X0005375Y0004375D02*
X0004875Y0003875D01*
X0005875D02*
X0005375Y0004375D01*
Y0003375D02*
X0005875Y0003875D01*
X0004875D02*
X0005375Y0003375D01*
X0005475Y0003875D02*
X0005275D01*
X0005375Y0003975D02*
Y0003775D01*
X0004500Y0004375D02*
X0004000Y0003875D01*
X0005000D02*
X0004500Y0004375D01*
Y0003375D02*
X0005000Y0003875D01*
X0004000D02*
X0004500Y0003375D01*
X0004600Y0003875D02*
X0004400D01*
X0004500Y0003975D02*
Y0003775D01*
X0054000Y0029750D02*
X0053500Y0029250D01*
X0054500D02*
X0054000Y0029750D01*
Y0028750D02*
X0054500Y0029250D01*
X0053500D02*
X0054000Y0028750D01*
X0054100Y0029250D02*
X0053900D01*
X0054000Y0029350D02*
Y0029150D01*
X0053000Y0029750D02*
X0052500Y0029250D01*
X0053500D02*
X0053000Y0029750D01*
Y0028750D02*
X0053500Y0029250D01*
X0052500D02*
X0053000Y0028750D01*
X0053100Y0029250D02*
X0052900D01*
X0053000Y0029350D02*
Y0029150D01*
X0052000Y0029750D02*
X0051500Y0029250D01*
X0052500D02*
X0052000Y0029750D01*
Y0028750D02*
X0052500Y0029250D01*
X0051500D02*
X0052000Y0028750D01*
X0052100Y0029250D02*
X0051900D01*
X0052000Y0029350D02*
Y0029150D01*
X0051000Y0029750D02*
X0050500Y0029250D01*
X0051500D02*
X0051000Y0029750D01*
Y0028750D02*
X0051500Y0029250D01*
X0050500D02*
X0051000Y0028750D01*
X0051100Y0029250D02*
X0050900D01*
X0051000Y0029350D02*
Y0029150D01*
X0050000Y0029750D02*
X0049500Y0029250D01*
X0050500D02*
X0050000Y0029750D01*
Y0028750D02*
X0050500Y0029250D01*
X0049500D02*
X0050000Y0028750D01*
X0050100Y0029250D02*
X0049900D01*
X0050000Y0029350D02*
Y0029150D01*
X0049000Y0029750D02*
X0048500Y0029250D01*
X0049500D02*
X0049000Y0029750D01*
Y0028750D02*
X0049500Y0029250D01*
X0048500D02*
X0049000Y0028750D01*
X0049100Y0029250D02*
X0048900D01*
X0049000Y0029350D02*
Y0029150D01*
X0048000Y0029750D02*
X0047500Y0029250D01*
X0048500D02*
X0048000Y0029750D01*
Y0028750D02*
X0048500Y0029250D01*
X0047500D02*
X0048000Y0028750D01*
X0048100Y0029250D02*
X0047900D01*
X0048000Y0029350D02*
Y0029150D01*
X0047000Y0029750D02*
X0046500Y0029250D01*
X0047500D02*
X0047000Y0029750D01*
Y0028750D02*
X0047500Y0029250D01*
X0046500D02*
X0047000Y0028750D01*
X0047100Y0029250D02*
X0046900D01*
X0047000Y0029350D02*
Y0029150D01*
X0046000Y0029750D02*
X0045500Y0029250D01*
X0046500D02*
X0046000Y0029750D01*
Y0028750D02*
X0046500Y0029250D01*
X0045500D02*
X0046000Y0028750D01*
X0046100Y0029250D02*
X0045900D01*
X0046000Y0029350D02*
Y0029150D01*
X0045000Y0029750D02*
X0044500Y0029250D01*
X0045500D02*
X0045000Y0029750D01*
Y0028750D02*
X0045500Y0029250D01*
X0044500D02*
X0045000Y0028750D01*
X0045100Y0029250D02*
X0044900D01*
X0045000Y0029350D02*
Y0029150D01*
X0031125Y0019375D02*
X0030625Y0018875D01*
X0031625D02*
X0031125Y0019375D01*
Y0018375D02*
X0031625Y0018875D01*
X0030625D02*
X0031125Y0018375D01*
X0031225Y0018875D02*
X0031025D01*
X0031125Y0018975D02*
Y0018775D01*
X0031750Y0019375D02*
X0031250Y0018875D01*
X0032250D02*
X0031750Y0019375D01*
Y0018375D02*
X0032250Y0018875D01*
X0031250D02*
X0031750Y0018375D01*
X0031850Y0018875D02*
X0031650D01*
X0031750Y0018975D02*
Y0018775D01*
X0032250Y0019500D02*
X0031750Y0019000D01*
X0032750D02*
X0032250Y0019500D01*
Y0018500D02*
X0032750Y0019000D01*
X0031750D02*
X0032250Y0018500D01*
X0032350Y0019000D02*
X0032150D01*
X0032250Y0019100D02*
Y0018900D01*
X0031125Y0034875D02*
X0030625Y0034375D01*
X0031625D02*
X0031125Y0034875D01*
Y0033875D02*
X0031625Y0034375D01*
X0030625D02*
X0031125Y0033875D01*
X0031225Y0034375D02*
X0031025D01*
X0031125Y0034475D02*
Y0034275D01*
X0031750Y0034875D02*
X0031250Y0034375D01*
X0032250D02*
X0031750Y0034875D01*
Y0033875D02*
X0032250Y0034375D01*
X0031250D02*
X0031750Y0033875D01*
X0031850Y0034375D02*
X0031650D01*
X0031750Y0034475D02*
Y0034275D01*
X0032250Y0035000D02*
X0031750Y0034500D01*
X0032750D02*
X0032250Y0035000D01*
Y0034000D02*
X0032750Y0034500D01*
X0031750D02*
X0032250Y0034000D01*
X0032350Y0034500D02*
X0032150D01*
X0032250Y0034600D02*
Y0034400D01*
X0056500Y0025375D02*
X0056000Y0024875D01*
X0057000D02*
X0056500Y0025375D01*
Y0024375D02*
X0057000Y0024875D01*
X0056000D02*
X0056500Y0024375D01*
X0056600Y0024875D02*
X0056400D01*
X0056500Y0024975D02*
Y0024775D01*
X0063750Y0028375D02*
X0063250Y0027875D01*
X0064250D02*
X0063750Y0028375D01*
Y0027375D02*
X0064250Y0027875D01*
X0063250D02*
X0063750Y0027375D01*
X0063850Y0027875D02*
X0063650D01*
X0063750Y0027975D02*
Y0027775D01*
X0007250Y0008375D02*
X0006750Y0007875D01*
X0007750D02*
X0007250Y0008375D01*
Y0007375D02*
X0007750Y0007875D01*
X0006750D02*
X0007250Y0007375D01*
X0007350Y0007875D02*
X0007150D01*
X0007250Y0007975D02*
Y0007775D01*
X0004875Y0010500D02*
X0004375Y0010000D01*
X0005375D02*
X0004875Y0010500D01*
Y0009500D02*
X0005375Y0010000D01*
X0004375D02*
X0004875Y0009500D01*
X0004975Y0010000D02*
X0004775D01*
X0004875Y0010100D02*
Y0009900D01*
X0006375Y0008375D02*
X0005875Y0007875D01*
X0006875D02*
X0006375Y0008375D01*
Y0007375D02*
X0006875Y0007875D01*
X0005875D02*
X0006375Y0007375D01*
X0006475Y0007875D02*
X0006275D01*
X0006375Y0007975D02*
Y0007775D01*
X0005375Y0008375D02*
X0004875Y0007875D01*
X0005875D02*
X0005375Y0008375D01*
Y0007375D02*
X0005875Y0007875D01*
X0004875D02*
X0005375Y0007375D01*
X0005475Y0007875D02*
X0005275D01*
X0005375Y0007975D02*
Y0007775D01*
X0007250Y0012875D02*
X0006750Y0012375D01*
X0007750D02*
X0007250Y0012875D01*
Y0011875D02*
X0007750Y0012375D01*
X0006750D02*
X0007250Y0011875D01*
X0007350Y0012375D02*
X0007150D01*
X0007250Y0012475D02*
Y0012275D01*
X0006375Y0012875D02*
X0005875Y0012375D01*
X0006875D02*
X0006375Y0012875D01*
Y0011875D02*
X0006875Y0012375D01*
X0005875D02*
X0006375Y0011875D01*
X0006475Y0012375D02*
X0006275D01*
X0006375Y0012475D02*
Y0012275D01*
X0005375Y0012875D02*
X0004875Y0012375D01*
X0005875D02*
X0005375Y0012875D01*
Y0011875D02*
X0005875Y0012375D01*
X0004875D02*
X0005375Y0011875D01*
X0005475Y0012375D02*
X0005275D01*
X0005375Y0012475D02*
Y0012275D01*
X0006000Y0016125D02*
X0005500Y0015625D01*
X0006500D02*
X0006000Y0016125D01*
Y0015125D02*
X0006500Y0015625D01*
X0005500D02*
X0006000Y0015125D01*
X0006100Y0015625D02*
X0005900D01*
X0006000Y0015725D02*
Y0015525D01*
X0007500Y0016125D02*
X0007000Y0015625D01*
X0008000D02*
X0007500Y0016125D01*
Y0015125D02*
X0008000Y0015625D01*
X0007000D02*
X0007500Y0015125D01*
X0007600Y0015625D02*
X0007400D01*
X0007500Y0015725D02*
Y0015525D01*
X0004875Y0015000D02*
X0004375Y0014500D01*
X0005375D02*
X0004875Y0015000D01*
Y0014000D02*
X0005375Y0014500D01*
X0004375D02*
X0004875Y0014000D01*
X0004975Y0014500D02*
X0004775D01*
X0004875Y0014600D02*
Y0014400D01*
X0007500Y0021125D02*
X0007000Y0020625D01*
X0008000D02*
X0007500Y0021125D01*
Y0020125D02*
X0008000Y0020625D01*
X0007000D02*
X0007500Y0020125D01*
X0007600Y0020625D02*
X0007400D01*
X0007500Y0020725D02*
Y0020525D01*
X0006000Y0021125D02*
X0005500Y0020625D01*
X0006500D02*
X0006000Y0021125D01*
Y0020125D02*
X0006500Y0020625D01*
X0005500D02*
X0006000Y0020125D01*
X0006100Y0020625D02*
X0005900D01*
X0006000Y0020725D02*
Y0020525D01*
X0007250Y0017875D02*
X0006750Y0017375D01*
X0007750D02*
X0007250Y0017875D01*
Y0016875D02*
X0007750Y0017375D01*
X0006750D02*
X0007250Y0016875D01*
X0007350Y0017375D02*
X0007150D01*
X0007250Y0017475D02*
Y0017275D01*
X0006375Y0017875D02*
X0005875Y0017375D01*
X0006875D02*
X0006375Y0017875D01*
Y0016875D02*
X0006875Y0017375D01*
X0005875D02*
X0006375Y0016875D01*
X0006475Y0017375D02*
X0006275D01*
X0006375Y0017475D02*
Y0017275D01*
X0005375Y0017875D02*
X0004875Y0017375D01*
X0005875D02*
X0005375Y0017875D01*
Y0016875D02*
X0005875Y0017375D01*
X0004875D02*
X0005375Y0016875D01*
X0005475Y0017375D02*
X0005275D01*
X0005375Y0017475D02*
Y0017275D01*
X0004875Y0020000D02*
X0004375Y0019500D01*
X0005375D02*
X0004875Y0020000D01*
Y0019000D02*
X0005375Y0019500D01*
X0004375D02*
X0004875Y0019000D01*
X0004975Y0019500D02*
X0004775D01*
X0004875Y0019600D02*
Y0019400D01*
X0007000Y0028250D02*
Y0028000D01*
X0007250Y0028250D02*
X0007000D01*
X0007250Y0027750D02*
Y0028250D01*
X0007500Y0027750D02*
X0007250D01*
X0007500Y0028000D02*
Y0027750D01*
X0007000Y0028000D02*
X0007500D01*
X0005250Y0029000D02*
Y0028750D01*
X0005500Y0029000D02*
X0005250D01*
X0005500Y0028500D02*
Y0029000D01*
X0005750Y0028500D02*
X0005500D01*
X0005750Y0028750D02*
Y0028500D01*
X0005250Y0028750D02*
X0005750D01*
X0007000Y0029750D02*
Y0029500D01*
X0007250Y0029750D02*
X0007000D01*
X0007250Y0029250D02*
Y0029750D01*
X0007500Y0029250D02*
X0007250D01*
X0007500Y0029500D02*
Y0029250D01*
X0007000Y0029500D02*
X0007500D01*
X0005250Y0030500D02*
Y0030250D01*
X0005500Y0030500D02*
X0005250D01*
X0005500Y0030000D02*
Y0030500D01*
X0005750Y0030000D02*
X0005500D01*
X0005750Y0030250D02*
Y0030000D01*
X0005250Y0030250D02*
X0005750D01*
X0007000Y0031250D02*
Y0031000D01*
X0007250Y0031250D02*
X0007000D01*
X0007250Y0030750D02*
Y0031250D01*
X0007500Y0030750D02*
X0007250D01*
X0007500Y0031000D02*
Y0030750D01*
X0007000Y0031000D02*
X0007500D01*
X0001250Y0008250D02*
Y0007750D01*
X0001750Y0008250D02*
X0001250D01*
X0001750Y0007750D02*
Y0008250D01*
X0001250Y0007750D02*
X0001750D01*
Y0008000D02*
X0001250D01*
X0001500Y0008250D02*
Y0007750D01*
X0001250Y0009250D02*
Y0008750D01*
X0001750Y0009250D02*
X0001250D01*
X0001750Y0008750D02*
Y0009250D01*
X0001250Y0008750D02*
X0001750D01*
Y0009000D02*
X0001250D01*
X0001500Y0009250D02*
Y0008750D01*
X0001250Y0010250D02*
Y0009750D01*
X0001750Y0010250D02*
X0001250D01*
X0001750Y0009750D02*
Y0010250D01*
X0001250Y0009750D02*
X0001750D01*
Y0010000D02*
X0001250D01*
X0001500Y0010250D02*
Y0009750D01*
X0001250Y0005250D02*
Y0004750D01*
X0001750Y0005250D02*
X0001250D01*
X0001750Y0004750D02*
Y0005250D01*
X0001250Y0004750D02*
X0001750D01*
Y0005000D02*
X0001250D01*
X0001500Y0005250D02*
Y0004750D01*
X0001250Y0006250D02*
Y0005750D01*
X0001750Y0006250D02*
X0001250D01*
X0001750Y0005750D02*
Y0006250D01*
X0001250Y0005750D02*
X0001750D01*
Y0006000D02*
X0001250D01*
X0001500Y0006250D02*
Y0005750D01*
X0001250Y0017250D02*
Y0016750D01*
X0001750Y0017250D02*
X0001250D01*
X0001750Y0016750D02*
Y0017250D01*
X0001250Y0016750D02*
X0001750D01*
Y0017000D02*
X0001250D01*
X0001500Y0017250D02*
Y0016750D01*
X0001250Y0018250D02*
Y0017750D01*
X0001750Y0018250D02*
X0001250D01*
X0001750Y0017750D02*
Y0018250D01*
X0001250Y0017750D02*
X0001750D01*
Y0018000D02*
X0001250D01*
X0001500Y0018250D02*
Y0017750D01*
X0001250Y0019250D02*
Y0018750D01*
X0001750Y0019250D02*
X0001250D01*
X0001750Y0018750D02*
Y0019250D01*
X0001250Y0018750D02*
X0001750D01*
Y0019000D02*
X0001250D01*
X0001500Y0019250D02*
Y0018750D01*
X0001250Y0020250D02*
Y0019750D01*
X0001750Y0020250D02*
X0001250D01*
X0001750Y0019750D02*
Y0020250D01*
X0001250Y0019750D02*
X0001750D01*
Y0020000D02*
X0001250D01*
X0001500Y0020250D02*
Y0019750D01*
X0001250Y0012250D02*
Y0011750D01*
X0001750Y0012250D02*
X0001250D01*
X0001750Y0011750D02*
Y0012250D01*
X0001250Y0011750D02*
X0001750D01*
Y0012000D02*
X0001250D01*
X0001500Y0012250D02*
Y0011750D01*
X0001250Y0013250D02*
Y0012750D01*
X0001750Y0013250D02*
X0001250D01*
X0001750Y0012750D02*
Y0013250D01*
X0001250Y0012750D02*
X0001750D01*
Y0013000D02*
X0001250D01*
X0001500Y0013250D02*
Y0012750D01*
X0001250Y0014250D02*
Y0013750D01*
X0001750Y0014250D02*
X0001250D01*
X0001750Y0013750D02*
Y0014250D01*
X0001250Y0013750D02*
X0001750D01*
Y0014000D02*
X0001250D01*
X0001500Y0014250D02*
Y0013750D01*
X0001250Y0015250D02*
Y0014750D01*
X0001750Y0015250D02*
X0001250D01*
X0001750Y0014750D02*
Y0015250D01*
X0001250Y0014750D02*
X0001750D01*
Y0015000D02*
X0001250D01*
X0001500Y0015250D02*
Y0014750D01*
X0051750Y0001750D02*
Y0001250D01*
X0052250Y0001750D02*
X0051750D01*
X0052250Y0001250D02*
Y0001750D01*
X0051750Y0001250D02*
X0052250D01*
Y0001500D02*
X0051750D01*
X0052000Y0001750D02*
Y0001250D01*
X0050750Y0001750D02*
Y0001250D01*
X0051250Y0001750D02*
X0050750D01*
X0051250Y0001250D02*
Y0001750D01*
X0050750Y0001250D02*
X0051250D01*
Y0001500D02*
X0050750D01*
X0051000Y0001750D02*
Y0001250D01*
X0037000Y0018900D02*
X0036750Y0018650D01*
X0037250D02*
X0037000Y0018900D01*
X0036750Y0018650D02*
X0037250D01*
X0037000Y0017900D02*
X0036750Y0017650D01*
X0037250D02*
X0037000Y0017900D01*
X0036750Y0017650D02*
X0037250D01*
X0037000Y0016900D02*
X0036750Y0016650D01*
X0037250D02*
X0037000Y0016900D01*
X0036750Y0016650D02*
X0037250D01*
X0039500Y0004400D02*
X0039250Y0004150D01*
X0039750D02*
X0039500Y0004400D01*
X0039250Y0004150D02*
X0039750D01*
X0038500Y0004400D02*
X0038250Y0004150D01*
X0038750D02*
X0038500Y0004400D01*
X0038250Y0004150D02*
X0038750D01*
X0037500Y0004400D02*
X0037250Y0004150D01*
X0037750D02*
X0037500Y0004400D01*
X0037250Y0004150D02*
X0037750D01*
X0046500Y0004400D02*
X0046250Y0004150D01*
X0046750D02*
X0046500Y0004400D01*
X0046250Y0004150D02*
X0046750D01*
X0045500Y0004400D02*
X0045250Y0004150D01*
X0045750D02*
X0045500Y0004400D01*
X0045250Y0004150D02*
X0045750D01*
X0044500Y0004400D02*
X0044250Y0004150D01*
X0044750D02*
X0044500Y0004400D01*
X0044250Y0004150D02*
X0044750D01*
X0037000Y0034400D02*
X0036750Y0034150D01*
X0037250D02*
X0037000Y0034400D01*
X0036750Y0034150D02*
X0037250D01*
X0037000Y0033400D02*
X0036750Y0033150D01*
X0037250D02*
X0037000Y0033400D01*
X0036750Y0033150D02*
X0037250D01*
X0037000Y0032400D02*
X0036750Y0032150D01*
X0037250D02*
X0037000Y0032400D01*
X0036750Y0032150D02*
X0037250D01*
X0063250Y0020150D02*
X0063000Y0019900D01*
X0063500D02*
X0063250Y0020150D01*
X0063000Y0019900D02*
X0063500D01*
X0063250Y0018150D02*
X0063000Y0017900D01*
X0063500D02*
X0063250Y0018150D01*
X0063000Y0017900D02*
X0063500D01*
X0063250Y0015150D02*
X0063000Y0014900D01*
X0063500D02*
X0063250Y0015150D01*
X0063000Y0014900D02*
X0063500D01*
X0055250Y0015150D02*
X0055000Y0014900D01*
X0055500D02*
X0055250Y0015150D01*
X0055000Y0014900D02*
X0055500D01*
X0055250Y0019150D02*
X0055000Y0018900D01*
X0055500D02*
X0055250Y0019150D01*
X0055000Y0018900D02*
X0055500D01*
X0055250Y0023150D02*
X0055000Y0022900D01*
X0055500D02*
X0055250Y0023150D01*
X0055000Y0022900D02*
X0055500D01*
X0064500Y0002000D02*
X0063500D01*
X0064000Y0002500D02*
Y0001500D01*
X0064500Y0039000D02*
X0063500D01*
X0064000Y0039500D02*
Y0038500D01*
X0002500Y0039000D02*
X0001500D01*
X0002000Y0039500D02*
Y0038500D01*
X0002500Y0002000D02*
X0001500D01*
X0002000Y0002500D02*
Y0001500D01*
X0048250Y0021000D02*
X0047750D01*
X0048000Y0021250D02*
Y0020750D01*
X0048250Y0022000D02*
X0047750D01*
X0048000Y0022250D02*
Y0021750D01*
X0048250Y0023000D02*
X0047750D01*
X0048000Y0023250D02*
Y0022750D01*
X0046250Y0011000D02*
X0045750D01*
X0046000Y0011250D02*
Y0010750D01*
X0046250Y0012000D02*
X0045750D01*
X0046000Y0012250D02*
Y0011750D01*
X0046250Y0013000D02*
X0045750D01*
X0046000Y0013250D02*
Y0012750D01*
X0044250Y0021000D02*
X0043750D01*
X0044000Y0021250D02*
Y0020750D01*
X0044250Y0022000D02*
X0043750D01*
X0044000Y0022250D02*
Y0021750D01*
X0044250Y0023000D02*
X0043750D01*
X0044000Y0023250D02*
Y0022750D01*
X0048250Y0011000D02*
X0047750D01*
X0048000Y0011250D02*
Y0010750D01*
X0048250Y0012000D02*
X0047750D01*
X0048000Y0012250D02*
Y0011750D01*
X0048250Y0013000D02*
X0047750D01*
X0048000Y0013250D02*
Y0012750D01*
X0004750Y0039750D02*
X0004250D01*
X0004500Y0040000D02*
Y0039500D01*
X0005750Y0039750D02*
X0005250D01*
X0005500Y0040000D02*
Y0039500D01*
X0004750Y0038750D02*
X0004250D01*
X0004500Y0039000D02*
Y0038500D01*
X0005750Y0038750D02*
X0005250D01*
X0005500Y0039000D02*
Y0038500D01*
X0044250Y0011000D02*
X0043750D01*
X0044000Y0011250D02*
Y0010750D01*
X0044250Y0012000D02*
X0043750D01*
X0044000Y0012250D02*
Y0011750D01*
X0044250Y0013000D02*
X0043750D01*
X0044000Y0013250D02*
Y0012750D01*
X0065250Y0028500D02*
X0064750D01*
X0065000Y0028750D02*
Y0028250D01*
X0065250Y0029500D02*
X0064750D01*
X0065000Y0029750D02*
Y0029250D01*
X0065250Y0030500D02*
X0064750D01*
X0065000Y0030750D02*
Y0030250D01*
X0032000Y0010750D02*
Y0010250D01*
X0032500Y0010750D02*
X0032000D01*
X0032500Y0010250D02*
Y0010750D01*
X0032000Y0010250D02*
X0032500D01*
Y0010500D02*
X0032000D01*
X0032250Y0010750D02*
Y0010250D01*
X0032000Y0009750D02*
Y0009250D01*
X0032500Y0009750D02*
X0032000D01*
X0032500Y0009250D02*
Y0009750D01*
X0032000Y0009250D02*
X0032500D01*
Y0009500D02*
X0032000D01*
X0032250Y0009750D02*
Y0009250D01*
X0032000Y0008750D02*
Y0008250D01*
X0032500Y0008750D02*
X0032000D01*
X0032500Y0008250D02*
Y0008750D01*
X0032000Y0008250D02*
X0032500D01*
Y0008500D02*
X0032000D01*
X0032250Y0008750D02*
Y0008250D01*
X0032000Y0007750D02*
Y0007250D01*
X0032500Y0007750D02*
X0032000D01*
X0032500Y0007250D02*
Y0007750D01*
X0032000Y0007250D02*
X0032500D01*
Y0007500D02*
X0032000D01*
X0032250Y0007750D02*
Y0007250D01*
X0032000Y0006750D02*
Y0006250D01*
X0032500Y0006750D02*
X0032000D01*
X0032500Y0006250D02*
Y0006750D01*
X0032000Y0006250D02*
X0032500D01*
Y0006500D02*
X0032000D01*
X0032250Y0006750D02*
Y0006250D01*
X0032000Y0005750D02*
Y0005250D01*
X0032500Y0005750D02*
X0032000D01*
X0032500Y0005250D02*
Y0005750D01*
X0032000Y0005250D02*
X0032500D01*
Y0005500D02*
X0032000D01*
X0032250Y0005750D02*
Y0005250D01*
X0039125Y0023250D02*
X0038125Y0022250D01*
X0039125D02*
X0038125Y0023250D01*
X0039125Y0013250D02*
X0038125Y0012250D01*
X0039125D02*
X0038125Y0013250D01*
X0039125Y0038750D02*
X0038125Y0037750D01*
X0039125D02*
X0038125Y0038750D01*
X0039125Y0028750D02*
X0038125Y0027750D01*
X0039125D02*
X0038125Y0028750D01*
X0003375Y0025000D02*
X0002375Y0024000D01*
X0003375D02*
X0002375Y0025000D01*
X0003375Y0035000D02*
X0002375Y0034000D01*
X0003375D02*
X0002375Y0035000D01*
X0051750Y0039750D02*
Y0039250D01*
X0052250Y0039750D02*
X0051750D01*
X0052250Y0039250D02*
Y0039750D01*
X0051750Y0039250D02*
X0052250D01*
Y0039500D02*
X0051750D01*
X0052000Y0039750D02*
Y0039250D01*
X0052750Y0039750D02*
Y0039250D01*
X0053250Y0039750D02*
X0052750D01*
X0053250Y0039250D02*
Y0039750D01*
X0052750Y0039250D02*
X0053250D01*
Y0039500D02*
X0052750D01*
X0053000Y0039750D02*
Y0039250D01*
X0052250Y0018100D02*
Y0017900D01*
X0052400Y0018250D02*
X0052250Y0018100D01*
X0052600Y0018250D02*
X0052400D01*
X0052750Y0018100D02*
X0052600Y0018250D01*
X0052750Y0017900D02*
Y0018100D01*
X0052600Y0017750D02*
X0052750Y0017900D01*
X0052400Y0017750D02*
X0052600D01*
X0052250Y0017900D02*
X0052400Y0017750D01*
X0052250Y0016100D02*
Y0015900D01*
X0052400Y0016250D02*
X0052250Y0016100D01*
X0052600Y0016250D02*
X0052400D01*
X0052750Y0016100D02*
X0052600Y0016250D01*
X0052750Y0015900D02*
Y0016100D01*
X0052600Y0015750D02*
X0052750Y0015900D01*
X0052400Y0015750D02*
X0052600D01*
X0052250Y0015900D02*
X0052400Y0015750D01*
X0051250Y0017100D02*
Y0016900D01*
X0051400Y0017250D02*
X0051250Y0017100D01*
X0051600Y0017250D02*
X0051400D01*
X0051750Y0017100D02*
X0051600Y0017250D01*
X0051750Y0016900D02*
Y0017100D01*
X0051600Y0016750D02*
X0051750Y0016900D01*
X0051400Y0016750D02*
X0051600D01*
X0051250Y0016900D02*
X0051400Y0016750D01*
X0051250Y0015100D02*
Y0014900D01*
X0051400Y0015250D02*
X0051250Y0015100D01*
X0051600Y0015250D02*
X0051400D01*
X0051750Y0015100D02*
X0051600Y0015250D01*
X0051750Y0014900D02*
Y0015100D01*
X0051600Y0014750D02*
X0051750Y0014900D01*
X0051400Y0014750D02*
X0051600D01*
X0051250Y0014900D02*
X0051400Y0014750D01*
X0050250Y0018100D02*
Y0017900D01*
X0050400Y0018250D02*
X0050250Y0018100D01*
X0050600Y0018250D02*
X0050400D01*
X0050750Y0018100D02*
X0050600Y0018250D01*
X0050750Y0017900D02*
Y0018100D01*
X0050600Y0017750D02*
X0050750Y0017900D01*
X0050400Y0017750D02*
X0050600D01*
X0050250Y0017900D02*
X0050400Y0017750D01*
X0050250Y0016100D02*
Y0015900D01*
X0050400Y0016250D02*
X0050250Y0016100D01*
X0050600Y0016250D02*
X0050400D01*
X0050750Y0016100D02*
X0050600Y0016250D01*
X0050750Y0015900D02*
Y0016100D01*
X0050600Y0015750D02*
X0050750Y0015900D01*
X0050400Y0015750D02*
X0050600D01*
X0050250Y0015900D02*
X0050400Y0015750D01*
X0057000Y0008350D02*
Y0008150D01*
X0057150Y0008500D02*
X0057000Y0008350D01*
X0057350Y0008500D02*
X0057150D01*
X0057500Y0008350D02*
X0057350Y0008500D01*
X0057500Y0008150D02*
Y0008350D01*
X0057350Y0008000D02*
X0057500Y0008150D01*
X0057150Y0008000D02*
X0057350D01*
X0057000Y0008150D02*
X0057150Y0008000D01*
X0057000Y0006350D02*
Y0006150D01*
X0057150Y0006500D02*
X0057000Y0006350D01*
X0057350Y0006500D02*
X0057150D01*
X0057500Y0006350D02*
X0057350Y0006500D01*
X0057500Y0006150D02*
Y0006350D01*
X0057350Y0006000D02*
X0057500Y0006150D01*
X0057150Y0006000D02*
X0057350D01*
X0057000Y0006150D02*
X0057150Y0006000D01*
X0056000Y0007350D02*
Y0007150D01*
X0056150Y0007500D02*
X0056000Y0007350D01*
X0056350Y0007500D02*
X0056150D01*
X0056500Y0007350D02*
X0056350Y0007500D01*
X0056500Y0007150D02*
Y0007350D01*
X0056350Y0007000D02*
X0056500Y0007150D01*
X0056150Y0007000D02*
X0056350D01*
X0056000Y0007150D02*
X0056150Y0007000D01*
X0056000Y0005350D02*
Y0005150D01*
X0056150Y0005500D02*
X0056000Y0005350D01*
X0056350Y0005500D02*
X0056150D01*
X0056500Y0005350D02*
X0056350Y0005500D01*
X0056500Y0005150D02*
Y0005350D01*
X0056350Y0005000D02*
X0056500Y0005150D01*
X0056150Y0005000D02*
X0056350D01*
X0056000Y0005150D02*
X0056150Y0005000D01*
X0055000Y0008350D02*
Y0008150D01*
X0055150Y0008500D02*
X0055000Y0008350D01*
X0055350Y0008500D02*
X0055150D01*
X0055500Y0008350D02*
X0055350Y0008500D01*
X0055500Y0008150D02*
Y0008350D01*
X0055350Y0008000D02*
X0055500Y0008150D01*
X0055150Y0008000D02*
X0055350D01*
X0055000Y0008150D02*
X0055150Y0008000D01*
X0055000Y0006350D02*
Y0006150D01*
X0055150Y0006500D02*
X0055000Y0006350D01*
X0055350Y0006500D02*
X0055150D01*
X0055500Y0006350D02*
X0055350Y0006500D01*
X0055500Y0006150D02*
Y0006350D01*
X0055350Y0006000D02*
X0055500Y0006150D01*
X0055150Y0006000D02*
X0055350D01*
X0055000Y0006150D02*
X0055150Y0006000D01*
X0057000Y0034850D02*
Y0034650D01*
X0057150Y0035000D02*
X0057000Y0034850D01*
X0057350Y0035000D02*
X0057150D01*
X0057500Y0034850D02*
X0057350Y0035000D01*
X0057500Y0034650D02*
Y0034850D01*
X0057350Y0034500D02*
X0057500Y0034650D01*
X0057150Y0034500D02*
X0057350D01*
X0057000Y0034650D02*
X0057150Y0034500D01*
X0057000Y0032850D02*
Y0032650D01*
X0057150Y0033000D02*
X0057000Y0032850D01*
X0057350Y0033000D02*
X0057150D01*
X0057500Y0032850D02*
X0057350Y0033000D01*
X0057500Y0032650D02*
Y0032850D01*
X0057350Y0032500D02*
X0057500Y0032650D01*
X0057150Y0032500D02*
X0057350D01*
X0057000Y0032650D02*
X0057150Y0032500D01*
X0056000Y0033850D02*
Y0033650D01*
X0056150Y0034000D02*
X0056000Y0033850D01*
X0056350Y0034000D02*
X0056150D01*
X0056500Y0033850D02*
X0056350Y0034000D01*
X0056500Y0033650D02*
Y0033850D01*
X0056350Y0033500D02*
X0056500Y0033650D01*
X0056150Y0033500D02*
X0056350D01*
X0056000Y0033650D02*
X0056150Y0033500D01*
X0056000Y0031850D02*
Y0031650D01*
X0056150Y0032000D02*
X0056000Y0031850D01*
X0056350Y0032000D02*
X0056150D01*
X0056500Y0031850D02*
X0056350Y0032000D01*
X0056500Y0031650D02*
Y0031850D01*
X0056350Y0031500D02*
X0056500Y0031650D01*
X0056150Y0031500D02*
X0056350D01*
X0056000Y0031650D02*
X0056150Y0031500D01*
X0055000Y0034850D02*
Y0034650D01*
X0055150Y0035000D02*
X0055000Y0034850D01*
X0055350Y0035000D02*
X0055150D01*
X0055500Y0034850D02*
X0055350Y0035000D01*
X0055500Y0034650D02*
Y0034850D01*
X0055350Y0034500D02*
X0055500Y0034650D01*
X0055150Y0034500D02*
X0055350D01*
X0055000Y0034650D02*
X0055150Y0034500D01*
X0055000Y0032850D02*
Y0032650D01*
X0055150Y0033000D02*
X0055000Y0032850D01*
X0055350Y0033000D02*
X0055150D01*
X0055500Y0032850D02*
X0055350Y0033000D01*
X0055500Y0032650D02*
Y0032850D01*
X0055350Y0032500D02*
X0055500Y0032650D01*
X0055150Y0032500D02*
X0055350D01*
X0055000Y0032650D02*
X0055150Y0032500D01*
X0059725Y0006250D02*
X0059225D01*
X0059475Y0006500D02*
Y0006000D01*
X0060525Y0008250D02*
X0060025D01*
X0060275Y0008500D02*
Y0008000D01*
X0059725Y0032750D02*
X0059225D01*
X0059475Y0033000D02*
Y0032500D01*
X0060525Y0034750D02*
X0060025D01*
X0060275Y0035000D02*
Y0034500D01*
X0046250Y0001750D02*
Y0001250D01*
X0046750Y0001750D02*
X0046250D01*
X0046750Y0001250D02*
Y0001750D01*
X0046250Y0001250D02*
X0046750D01*
Y0001500D02*
X0046250D01*
X0046500Y0001750D02*
Y0001250D01*
X0045250Y0001750D02*
Y0001250D01*
X0045750Y0001750D02*
X0045250D01*
X0045750Y0001250D02*
Y0001750D01*
X0045250Y0001250D02*
X0045750D01*
Y0001500D02*
X0045250D01*
X0045500Y0001750D02*
Y0001250D01*
X0039250Y0001750D02*
Y0001250D01*
X0039750Y0001750D02*
X0039250D01*
X0039750Y0001250D02*
Y0001750D01*
X0039250Y0001250D02*
X0039750D01*
Y0001500D02*
X0039250D01*
X0039500Y0001750D02*
Y0001250D01*
X0038250Y0001750D02*
Y0001250D01*
X0038750Y0001750D02*
X0038250D01*
X0038750Y0001250D02*
Y0001750D01*
X0038250Y0001250D02*
X0038750D01*
Y0001500D02*
X0038250D01*
X0038500Y0001750D02*
Y0001250D01*
X0042750Y0039750D02*
Y0039250D01*
X0043250Y0039750D02*
X0042750D01*
X0043250Y0039250D02*
Y0039750D01*
X0042750Y0039250D02*
X0043250D01*
Y0039500D02*
X0042750D01*
X0043000Y0039750D02*
Y0039250D01*
X0043750Y0039750D02*
Y0039250D01*
X0044250Y0039750D02*
X0043750D01*
X0044250Y0039250D02*
Y0039750D01*
X0043750Y0039250D02*
X0044250D01*
Y0039500D02*
X0043750D01*
X0044000Y0039750D02*
Y0039250D01*
X0032250Y0039750D02*
Y0039250D01*
X0032750Y0039750D02*
X0032250D01*
X0032750Y0039250D02*
Y0039750D01*
X0032250Y0039250D02*
X0032750D01*
Y0039500D02*
X0032250D01*
X0032500Y0039750D02*
Y0039250D01*
X0033250Y0039750D02*
Y0039250D01*
X0033750Y0039750D02*
X0033250D01*
X0033750Y0039250D02*
Y0039750D01*
X0033250Y0039250D02*
X0033750D01*
Y0039500D02*
X0033250D01*
X0033500Y0039750D02*
Y0039250D01*
X0046750Y0039750D02*
Y0039250D01*
X0047250Y0039750D02*
X0046750D01*
X0047250Y0039250D02*
Y0039750D01*
X0046750Y0039250D02*
X0047250D01*
Y0039500D02*
X0046750D01*
X0047000Y0039750D02*
Y0039250D01*
X0047750Y0039750D02*
Y0039250D01*
X0048250Y0039750D02*
X0047750D01*
X0048250Y0039250D02*
Y0039750D01*
X0047750Y0039250D02*
X0048250D01*
Y0039500D02*
X0047750D01*
X0048000Y0039750D02*
Y0039250D01*
X0048750Y0039750D02*
Y0039250D01*
X0049250Y0039750D02*
X0048750D01*
X0049250Y0039250D02*
Y0039750D01*
X0048750Y0039250D02*
X0049250D01*
Y0039500D02*
X0048750D01*
X0049000Y0039750D02*
Y0039250D01*
X0049750Y0039750D02*
Y0039250D01*
X0050250Y0039750D02*
X0049750D01*
X0050250Y0039250D02*
Y0039750D01*
X0049750Y0039250D02*
X0050250D01*
Y0039500D02*
X0049750D01*
X0050000Y0039750D02*
Y0039250D01*
X0045250Y0026750D02*
X0044750Y0026250D01*
X0045250D02*
X0044750Y0026750D01*
X0047250D02*
X0046750Y0026250D01*
X0047250D02*
X0046750Y0026750D01*
X0057750Y0012125D02*
X0057500Y0011875D01*
X0058000D02*
X0057750Y0012125D01*
Y0011625D02*
X0058000Y0011875D01*
X0057500D02*
X0057750Y0011625D01*
X0063750Y0012125D02*
X0063500Y0011875D01*
X0064000D02*
X0063750Y0012125D01*
Y0011625D02*
X0064000Y0011875D01*
X0063500D02*
X0063750Y0011625D01*
X0050750Y0012250D02*
X0050250Y0011750D01*
X0050750D02*
X0050250Y0012250D01*
X0052750D02*
X0052250Y0011750D01*
X0052750D02*
X0052250Y0012250D01*
X0050750Y0022250D02*
X0050250Y0021750D01*
X0050750D02*
X0050250Y0022250D01*
X0052750D02*
X0052250Y0021750D01*
X0052750D02*
X0052250Y0022250D01*
X0057750Y0026375D02*
X0057500Y0026125D01*
X0058000D02*
X0057750Y0026375D01*
Y0025875D02*
X0058000Y0026125D01*
X0057500D02*
X0057750Y0025875D01*
X0063750Y0026375D02*
X0063500Y0026125D01*
X0064000D02*
X0063750Y0026375D01*
Y0025875D02*
X0064000Y0026125D01*
X0063500D02*
X0063750Y0025875D01*
X0050750Y0007750D02*
X0050250Y0007250D01*
X0050750D02*
X0050250Y0007750D01*
X0052750D02*
X0052250Y0007250D01*
X0052750D02*
X0052250Y0007750D01*
X0056500Y0003500D02*
X0056000Y0003000D01*
X0056500D02*
X0056000Y0003500D01*
X0056500Y0001500D02*
X0056000Y0001000D01*
X0056500D02*
X0056000Y0001500D01*
X0050750Y0026750D02*
X0050250Y0026250D01*
X0050750D02*
X0050250Y0026750D01*
X0052750D02*
X0052250Y0026250D01*
X0052750D02*
X0052250Y0026750D01*
X0056500Y0038000D02*
X0056000Y0037500D01*
X0056500D02*
X0056000Y0038000D01*
X0056500Y0040000D02*
X0056000Y0039500D01*
X0056500D02*
X0056000Y0040000D01*
X0045750Y0015750D02*
Y0015250D01*
X0046250Y0015750D02*
X0045750D01*
X0046250Y0015250D02*
Y0015750D01*
X0045750Y0015250D02*
X0046250D01*
Y0015750D02*
X0045750Y0015250D01*
X0046250D02*
X0045750Y0015750D01*
Y0018750D02*
Y0018250D01*
X0046250Y0018750D02*
X0045750D01*
X0046250Y0018250D02*
Y0018750D01*
X0045750Y0018250D02*
X0046250D01*
Y0018750D02*
X0045750Y0018250D01*
X0046250D02*
X0045750Y0018750D01*
X0045250Y0031500D02*
X0044750D01*
X0045000Y0031750D02*
Y0031250D01*
X0048250Y0031500D02*
X0047750D01*
X0048000Y0031750D02*
Y0031250D01*
X0049250Y0031500D02*
X0048750D01*
X0049000Y0031750D02*
Y0031250D01*
X0047250Y0031500D02*
X0046750D01*
X0047000Y0031750D02*
Y0031250D01*
X0046250Y0031500D02*
X0045750D01*
X0046000Y0031750D02*
Y0031250D01*
X0050250Y0031500D02*
X0049750D01*
X0050000Y0031750D02*
Y0031250D01*
X0051250Y0031500D02*
X0050750D01*
X0051000Y0031750D02*
Y0031250D01*
X0052250Y0031500D02*
X0051750D01*
X0052000Y0031750D02*
Y0031250D01*
X0052250Y0036500D02*
X0051750D01*
X0052000Y0036750D02*
Y0036250D01*
X0051250Y0036500D02*
X0050750D01*
X0051000Y0036750D02*
Y0036250D01*
X0050250Y0036500D02*
X0049750D01*
X0050000Y0036750D02*
Y0036250D01*
X0049250Y0036500D02*
X0048750D01*
X0049000Y0036750D02*
Y0036250D01*
X0048250Y0036500D02*
X0047750D01*
X0048000Y0036750D02*
Y0036250D01*
X0047250Y0036500D02*
X0046750D01*
X0047000Y0036750D02*
Y0036250D01*
X0046250Y0036500D02*
X0045750D01*
X0046000Y0036750D02*
Y0036250D01*
X0045250Y0036500D02*
X0044750D01*
X0045000Y0036750D02*
Y0036250D01*
X0029750Y0024100D02*
X0029250D01*
X0029500Y0024350D02*
Y0023850D01*
X0029750Y0025100D02*
X0029250D01*
X0029500Y0025350D02*
Y0024850D01*
X0029750Y0026100D02*
X0029250D01*
X0029500Y0026350D02*
Y0025850D01*
X0029750Y0027100D02*
X0029250D01*
X0029500Y0027350D02*
Y0026850D01*
X0029750Y0028100D02*
X0029250D01*
X0029500Y0028350D02*
Y0027850D01*
X0029750Y0029100D02*
X0029250D01*
X0029500Y0029350D02*
Y0028850D01*
X0029750Y0030100D02*
X0029250D01*
X0029500Y0030350D02*
Y0029850D01*
X0029750Y0031100D02*
X0029250D01*
X0029500Y0031350D02*
Y0030850D01*
X0029750Y0032100D02*
X0029250D01*
X0029500Y0032350D02*
Y0031850D01*
X0029750Y0033100D02*
X0029250D01*
X0029500Y0033350D02*
Y0032850D01*
X0029750Y0015500D02*
X0029250D01*
X0029500Y0015750D02*
Y0015250D01*
X0029750Y0016500D02*
X0029250D01*
X0029500Y0016750D02*
Y0016250D01*
X0029750Y0017500D02*
X0029250D01*
X0029500Y0017750D02*
Y0017250D01*
X0029750Y0018500D02*
X0029250D01*
X0029500Y0018750D02*
Y0018250D01*
X0029750Y0019500D02*
X0029250D01*
X0029500Y0019750D02*
Y0019250D01*
X0029750Y0020500D02*
X0029250D01*
X0029500Y0020750D02*
Y0020250D01*
X0029750Y0021500D02*
X0029250D01*
X0029500Y0021750D02*
Y0021250D01*
X0029750Y0022500D02*
X0029250D01*
X0029500Y0022750D02*
Y0022250D01*
X0029750Y0006500D02*
X0029250D01*
X0029500Y0006750D02*
Y0006250D01*
X0029750Y0007500D02*
X0029250D01*
X0029500Y0007750D02*
Y0007250D01*
X0029750Y0008500D02*
X0029250D01*
X0029500Y0008750D02*
Y0008250D01*
X0029750Y0009500D02*
X0029250D01*
X0029500Y0009750D02*
Y0009250D01*
X0029750Y0010500D02*
X0029250D01*
X0029500Y0010750D02*
Y0010250D01*
X0029750Y0011500D02*
X0029250D01*
X0029500Y0011750D02*
Y0011250D01*
X0029750Y0012500D02*
X0029250D01*
X0029500Y0012750D02*
Y0012250D01*
X0029750Y0013500D02*
X0029250D01*
X0029500Y0013750D02*
Y0013250D01*
X0029750Y0003500D02*
X0029250D01*
X0029500Y0003750D02*
Y0003250D01*
X0029750Y0002500D02*
X0029250D01*
X0029500Y0002750D02*
Y0002250D01*
X0028750Y0003500D02*
X0028250D01*
X0028500Y0003750D02*
Y0003250D01*
X0028750Y0002500D02*
X0028250D01*
X0028500Y0002750D02*
Y0002250D01*
X0027750Y0003500D02*
X0027250D01*
X0027500Y0003750D02*
Y0003250D01*
X0027750Y0002500D02*
X0027250D01*
X0027500Y0002750D02*
Y0002250D01*
X0026750Y0003500D02*
X0026250D01*
X0026500Y0003750D02*
Y0003250D01*
X0026750Y0002500D02*
X0026250D01*
X0026500Y0002750D02*
Y0002250D01*
X0025750Y0003500D02*
X0025250D01*
X0025500Y0003750D02*
Y0003250D01*
X0025750Y0002500D02*
X0025250D01*
X0025500Y0002750D02*
Y0002250D01*
X0024750Y0003500D02*
X0024250D01*
X0024500Y0003750D02*
Y0003250D01*
X0024750Y0002500D02*
X0024250D01*
X0024500Y0002750D02*
Y0002250D01*
X0023750Y0003500D02*
X0023250D01*
X0023500Y0003750D02*
Y0003250D01*
X0023750Y0002500D02*
X0023250D01*
X0023500Y0002750D02*
Y0002250D01*
X0022750Y0003500D02*
X0022250D01*
X0022500Y0003750D02*
Y0003250D01*
X0022750Y0002500D02*
X0022250D01*
X0022500Y0002750D02*
Y0002250D01*
X0021750Y0003500D02*
X0021250D01*
X0021500Y0003750D02*
Y0003250D01*
X0021750Y0002500D02*
X0021250D01*
X0021500Y0002750D02*
Y0002250D01*
X0020750Y0003500D02*
X0020250D01*
X0020500Y0003750D02*
Y0003250D01*
X0020750Y0002500D02*
X0020250D01*
X0020500Y0002750D02*
Y0002250D01*
X0019750Y0003500D02*
X0019250D01*
X0019500Y0003750D02*
Y0003250D01*
X0019750Y0002500D02*
X0019250D01*
X0019500Y0002750D02*
Y0002250D01*
X0018750Y0003500D02*
X0018250D01*
X0018500Y0003750D02*
Y0003250D01*
X0018750Y0002500D02*
X0018250D01*
X0018500Y0002750D02*
Y0002250D01*
X0017750Y0003500D02*
X0017250D01*
X0017500Y0003750D02*
Y0003250D01*
X0017750Y0002500D02*
X0017250D01*
X0017500Y0002750D02*
Y0002250D01*
X0016750Y0003500D02*
X0016250D01*
X0016500Y0003750D02*
Y0003250D01*
X0016750Y0002500D02*
X0016250D01*
X0016500Y0002750D02*
Y0002250D01*
X0015750Y0003500D02*
X0015250D01*
X0015500Y0003750D02*
Y0003250D01*
X0015750Y0002500D02*
X0015250D01*
X0015500Y0002750D02*
Y0002250D01*
X0014750Y0003500D02*
X0014250D01*
X0014500Y0003750D02*
Y0003250D01*
X0014750Y0002500D02*
X0014250D01*
X0014500Y0002750D02*
Y0002250D01*
X0013750Y0003500D02*
X0013250D01*
X0013500Y0003750D02*
Y0003250D01*
X0013750Y0002500D02*
X0013250D01*
X0013500Y0002750D02*
Y0002250D01*
X0012750Y0003500D02*
X0012250D01*
X0012500Y0003750D02*
Y0003250D01*
X0012750Y0002500D02*
X0012250D01*
X0012500Y0002750D02*
Y0002250D01*
X0010750Y0029500D02*
X0010250D01*
X0010500Y0029750D02*
Y0029250D01*
X0010750Y0028500D02*
X0010250D01*
X0010500Y0028750D02*
Y0028250D01*
X0010750Y0027500D02*
X0010250D01*
X0010500Y0027750D02*
Y0027250D01*
X0010750Y0026500D02*
X0010250D01*
X0010500Y0026750D02*
Y0026250D01*
X0010750Y0025500D02*
X0010250D01*
X0010500Y0025750D02*
Y0025250D01*
X0010750Y0024500D02*
X0010250D01*
X0010500Y0024750D02*
Y0024250D01*
X0010750Y0023500D02*
X0010250D01*
X0010500Y0023750D02*
Y0023250D01*
X0010750Y0022500D02*
X0010250D01*
X0010500Y0022750D02*
Y0022250D01*
X0010750Y0020500D02*
X0010250D01*
X0010500Y0020750D02*
Y0020250D01*
X0010750Y0019500D02*
X0010250D01*
X0010500Y0019750D02*
Y0019250D01*
X0010750Y0018500D02*
X0010250D01*
X0010500Y0018750D02*
Y0018250D01*
X0010750Y0017500D02*
X0010250D01*
X0010500Y0017750D02*
Y0017250D01*
X0010750Y0016500D02*
X0010250D01*
X0010500Y0016750D02*
Y0016250D01*
X0010750Y0015500D02*
X0010250D01*
X0010500Y0015750D02*
Y0015250D01*
X0010750Y0014500D02*
X0010250D01*
X0010500Y0014750D02*
Y0014250D01*
X0010750Y0013500D02*
X0010250D01*
X0010500Y0013750D02*
Y0013250D01*
X0010750Y0011500D02*
X0010250D01*
X0010500Y0011750D02*
Y0011250D01*
X0010750Y0010500D02*
X0010250D01*
X0010500Y0010750D02*
Y0010250D01*
X0010750Y0009500D02*
X0010250D01*
X0010500Y0009750D02*
Y0009250D01*
X0010750Y0008500D02*
X0010250D01*
X0010500Y0008750D02*
Y0008250D01*
X0010750Y0007500D02*
X0010250D01*
X0010500Y0007750D02*
Y0007250D01*
X0010750Y0006500D02*
X0010250D01*
X0010500Y0006750D02*
Y0006250D01*
X0010750Y0005500D02*
X0010250D01*
X0010500Y0005750D02*
Y0005250D01*
X0010750Y0004500D02*
X0010250D01*
X0010500Y0004750D02*
Y0004250D01*
X0021750Y0015450D02*
X0021250D01*
X0021500Y0015700D02*
Y0015200D01*
X0021750Y0014450D02*
X0021250D01*
X0021500Y0014700D02*
Y0014200D01*
X0020750Y0015450D02*
X0020250D01*
X0020500Y0015700D02*
Y0015200D01*
X0020750Y0014450D02*
X0020250D01*
X0020500Y0014700D02*
Y0014200D01*
X0019750Y0015450D02*
X0019250D01*
X0019500Y0015700D02*
Y0015200D01*
X0019750Y0014450D02*
X0019250D01*
X0019500Y0014700D02*
Y0014200D01*
X0007250Y0039750D02*
Y0039250D01*
X0007750Y0039750D02*
X0007250D01*
X0007750Y0039250D02*
Y0039750D01*
X0007250Y0039250D02*
X0007750D01*
Y0039500D02*
X0007250D01*
X0007500Y0039750D02*
Y0039250D01*
X0008250Y0039750D02*
Y0039250D01*
X0008750Y0039750D02*
X0008250D01*
X0008750Y0039250D02*
Y0039750D01*
X0008250Y0039250D02*
X0008750D01*
Y0039500D02*
X0008250D01*
X0008500Y0039750D02*
Y0039250D01*
X0062000Y0006350D02*
Y0006150D01*
X0062250Y0006100D02*
X0062000Y0006350D01*
X0062500D02*
X0062250Y0006100D01*
X0062500Y0006150D02*
Y0006350D01*
X0062250Y0006400D02*
X0062500Y0006150D01*
X0062000D02*
X0062250Y0006400D01*
X0062000Y0008350D02*
Y0008150D01*
X0062250Y0008100D02*
X0062000Y0008350D01*
X0062500D02*
X0062250Y0008100D01*
X0062500Y0008150D02*
Y0008350D01*
X0062250Y0008400D02*
X0062500Y0008150D01*
X0062000D02*
X0062250Y0008400D01*
X0062000Y0032850D02*
Y0032650D01*
X0062250Y0032600D02*
X0062000Y0032850D01*
X0062500D02*
X0062250Y0032600D01*
X0062500Y0032650D02*
Y0032850D01*
X0062250Y0032900D02*
X0062500Y0032650D01*
X0062000D02*
X0062250Y0032900D01*
X0062000Y0034850D02*
Y0034650D01*
X0062250Y0034600D02*
X0062000Y0034850D01*
X0062500D02*
X0062250Y0034600D01*
X0062500Y0034650D02*
Y0034850D01*
X0062250Y0034900D02*
X0062500Y0034650D01*
X0062000D02*
X0062250Y0034900D01*
G54D108*
G01X0000000Y0041000D02*
X0066000D01*
Y0000000D01*
X0000000D01*
Y0041000D01*
X0066000D01*
Y0000000D01*
X0000000D01*
Y0041000D01*
M02*
