*
G04 Mass Parameters ***
*
G04 Image ***
*
%INC:\DOCUMENTS AND SETTINGS\JUANBALA\ESCRITORIO\ORCAD\RESPIRADOR HGGM-UC3M.TOP*%
%ICAS*%
%MOIN*%
%IPPOS*%
%ASAXBY*%
G74*%FSLAN2X34Y34*%
*
G04 Aperture Definitions ***
*
%ADD10C,0.1500*%
%ADD11R,0.1500X0.1500*%
%ADD12O,0.0800X0.1000*%
%ADD13R,0.0800X0.1000*%
%ADD14C,0.0640*%
%ADD15R,0.0640X0.0640*%
%ADD16C,0.1000*%
%ADD17R,0.1000X0.1000*%
%ADD18C,0.0880*%
%ADD19R,0.0880X0.0880*%
%ADD20R,0.0460X0.0580*%
%ADD21R,0.0720X0.0460*%
%ADD22R,0.0460X0.0720*%
%ADD23R,0.0410X0.0560*%
%ADD24R,0.0580X0.0460*%
%ADD25R,0.0380X0.0370*%
%ADD26R,0.0370X0.0380*%
%ADD27R,0.0700X0.0560*%
%ADD28R,0.0700X0.0880*%
%ADD29C,0.0760*%
%ADD30C,0.3000*%
%ADD31O,0.1000X0.0800*%
%ADD32R,0.1000X0.0800*%
%ADD33R,0.0760X0.0760*%
%ADD34R,0.1300X0.0520*%
%ADD35R,0.0500X0.0520*%
%ADD36C,0.2900*%
%ADD37R,0.0260X0.0480*%
%ADD38O,0.1200X0.0800*%
%ADD39R,0.1200X0.0800*%
%ADD40O,0.0800X0.1200*%
%ADD41R,0.0800X0.1200*%
%ADD42R,0.0450X0.0700*%
%ADD43R,0.0700X0.0450*%
%ADD44R,0.0320X0.0380*%
%ADD45R,0.0380X0.0320*%
%ADD46R,0.1330X0.0500*%
%ADD47R,0.1260X0.1000*%
%ADD48O,0.1200X0.0760*%
%ADD49R,0.1200X0.0760*%
%ADD50R,0.0480X0.0240*%
%ADD51R,0.0240X0.0480*%
%ADD52C,0.0280*%
%ADD53C,0.0100*%
%ADD54C,0.0200*%
%ADD55C,0.0400*%
%ADD56C,0.0600*%
%ADD57C,0.0120*%
%ADD58C,0.0250*%
%ADD59C,0.0500*%
%ADD60C,0.0280*%
%ADD61C,0.0080*%
*
G04 Plot Data ***
*
G54D53*
G01X0032587Y0014375D02*
Y0013250D01*
X0032497Y0014375D02*
Y0013250D01*
X0032407Y0014375D02*
Y0013250D01*
X0032317Y0014375D02*
Y0013250D01*
X0032227Y0014375D02*
Y0013250D01*
X0032137Y0014375D02*
Y0013250D01*
X0032047Y0014375D02*
Y0013250D01*
X0035312D02*
X0031957D01*
Y0014375D02*
Y0013250D01*
X0035312Y0013430D02*
X0031777D01*
X0035312Y0014330D02*
X0031687D01*
X0035312Y0014240D02*
X0031687D01*
X0035312Y0014150D02*
X0031687D01*
X0035312Y0014060D02*
X0031687D01*
X0035312Y0013970D02*
X0031687D01*
X0035312Y0013880D02*
X0031687D01*
X0035312Y0013790D02*
X0031687D01*
X0035312Y0013700D02*
X0031687D01*
X0035312Y0013610D02*
X0031687D01*
X0031867Y0014375D02*
Y0013340D01*
X0035312Y0013520D02*
X0031687D01*
X0031777Y0014375D02*
Y0013430D01*
X0034747Y0014375D02*
Y0013250D01*
X0034657Y0014375D02*
Y0013250D01*
X0034567Y0014375D02*
Y0013250D01*
X0034477Y0014375D02*
Y0013250D01*
X0034387Y0014375D02*
Y0013250D01*
X0034297Y0014375D02*
Y0013250D01*
X0034207Y0014375D02*
Y0013250D01*
X0034117Y0014375D02*
Y0013250D01*
X0034027Y0014375D02*
Y0013250D01*
X0033937Y0014375D02*
Y0013250D01*
X0033847Y0014375D02*
Y0013250D01*
X0033757Y0014375D02*
Y0013250D01*
X0033667Y0014375D02*
Y0013250D01*
X0033577Y0014375D02*
Y0013250D01*
X0033487Y0014375D02*
Y0013250D01*
X0033397Y0014375D02*
Y0013250D01*
X0033307Y0014375D02*
Y0013250D01*
X0033217Y0014375D02*
Y0013250D01*
X0033127Y0014375D02*
Y0013250D01*
X0033037Y0014375D02*
Y0013250D01*
X0032947Y0014375D02*
Y0013250D01*
X0032857Y0014375D02*
Y0013250D01*
X0032767Y0014375D02*
Y0013250D01*
X0032677Y0014375D02*
Y0013250D01*
X0035312Y0013340D02*
X0031867D01*
X0031750Y0014375D02*
X0031687D01*
Y0013520D01*
X0035312Y0014375D02*
Y0013250D01*
Y0014375D02*
X0031750D01*
X0031687Y0013520D02*
X0031957Y0013250D01*
X0035287Y0014375D02*
Y0013250D01*
X0035197Y0014375D02*
Y0013250D01*
X0035107Y0014375D02*
Y0013250D01*
X0035017Y0014375D02*
Y0013250D01*
X0034927Y0014375D02*
Y0013250D01*
X0034837Y0014375D02*
Y0013250D01*
X0032587Y0029875D02*
Y0028750D01*
X0032497Y0029875D02*
Y0028750D01*
X0032407Y0029875D02*
Y0028750D01*
X0032317Y0029875D02*
Y0028750D01*
X0032227Y0029875D02*
Y0028750D01*
X0032137Y0029875D02*
Y0028750D01*
X0032047Y0029875D02*
Y0028750D01*
X0031957Y0029875D02*
Y0028750D01*
X0031867Y0029875D02*
Y0028750D01*
X0035312Y0029830D02*
X0031687D01*
X0035312Y0029740D02*
X0031687D01*
X0035312Y0029650D02*
X0031687D01*
X0035312Y0029560D02*
X0031687D01*
X0035312Y0029470D02*
X0031687D01*
X0035312Y0029380D02*
X0031687D01*
X0035312Y0029290D02*
X0031687D01*
X0035312Y0029200D02*
X0031687D01*
X0035312Y0029110D02*
X0031687D01*
X0035312Y0029020D02*
X0031687D01*
X0035312Y0028930D02*
X0031687D01*
X0031777Y0029875D02*
Y0028750D01*
X0034747Y0029875D02*
Y0028750D01*
X0034657Y0029875D02*
Y0028750D01*
X0034567Y0029875D02*
Y0028750D01*
X0034477Y0029875D02*
Y0028750D01*
X0034387Y0029875D02*
Y0028750D01*
X0034297Y0029875D02*
Y0028750D01*
X0034207Y0029875D02*
Y0028750D01*
X0034117Y0029875D02*
Y0028750D01*
X0034027Y0029875D02*
Y0028750D01*
X0033937Y0029875D02*
Y0028750D01*
X0033847Y0029875D02*
Y0028750D01*
X0033757Y0029875D02*
Y0028750D01*
X0033667Y0029875D02*
Y0028750D01*
X0033577Y0029875D02*
Y0028750D01*
X0033487Y0029875D02*
Y0028750D01*
X0033397Y0029875D02*
Y0028750D01*
X0033307Y0029875D02*
Y0028750D01*
X0033217Y0029875D02*
Y0028750D01*
X0033127Y0029875D02*
Y0028750D01*
X0033037Y0029875D02*
Y0028750D01*
X0032947Y0029875D02*
Y0028750D01*
X0032857Y0029875D02*
Y0028750D01*
X0032767Y0029875D02*
Y0028750D01*
X0032677Y0029875D02*
Y0028750D01*
X0035312Y0028840D02*
X0031687D01*
X0035312Y0029875D02*
X0031750D01*
X0035312D02*
Y0028750D01*
X0031687D01*
Y0029875D02*
Y0028750D01*
X0031750Y0029875D02*
X0031687D01*
X0035287D02*
Y0028750D01*
X0035197Y0029875D02*
Y0028750D01*
X0035107Y0029875D02*
Y0028750D01*
X0035017Y0029875D02*
Y0028750D01*
X0034927Y0029875D02*
Y0028750D01*
X0034837Y0029875D02*
Y0028750D01*
X0009250Y0030162D02*
X0008225D01*
X0009250Y0030072D02*
X0008135D01*
X0009250Y0029982D02*
X0008045D01*
X0009250Y0029892D02*
X0007955D01*
X0009250Y0029802D02*
X0007187D01*
X0009250Y0029712D02*
X0007187D01*
X0009250Y0029622D02*
X0007187D01*
X0009250Y0029532D02*
X0007187D01*
X0009250Y0029442D02*
X0007187D01*
X0009250Y0029352D02*
X0007187D01*
X0009250Y0029262D02*
X0007187D01*
X0009250Y0029172D02*
X0007952D01*
X0009250Y0029082D02*
X0008042D01*
X0009250Y0028992D02*
X0008132D01*
X0008627Y0030187D02*
Y0028812D01*
X0008537Y0030186D02*
Y0028812D01*
X0008447Y0030187D02*
Y0028812D01*
X0008177Y0030115D02*
Y0028947D01*
X0008087Y0030025D02*
Y0029037D01*
X0007997Y0029935D02*
Y0029127D01*
X0007907Y0029845D02*
Y0029187D01*
X0007817Y0029812D02*
Y0029187D01*
X0007727Y0029812D02*
Y0029187D01*
X0007637Y0029812D02*
Y0029187D01*
X0007547Y0029812D02*
Y0029187D01*
X0007457Y0029812D02*
Y0029187D01*
X0007367Y0029812D02*
Y0029187D01*
X0008357Y0030187D02*
Y0028812D01*
X0008897Y0030187D02*
Y0028812D01*
X0008250Y0030187D02*
X0007875Y0029812D01*
X0007187D01*
Y0029187D01*
X0007937D02*
X0007187D01*
X0007937D02*
X0008312Y0028812D01*
X0009250D02*
X0008312D01*
X0009250Y0030187D02*
Y0028812D01*
X0009167Y0030187D02*
Y0028812D01*
X0009077Y0030187D02*
Y0028812D01*
X0008987Y0030185D02*
Y0028812D01*
X0009250Y0030187D02*
X0009045D01*
X0008807D02*
Y0028812D01*
X0007277Y0029812D02*
Y0029187D01*
X0009250Y0028902D02*
X0008222D01*
X0008267Y0030187D02*
Y0028857D01*
X0008455Y0030187D02*
X0008250D01*
X0008955D02*
X0008545D01*
X0008717D02*
Y0028812D01*
X0005715Y0036590D02*
Y0035312D01*
X0007875Y0036572D02*
X0005697D01*
X0007875Y0036482D02*
X0005625D01*
X0007875Y0036392D02*
X0005625D01*
X0007875Y0036302D02*
X0005625D01*
X0007875Y0036212D02*
X0005625D01*
X0007875Y0036122D02*
X0005625D01*
X0007875Y0036032D02*
X0005625D01*
X0007875Y0035942D02*
X0005625D01*
X0007875Y0035852D02*
X0005625D01*
X0007875Y0035762D02*
X0005625D01*
X0007875Y0035672D02*
X0005625D01*
X0007875Y0035582D02*
X0005625D01*
X0007875Y0035492D02*
X0005625D01*
X0007875Y0035402D02*
X0005625D01*
X0007245Y0036625D02*
Y0035312D01*
X0007155Y0036625D02*
Y0035312D01*
X0007065Y0036625D02*
Y0035312D01*
X0006975Y0036625D02*
Y0035312D01*
X0006885Y0036625D02*
Y0035312D01*
X0006795Y0036625D02*
Y0035312D01*
X0006705Y0036625D02*
Y0035312D01*
X0006615Y0036625D02*
Y0035312D01*
X0006525Y0036625D02*
Y0035312D01*
X0006435Y0036625D02*
Y0035312D01*
X0006345Y0036625D02*
Y0035312D01*
X0006255Y0036625D02*
Y0035312D01*
X0006165Y0036625D02*
Y0035312D01*
X0006075Y0036625D02*
Y0035312D01*
X0005985Y0036625D02*
Y0035312D01*
X0005895Y0036625D02*
Y0035312D01*
X0005805Y0036625D02*
Y0035312D01*
X0005625Y0036500D02*
Y0035312D01*
X0007875D02*
X0005625D01*
X0007875Y0036625D02*
Y0035312D01*
Y0036625D02*
X0005750D01*
X0005625Y0036500D01*
X0007785Y0036625D02*
Y0035312D01*
X0007695Y0036625D02*
Y0035312D01*
X0007605Y0036625D02*
Y0035312D01*
X0007515Y0036625D02*
Y0035312D01*
X0007425Y0036625D02*
Y0035312D01*
X0007335Y0036625D02*
Y0035312D01*
X0006960Y0032835D02*
Y0030687D01*
X0005790Y0032562D02*
Y0029937D01*
X0007500Y0033807D02*
X0007000D01*
X0005520Y0031582D02*
Y0029937D01*
X0005700Y0031762D02*
Y0029937D01*
X0007500Y0034167D02*
X0007000D01*
X0007500Y0034077D02*
X0007000D01*
X0007500Y0033987D02*
X0007000D01*
X0007500Y0033897D02*
X0007000D01*
X0005340Y0031402D02*
Y0029937D01*
X0007500Y0033717D02*
X0007000D01*
X0007500Y0033627D02*
X0007000D01*
X0007500Y0033537D02*
X0007000D01*
X0007500Y0033447D02*
X0007000D01*
X0007500Y0033267D02*
X0007000D01*
X0007500Y0033177D02*
X0007000D01*
X0007500Y0033087D02*
X0007000D01*
X0007500Y0032997D02*
X0007000D01*
X0007500Y0032907D02*
X0007000D01*
X0007500Y0032817D02*
X0006942D01*
X0007500Y0032727D02*
X0006852D01*
X0007500Y0032637D02*
X0006762D01*
X0007500Y0032547D02*
X0005750D01*
X0007500Y0032457D02*
X0005750D01*
X0007500Y0032367D02*
X0005750D01*
X0007500Y0032277D02*
X0005750D01*
X0007500Y0032187D02*
X0005750D01*
X0007500Y0032097D02*
X0005750D01*
X0007500Y0031917D02*
X0005750D01*
X0007500Y0031827D02*
X0005750D01*
X0007500Y0031737D02*
X0005675D01*
X0007500Y0031647D02*
X0005585D01*
X0007500Y0031557D02*
X0005495D01*
X0007500Y0031467D02*
X0005405D01*
X0007500Y0031377D02*
X0005315D01*
X0007500Y0031287D02*
X0005250D01*
X0007500Y0031197D02*
X0005250D01*
X0007500Y0031107D02*
X0005250D01*
X0007500Y0031017D02*
X0005250D01*
X0007500Y0030927D02*
X0005250D01*
X0007500Y0030837D02*
X0005250D01*
X0007500Y0030747D02*
X0005250D01*
X0006532Y0030657D02*
X0005250D01*
X0006442Y0030567D02*
X0005250D01*
X0006352Y0030477D02*
X0005250D01*
X0006262Y0030387D02*
X0005250D01*
X0006172Y0030297D02*
X0005250D01*
X0007140Y0034250D02*
Y0030687D01*
X0006082Y0030207D02*
X0005250D01*
X0005430Y0031492D02*
Y0029937D01*
X0007500Y0032007D02*
X0005750D01*
X0005992Y0030117D02*
X0005250D01*
X0006690Y0032565D02*
Y0030687D01*
X0007000Y0034250D02*
Y0032875D01*
X0006600Y0032562D02*
Y0030687D01*
X0007500Y0033357D02*
X0007000D01*
X0005880Y0032562D02*
Y0030005D01*
X0005750Y0031812D02*
X0005250Y0031312D01*
X0005750Y0032562D02*
Y0031812D01*
X0006687Y0032562D02*
X0005750D01*
X0007000Y0032875D02*
X0006687Y0032562D01*
X0006510D02*
Y0030635D01*
X0007500Y0034250D02*
X0007000D01*
X0007500D02*
X0007000D01*
X0007500Y0030687D02*
X0006562D01*
X0005812Y0029937D01*
X0005250D01*
Y0031312D02*
Y0029937D01*
X0005902Y0030027D02*
X0005250D01*
X0007500Y0034250D02*
Y0030687D01*
X0007410Y0034250D02*
Y0030687D01*
X0007320Y0034250D02*
Y0030687D01*
X0007230Y0034250D02*
Y0030687D01*
X0007050Y0034250D02*
Y0030687D01*
X0006870Y0032745D02*
Y0030687D01*
X0006780Y0032655D02*
Y0030687D01*
X0006420Y0032562D02*
Y0030545D01*
X0006330Y0032562D02*
Y0030455D01*
X0006240Y0032562D02*
Y0030365D01*
X0006150Y0032562D02*
Y0030275D01*
X0006060Y0032562D02*
Y0030185D01*
X0005970Y0032562D02*
Y0030095D01*
X0005610Y0031672D02*
Y0029937D01*
X0033577Y0017187D02*
Y0016062D01*
X0033487Y0017187D02*
Y0016062D01*
X0033397Y0017187D02*
Y0016062D01*
X0033307Y0017187D02*
Y0016062D01*
X0033217Y0017187D02*
Y0016062D01*
X0033127Y0017187D02*
Y0016062D01*
X0033037Y0017187D02*
Y0016062D01*
X0032947Y0017187D02*
Y0016062D01*
X0032857Y0017187D02*
Y0016062D01*
X0032767Y0017187D02*
Y0016062D01*
X0032677Y0017187D02*
Y0016062D01*
X0032587Y0017187D02*
Y0016062D01*
X0032497Y0017187D02*
Y0016062D01*
X0032407Y0017187D02*
Y0016062D01*
X0032317Y0017187D02*
Y0016062D01*
X0032227Y0017187D02*
Y0016062D01*
X0032137Y0017187D02*
Y0016062D01*
X0032047Y0017187D02*
Y0016062D01*
X0031957Y0017187D02*
Y0016062D01*
X0031867Y0017187D02*
Y0016062D01*
X0031777Y0017187D02*
Y0016062D01*
X0036457Y0017062D02*
Y0016437D01*
X0036743Y0017052D02*
X0031687D01*
X0037000Y0016962D02*
X0031687D01*
X0037000Y0016872D02*
X0031687D01*
X0037000Y0016782D02*
X0031687D01*
X0037000Y0016692D02*
X0031687D01*
X0037000Y0016602D02*
X0031687D01*
X0037000Y0016512D02*
X0031687D01*
X0035485Y0016422D02*
X0031687D01*
X0035395Y0016332D02*
X0031687D01*
X0035305Y0016242D02*
X0031687D01*
X0035420Y0017142D02*
X0031687D01*
X0036817Y0017050D02*
Y0016437D01*
X0036727Y0017054D02*
Y0016437D01*
X0036637Y0017062D02*
Y0016437D01*
X0036547Y0017062D02*
Y0016437D01*
X0036367Y0017062D02*
Y0016437D01*
X0036277Y0017062D02*
Y0016437D01*
X0036187Y0017062D02*
Y0016437D01*
X0036097Y0017062D02*
Y0016437D01*
X0036007Y0017062D02*
Y0016437D01*
X0035917Y0017062D02*
Y0016437D01*
X0035827Y0017062D02*
Y0016437D01*
X0035737Y0017062D02*
Y0016437D01*
X0035647Y0017062D02*
Y0016437D01*
X0035557Y0017062D02*
Y0016437D01*
X0035467Y0017095D02*
Y0016405D01*
X0035377Y0017185D02*
Y0016315D01*
X0035287Y0017187D02*
Y0016225D01*
X0035197Y0017187D02*
Y0016135D01*
X0035107Y0017187D02*
Y0016062D01*
X0035017Y0017187D02*
Y0016062D01*
X0034927Y0017187D02*
Y0016062D01*
X0034837Y0017187D02*
Y0016062D01*
X0034747Y0017187D02*
Y0016062D01*
X0034657Y0017187D02*
Y0016062D01*
X0034567Y0017187D02*
Y0016062D01*
X0034477Y0017187D02*
Y0016062D01*
X0034387Y0017187D02*
Y0016062D01*
X0034297Y0017187D02*
Y0016062D01*
X0034207Y0017187D02*
Y0016062D01*
X0034117Y0017187D02*
Y0016062D01*
X0034027Y0017187D02*
Y0016062D01*
X0033937Y0017187D02*
Y0016062D01*
X0033847Y0017187D02*
Y0016062D01*
X0033757Y0017187D02*
Y0016062D01*
X0033667Y0017187D02*
Y0016062D01*
X0035215Y0016152D02*
X0031687D01*
Y0017187D02*
Y0016812D01*
X0035375Y0017187D02*
X0031687D01*
X0035375D02*
X0035500Y0017062D01*
X0036669D02*
X0035500D01*
X0037000Y0016437D02*
X0035500D01*
X0035125Y0016062D01*
X0031687D01*
Y0016812D02*
Y0016062D01*
X0037000Y0017050D02*
Y0016437D01*
Y0017050D02*
X0036800D01*
X0036907D02*
Y0016437D01*
X0033577Y0032687D02*
Y0031562D01*
X0033487Y0032687D02*
Y0031562D01*
X0033397Y0032687D02*
Y0031562D01*
X0033307Y0032687D02*
Y0031562D01*
X0033217Y0032687D02*
Y0031562D01*
X0033127Y0032687D02*
Y0031562D01*
X0033037Y0032687D02*
Y0031562D01*
X0032947Y0032687D02*
Y0031562D01*
X0032857Y0032687D02*
Y0031562D01*
X0032767Y0032687D02*
Y0031562D01*
X0032677Y0032687D02*
Y0031562D01*
X0032587Y0032687D02*
Y0031562D01*
X0032497Y0032687D02*
Y0031562D01*
X0032407Y0032687D02*
Y0031562D01*
X0032317Y0032687D02*
Y0031562D01*
X0032227Y0032687D02*
Y0031562D01*
X0032137Y0032687D02*
Y0031562D01*
X0032047Y0032687D02*
Y0031562D01*
X0031957Y0032687D02*
Y0031562D01*
X0031867Y0032687D02*
Y0031562D01*
X0031777Y0032687D02*
Y0031562D01*
X0036457Y0032562D02*
Y0031937D01*
X0036743Y0032552D02*
X0031687D01*
X0037000Y0032462D02*
X0031687D01*
X0037000Y0032372D02*
X0031687D01*
X0037000Y0032282D02*
X0031687D01*
X0037000Y0032192D02*
X0031687D01*
X0037000Y0032102D02*
X0031687D01*
X0037000Y0032012D02*
X0031687D01*
X0035485Y0031922D02*
X0031687D01*
X0035395Y0031832D02*
X0031687D01*
X0035305Y0031742D02*
X0031687D01*
X0035420Y0032642D02*
X0031687D01*
X0036817Y0032550D02*
Y0031937D01*
X0036727Y0032554D02*
Y0031937D01*
X0036637Y0032562D02*
Y0031937D01*
X0036547Y0032562D02*
Y0031937D01*
X0036367Y0032562D02*
Y0031937D01*
X0036277Y0032562D02*
Y0031937D01*
X0036187Y0032562D02*
Y0031937D01*
X0036097Y0032562D02*
Y0031937D01*
X0036007Y0032562D02*
Y0031937D01*
X0035917Y0032562D02*
Y0031937D01*
X0035827Y0032562D02*
Y0031937D01*
X0035737Y0032562D02*
Y0031937D01*
X0035647Y0032562D02*
Y0031937D01*
X0035557Y0032562D02*
Y0031937D01*
X0035467Y0032595D02*
Y0031905D01*
X0035377Y0032685D02*
Y0031815D01*
X0035287Y0032687D02*
Y0031725D01*
X0035197Y0032687D02*
Y0031635D01*
X0035107Y0032687D02*
Y0031562D01*
X0035017Y0032687D02*
Y0031562D01*
X0034927Y0032687D02*
Y0031562D01*
X0034837Y0032687D02*
Y0031562D01*
X0034747Y0032687D02*
Y0031562D01*
X0034657Y0032687D02*
Y0031562D01*
X0034567Y0032687D02*
Y0031562D01*
X0034477Y0032687D02*
Y0031562D01*
X0034387Y0032687D02*
Y0031562D01*
X0034297Y0032687D02*
Y0031562D01*
X0034207Y0032687D02*
Y0031562D01*
X0034117Y0032687D02*
Y0031562D01*
X0034027Y0032687D02*
Y0031562D01*
X0033937Y0032687D02*
Y0031562D01*
X0033847Y0032687D02*
Y0031562D01*
X0033757Y0032687D02*
Y0031562D01*
X0033667Y0032687D02*
Y0031562D01*
X0035215Y0031652D02*
X0031687D01*
Y0032687D02*
Y0032312D01*
X0035375Y0032687D02*
X0031687D01*
X0035375D02*
X0035500Y0032562D01*
X0036669D02*
X0035500D01*
X0037000Y0031937D02*
X0035500D01*
X0035125Y0031562D01*
X0031687D01*
Y0032312D02*
Y0031562D01*
X0037000Y0032550D02*
Y0031937D01*
Y0032550D02*
X0036800D01*
X0036907D02*
Y0031937D01*
X0063120Y0027630D02*
Y0019250D01*
X0063000Y0027750D02*
X0064250Y0026500D01*
Y0019250D01*
X0061500D01*
X0063000Y0028775D02*
Y0027750D01*
X0064200Y0026550D02*
Y0019250D01*
X0064110Y0026640D02*
Y0019250D01*
X0064020Y0026730D02*
Y0019250D01*
X0063930Y0026820D02*
Y0019250D01*
X0063840Y0026910D02*
Y0019250D01*
X0063750Y0027000D02*
Y0019250D01*
X0063660Y0027090D02*
Y0019250D01*
X0063570Y0027180D02*
Y0019250D01*
X0063390Y0027360D02*
Y0019250D01*
X0063300Y0027450D02*
Y0019250D01*
X0061590Y0028775D02*
Y0019250D01*
X0063030Y0027720D02*
Y0019250D01*
X0061500Y0028775D02*
Y0019250D01*
X0062940Y0028775D02*
Y0019250D01*
X0062850Y0028775D02*
Y0019250D01*
X0062760Y0028775D02*
Y0019250D01*
X0062670Y0028775D02*
Y0019250D01*
X0062580Y0028775D02*
Y0019250D01*
X0062490Y0028775D02*
Y0019250D01*
X0062400Y0028775D02*
Y0019250D01*
X0062310Y0028775D02*
Y0019250D01*
X0062220Y0028775D02*
Y0019250D01*
X0062130Y0028775D02*
Y0019250D01*
X0062040Y0028775D02*
Y0019250D01*
X0061950Y0028775D02*
Y0019250D01*
X0061860Y0028775D02*
Y0019250D01*
X0064250Y0019340D02*
X0061500D01*
X0063000Y0028775D02*
X0061500D01*
X0063000Y0028700D02*
X0061500D01*
X0063000Y0028610D02*
X0061500D01*
X0063000Y0028520D02*
X0061500D01*
X0063000Y0028430D02*
X0061500D01*
X0063000Y0028340D02*
X0061500D01*
X0063000Y0028250D02*
X0061500D01*
X0063000Y0028160D02*
X0061500D01*
X0063000Y0028070D02*
X0061500D01*
X0063480Y0027270D02*
Y0019250D01*
X0063000Y0027890D02*
X0061500D01*
X0063000Y0027800D02*
X0061500D01*
X0063040Y0027710D02*
X0061500D01*
X0063130Y0027620D02*
X0061500D01*
X0063310Y0027440D02*
X0061500D01*
X0063400Y0027350D02*
X0061500D01*
X0063490Y0027260D02*
X0061500D01*
X0063580Y0027170D02*
X0061500D01*
X0063670Y0027080D02*
X0061500D01*
X0063760Y0026990D02*
X0061500D01*
X0063850Y0026900D02*
X0061500D01*
X0063940Y0026810D02*
X0061500D01*
X0064030Y0026720D02*
X0061500D01*
X0064120Y0026630D02*
X0061500D01*
X0064210Y0026540D02*
X0061500D01*
X0064250Y0026450D02*
X0061500D01*
X0064250Y0026360D02*
X0061500D01*
X0064250Y0026270D02*
X0061500D01*
X0064250Y0026180D02*
X0061500D01*
X0064250Y0026090D02*
X0061500D01*
X0064250Y0026000D02*
X0061500D01*
X0064250Y0025910D02*
X0061500D01*
X0064250Y0025820D02*
X0061500D01*
X0064250Y0025730D02*
X0061500D01*
X0064250Y0025640D02*
X0061500D01*
X0064250Y0025550D02*
X0061500D01*
X0064250Y0025460D02*
X0061500D01*
X0064250Y0025370D02*
X0061500D01*
X0064250Y0025280D02*
X0061500D01*
X0064250Y0025190D02*
X0061500D01*
X0064250Y0025100D02*
X0061500D01*
X0064250Y0025010D02*
X0061500D01*
X0064250Y0024920D02*
X0061500D01*
X0064250Y0024830D02*
X0061500D01*
X0064250Y0024740D02*
X0061500D01*
X0064250Y0024650D02*
X0061500D01*
X0064250Y0024560D02*
X0061500D01*
X0064250Y0024470D02*
X0061500D01*
X0064250Y0024380D02*
X0061500D01*
X0064250Y0024290D02*
X0061500D01*
X0064250Y0024200D02*
X0061500D01*
X0061680Y0028775D02*
Y0019250D01*
X0064250Y0024020D02*
X0061500D01*
X0064250Y0023930D02*
X0061500D01*
X0064250Y0023840D02*
X0061500D01*
X0064250Y0023750D02*
X0061500D01*
X0064250Y0023660D02*
X0061500D01*
X0064250Y0023570D02*
X0061500D01*
X0064250Y0023480D02*
X0061500D01*
X0064250Y0023390D02*
X0061500D01*
X0064250Y0023300D02*
X0061500D01*
X0064250Y0023210D02*
X0061500D01*
X0064250Y0023120D02*
X0061500D01*
X0064250Y0023030D02*
X0061500D01*
X0064250Y0022940D02*
X0061500D01*
X0064250Y0022850D02*
X0061500D01*
X0064250Y0022760D02*
X0061500D01*
X0064250Y0022670D02*
X0061500D01*
X0064250Y0022580D02*
X0061500D01*
X0064250Y0022490D02*
X0061500D01*
X0064250Y0022400D02*
X0061500D01*
X0064250Y0022310D02*
X0061500D01*
X0064250Y0022220D02*
X0061500D01*
X0064250Y0022130D02*
X0061500D01*
X0064250Y0022040D02*
X0061500D01*
X0064250Y0021950D02*
X0061500D01*
X0064250Y0021860D02*
X0061500D01*
X0064250Y0021770D02*
X0061500D01*
X0064250Y0021680D02*
X0061500D01*
X0064250Y0021590D02*
X0061500D01*
X0064250Y0021500D02*
X0061500D01*
X0064250Y0021410D02*
X0061500D01*
X0064250Y0021320D02*
X0061500D01*
X0064250Y0021230D02*
X0061500D01*
X0064250Y0021140D02*
X0061500D01*
X0064250Y0021050D02*
X0061500D01*
X0064250Y0020960D02*
X0061500D01*
X0064250Y0020870D02*
X0061500D01*
X0064250Y0020780D02*
X0061500D01*
X0064250Y0020690D02*
X0061500D01*
X0064250Y0020600D02*
X0061500D01*
X0064250Y0020510D02*
X0061500D01*
X0064250Y0020420D02*
X0061500D01*
X0064250Y0020330D02*
X0061500D01*
X0064250Y0020240D02*
X0061500D01*
X0064250Y0020150D02*
X0061500D01*
X0064250Y0020060D02*
X0061500D01*
X0064250Y0019970D02*
X0061500D01*
X0064250Y0019880D02*
X0061500D01*
X0064250Y0019790D02*
X0061500D01*
X0064250Y0019700D02*
X0061500D01*
X0064250Y0019610D02*
X0061500D01*
X0064250Y0019520D02*
X0061500D01*
X0064250Y0019430D02*
X0061500D01*
X0061770Y0028775D02*
Y0019250D01*
X0064250Y0024110D02*
X0061500D01*
X0063210Y0027540D02*
Y0019250D01*
X0063000Y0027980D02*
X0061500D01*
X0063220Y0027530D02*
X0061500D01*
X0062040Y0029750D02*
Y0029162D01*
X0061950Y0029750D02*
Y0029162D01*
X0061860Y0029750D02*
Y0029162D01*
X0063215Y0029215D02*
X0061500D01*
X0065000Y0029665D02*
X0061500D01*
X0065000Y0029575D02*
X0061500D01*
X0065000Y0029485D02*
X0061500D01*
X0065000Y0029395D02*
X0061500D01*
X0065000Y0029305D02*
X0061500D01*
X0061590Y0029750D02*
Y0029162D01*
X0063120Y0029750D02*
Y0029141D01*
X0063030Y0029750D02*
Y0029161D01*
X0062940Y0029750D02*
Y0029162D01*
X0062850Y0029750D02*
Y0029162D01*
X0062760Y0029750D02*
Y0029162D01*
X0062670Y0029750D02*
Y0029162D01*
X0062580Y0029750D02*
Y0029162D01*
X0062490Y0029750D02*
Y0029162D01*
X0062400Y0029750D02*
Y0029162D01*
X0062310Y0029750D02*
Y0029162D01*
X0062220Y0029750D02*
Y0029162D01*
X0062130Y0029750D02*
Y0029162D01*
X0064020Y0029750D02*
Y0029250D01*
X0063930Y0029750D02*
Y0029250D01*
X0063840Y0029750D02*
Y0029250D01*
X0063750Y0029750D02*
Y0029250D01*
X0063660Y0029750D02*
Y0029250D01*
X0063570Y0029750D02*
Y0029250D01*
X0063480Y0029750D02*
Y0029250D01*
X0063390Y0029750D02*
Y0029250D01*
X0063300Y0029750D02*
Y0029250D01*
X0063250D02*
X0063140Y0029140D01*
X0061500Y0029750D02*
Y0029162D01*
X0063210Y0029750D02*
Y0029210D01*
X0063140Y0029140D02*
X0063123D01*
X0064920Y0029750D02*
Y0029250D01*
X0064830Y0029750D02*
Y0029250D01*
X0064740Y0029750D02*
Y0029250D01*
X0064650Y0029750D02*
Y0029250D01*
X0064560Y0029750D02*
Y0029250D01*
X0064470Y0029750D02*
Y0029250D01*
X0064380Y0029750D02*
Y0029250D01*
X0064290Y0029750D02*
Y0029250D01*
X0064200Y0029750D02*
Y0029250D01*
X0064110Y0029750D02*
Y0029250D01*
X0061770Y0029750D02*
Y0029162D01*
X0061680Y0029750D02*
Y0029162D01*
X0063000D02*
X0061500D01*
X0065000Y0029750D02*
Y0029250D01*
Y0029750D02*
X0061500D01*
X0065000Y0029250D02*
X0063250D01*
G01X0009000Y0030185D02*
G03X0009045Y0030187I0000000J0000440D01*
G01X0008455D02*
G03X0008500Y0030185I0000045J0000438D01*
G03X0008545Y0030187I0000000J0000440D01*
G01X0008955D02*
G03X0009000Y0030185I0000045J0000438D01*
G01X0036669Y0017062D02*
G03X0036800Y0017050I0000131J0000688D01*
G01X0036669Y0032562D02*
G03X0036800Y0032550I0000131J0000688D01*
G01X0063123Y0029140D02*
G03X0063000Y0029162I0000123J0000328D01*
G54D54*
G01X0032250Y0007500D02*
X0031500D01*
X0029500Y0005500D01*
X0027000D01*
X0024500Y0008000D01*
Y0024000D01*
X0022000Y0026500D01*
X0010500D01*
X0032250Y0007500D02*
X0031500D01*
X0029500Y0005500D01*
X0027000D01*
X0047750Y0006690D02*
Y0006500D01*
X0047500Y0006250D01*
X0040000Y0006630D02*
X0040245D01*
X0040305Y0006690D01*
X0040750D01*
X0047000Y0006630D02*
X0047245D01*
X0047305Y0006690D01*
X0047750D01*
X0006370Y0006375D02*
Y0006620D01*
X0006440Y0006690D01*
Y0007125D01*
X0001500Y0008000D02*
X0002500D01*
X0002650Y0008150D01*
X0003375D01*
X0006370Y0010375D02*
Y0010620D01*
X0006440Y0010690D01*
Y0011125D01*
X0003375Y0013850D02*
X0002650D01*
X0002500Y0014000D01*
X0001500D01*
X0006370Y0014875D02*
Y0015245D01*
X0006440Y0015315D01*
Y0015625D01*
X0003375Y0018850D02*
X0002650D01*
X0002500Y0019000D01*
X0001500D01*
X0033745Y0019375D02*
X0033750Y0019625D01*
X0033815Y0019690D01*
Y0020125D01*
X0006370Y0019875D02*
Y0020245D01*
X0006440Y0020315D01*
Y0020625D01*
X0033745Y0034875D02*
X0033750Y0034880D01*
Y0035125D01*
X0033690Y0035185D01*
Y0035625D01*
X0027000Y0035000D02*
X0028000Y0034000D01*
X0008625Y0037875D02*
X0009125D01*
X0009000Y0033750D02*
X0008625D01*
X0034750Y0035625D02*
X0034310D01*
X0043750Y0035775D02*
Y0035250D01*
X0032755Y0034500D02*
X0032250D01*
X0031125Y0034375D02*
Y0033945D01*
X0058150Y0030625D02*
Y0029975D01*
X0007625Y0026625D02*
X0007110D01*
X0007625Y0025750D02*
X0007110D01*
X0007625Y0024875D02*
X0007110D01*
X0007500Y0020625D02*
X0007060D01*
X0034875Y0020125D02*
X0034435D01*
X0005380Y0019500D02*
X0004875D01*
X0032755Y0019000D02*
X0032250D01*
X0031125Y0018875D02*
Y0018445D01*
X0006375Y0017805D02*
Y0017375D01*
X0005375Y0017805D02*
Y0017375D01*
X0007500Y0015625D02*
X0007060D01*
X0005380Y0014500D02*
X0004875D01*
X0006375Y0012805D02*
Y0012375D01*
X0005375Y0012805D02*
Y0012375D01*
X0007500Y0011125D02*
X0007060D01*
X0005380Y0010000D02*
X0004875D01*
X0006375Y0008305D02*
Y0007875D01*
X0005375Y0008305D02*
Y0007875D01*
X0044930Y0007625D02*
X0044500D01*
X0037930D02*
X0037500D01*
X0046625Y0008125D02*
Y0007620D01*
X0039625Y0008125D02*
Y0007620D01*
X0047750Y0007750D02*
Y0007310D01*
X0040750Y0007750D02*
Y0007310D01*
X0007500Y0007125D02*
X0007060D01*
X0005380Y0006000D02*
X0004875D01*
X0006375Y0004305D02*
Y0003875D01*
X0005375Y0004305D02*
Y0003875D01*
X0004500Y0004315D02*
Y0003875D01*
X0048475Y0002225D02*
X0047875D01*
X0041475D02*
X0040875D01*
X0032875Y0001625D02*
X0032275D01*
X0003375Y0008850D02*
X0002650D01*
X0002500Y0009000D01*
X0001500D01*
Y0013000D02*
X0002500D01*
X0002650Y0013150D01*
X0003375D01*
X0042875Y0015690D02*
X0043185D01*
X0043250Y0015625D01*
X0001500Y0018000D02*
X0002500D01*
X0002650Y0018150D01*
X0003375D01*
X0031750Y0018875D02*
X0031875Y0018750D01*
Y0018435D01*
X0006350Y0022375D02*
Y0021775D01*
X0006375Y0021750D01*
X0008500Y0027250D02*
Y0027625D01*
X0008670Y0027795D01*
X0008750D01*
X0009000Y0027250D02*
Y0027625D01*
X0008830Y0027795D01*
X0008750D01*
X0009000Y0030625D02*
Y0031125D01*
X0008920Y0031205D01*
X0008750D01*
X0008500Y0030625D02*
Y0031125D01*
X0008580Y0031205D01*
X0008750D01*
X0008455Y0032250D02*
Y0032330D01*
X0008625Y0032500D01*
X0009000D01*
X0008455Y0033750D02*
Y0033170D01*
X0008500Y0033125D01*
X0031750Y0034375D02*
X0031875Y0034250D01*
Y0033935D01*
X0009125Y0035875D02*
X0008625D01*
X0008580Y0035920D01*
Y0036125D01*
X0009125Y0037375D02*
X0008625D01*
X0008580Y0037420D01*
Y0037625D01*
X0034125Y0037375D02*
X0033750D01*
X0033580Y0037545D01*
Y0037625D01*
X0043500Y0037375D02*
X0044000D01*
X0044080Y0037455D01*
Y0037625D01*
X0033580D02*
Y0037705D01*
X0033750Y0037875D01*
X0034125D01*
X0044080Y0037625D02*
Y0037795D01*
X0044000Y0037875D01*
X0043500D01*
X0040750Y0006690D02*
Y0006500D01*
X0040500Y0006250D01*
X0007250Y0004305D02*
Y0003875D01*
X0008000Y0019065D02*
X0007990Y0019055D01*
X0007250D01*
X0056500Y0024875D02*
X0055975D01*
X0006440Y0007125D02*
X0006000D01*
X0007250Y0008305D02*
Y0007875D01*
X0006440Y0011125D02*
X0006000D01*
X0031125Y0017805D02*
X0030445D01*
X0030250Y0018000D01*
Y0019375D01*
X0030500Y0019625D01*
X0031375D01*
X0031695Y0019945D01*
Y0020500D01*
X0036350Y0001625D02*
Y0002025D01*
X0036295Y0002080D01*
Y0002625D01*
X0007110Y0023625D02*
Y0022415D01*
X0007150Y0022375D01*
X0043350Y0001625D02*
Y0002025D01*
X0043295Y0002080D01*
Y0002625D01*
X0054000Y0011500D02*
X0054600D01*
X0007250Y0012805D02*
Y0012375D01*
X0006440Y0015625D02*
X0006000D01*
X0008000Y0014065D02*
X0007990Y0014055D01*
X0007250D01*
Y0017805D02*
Y0017375D01*
X0006440Y0020625D02*
X0006000D01*
X0054600Y0011500D02*
X0054000D01*
X0031875Y0033315D02*
X0032565D01*
X0032755Y0033505D01*
Y0034125D01*
X0035000Y0037775D02*
Y0038375D01*
X0034875Y0038500D01*
X0032500D01*
Y0039500D01*
X0045500Y0004250D02*
Y0003375D01*
X0045750Y0003125D01*
X0047500D01*
X0047775Y0003400D01*
X0048375D01*
X0045375Y0037775D02*
Y0038375D01*
X0045250Y0038500D01*
X0043000D01*
X0063750Y0028420D02*
Y0027875D01*
X0055765Y0030625D02*
X0054875D01*
X0055400Y0011500D02*
X0055455Y0011445D01*
Y0010375D01*
X0008000Y0005565D02*
X0007260D01*
X0007250Y0005555D01*
X0008000Y0009565D02*
X0007990Y0009555D01*
X0007250D01*
X0034625Y0018690D02*
Y0017945D01*
X0038500Y0004250D02*
Y0003375D01*
X0038750Y0003125D01*
X0040500D01*
X0040775Y0003400D01*
X0041375D01*
X0054295Y0010375D02*
Y0007205D01*
X0055250Y0006250D01*
X0038500Y0001500D02*
X0037750D01*
X0037625Y0001625D01*
X0037150D01*
X0032235Y0002625D02*
Y0003485D01*
X0032220Y0003500D01*
X0031875Y0033315D02*
X0031865Y0033305D01*
X0031125D01*
X0006370Y0014125D02*
Y0013450D01*
X0006375Y0013445D01*
X0006370Y0009625D02*
Y0008950D01*
X0006375Y0008945D01*
X0031695Y0020500D02*
Y0026680D01*
X0031125Y0027250D01*
Y0033305D01*
X0006370Y0019125D02*
Y0018450D01*
X0006375Y0018445D01*
X0006370Y0005625D02*
Y0004950D01*
X0006375Y0004945D01*
X0055765Y0030625D02*
X0054875D01*
X0032250Y0008500D02*
X0029500D01*
X0007250Y0018445D02*
X0006375D01*
X0031875Y0017815D02*
X0032565D01*
X0032755Y0018005D01*
Y0018625D01*
X0046500Y0001500D02*
Y0002250D01*
X0046125Y0002625D01*
X0044455D01*
X0045570Y0007625D02*
X0046245D01*
X0046250Y0007620D01*
X0007250Y0014695D02*
X0007990D01*
X0008000Y0014685D01*
Y0006185D02*
Y0006875D01*
X0009375Y0008250D01*
Y0016375D01*
X0010500Y0017500D01*
X0005380Y0014125D02*
X0004250D01*
X0003945Y0014430D01*
Y0015000D01*
X0007250Y0008945D02*
X0006375D01*
X0045000Y0036500D02*
X0043775D01*
X0043750Y0036475D01*
X0039500Y0004250D02*
Y0005125D01*
X0039305Y0005320D01*
Y0005750D01*
X0004500Y0004935D02*
Y0005750D01*
X0004250Y0006000D01*
X0003945D01*
X0005380Y0019125D02*
X0004250D01*
X0003945Y0019430D01*
Y0020000D01*
X0005380Y0009625D02*
X0004625D01*
X0004250Y0010000D01*
X0003945D01*
X0005380Y0005625D02*
Y0004950D01*
X0005375Y0004945D01*
X0032420Y0037625D02*
Y0038420D01*
X0032500Y0038500D01*
Y0039500D01*
X0007250Y0004945D02*
X0006375D01*
X0045500Y0001500D02*
X0044750D01*
X0044625Y0001625D01*
X0044150D01*
X0037930Y0005750D02*
X0037500D01*
X0039500Y0001500D02*
Y0002250D01*
X0039125Y0002625D01*
X0037455D01*
X0038570Y0007625D02*
X0039245D01*
X0039250Y0007620D01*
X0035375Y0018680D02*
X0036055D01*
X0036125Y0018750D01*
X0037000D01*
X0008500Y0032250D02*
Y0032000D01*
X0009000D01*
X0037930Y0006625D02*
Y0005750D01*
X0007250Y0019695D02*
X0007990D01*
X0008000Y0019685D01*
X0052000Y0039500D02*
Y0038375D01*
X0053000Y0037375D01*
Y0032500D01*
X0054000Y0031500D01*
Y0030750D01*
X0007250Y0013445D02*
X0006375D01*
X0006390Y0025750D02*
Y0024875D01*
X0046500Y0004250D02*
Y0005125D01*
X0046305Y0005320D01*
Y0005750D01*
X0035375Y0034820D02*
X0035365Y0034810D01*
X0034625D01*
X0008750Y0036375D02*
X0009125D01*
X0008000Y0010185D02*
Y0011000D01*
X0008750Y0011750D01*
Y0016750D01*
X0010500Y0018500D01*
X0007250Y0014055D02*
Y0013445D01*
X0049000Y0031500D02*
Y0030320D01*
X0003305Y0015000D02*
X0001500D01*
X0031875Y0017815D02*
X0031865Y0017805D01*
X0031125D01*
X0035375Y0019320D02*
X0035365Y0019310D01*
X0034625D01*
X0046000Y0018500D02*
X0045000D01*
X0044920Y0018580D01*
X0042500D01*
X0046305Y0005750D02*
X0045570D01*
X0005380Y0019125D02*
Y0018450D01*
X0005375Y0018445D01*
X0044930Y0005750D02*
X0044500D01*
X0034625Y0034190D02*
Y0033445D01*
X0007250Y0010195D02*
X0007990D01*
X0008000Y0010185D01*
X0007250Y0006195D02*
X0007260Y0006185D01*
X0008000D01*
X0007250Y0009555D02*
Y0008945D01*
X0003305Y0020000D02*
X0001500D01*
X0057350Y0030625D02*
X0056485D01*
X0052000Y0031500D02*
Y0030320D01*
X0035375Y0034180D02*
X0036055D01*
X0036125Y0034250D01*
X0037000D01*
X0005380Y0014125D02*
X0005375Y0014120D01*
Y0013445D01*
X0031055Y0020500D02*
X0029500D01*
X0044000Y0039500D02*
X0045350D01*
X0045375Y0039475D01*
X0031515Y0002625D02*
X0031475Y0002585D01*
Y0001625D01*
X0005375Y0004945D02*
X0005365Y0004935D01*
X0004500D01*
X0007250Y0019055D02*
Y0018445D01*
Y0005555D02*
Y0004945D01*
X0050000Y0031500D02*
Y0030320D01*
X0054000Y0030750D02*
Y0030320D01*
X0053000D02*
Y0031500D01*
X0051000Y0033500D01*
Y0036500D01*
X0032250Y0009500D02*
X0029500D01*
X0038570Y0007625D02*
Y0006625D01*
X0046000Y0031500D02*
Y0030320D01*
X0003305Y0010000D02*
X0001500D01*
X0045000Y0031500D02*
Y0030320D01*
X0045570Y0007625D02*
Y0006625D01*
X0010500Y0019500D02*
X0008000Y0017000D01*
Y0014685D01*
X0010500Y0020500D02*
X0009685Y0019685D01*
X0008000D01*
X0005380Y0009625D02*
X0005375Y0009620D01*
Y0008945D01*
X0006390Y0026625D02*
Y0025750D01*
X0047000Y0031500D02*
Y0030320D01*
X0051000Y0031500D02*
Y0030320D01*
X0003305Y0006000D02*
X0001500D01*
X0048000Y0031500D02*
Y0030320D01*
X0042500Y0017420D02*
Y0016560D01*
X0044930Y0006625D02*
Y0005750D01*
X0042125Y0015690D02*
Y0014765D01*
X0042140Y0014750D01*
X0033500Y0039500D02*
X0034975D01*
X0035000Y0039475D01*
X0039305Y0005750D02*
X0038570D01*
G54D55*
G01X0044000Y0022000D02*
X0042375Y0023625D01*
Y0035125D01*
X0042920Y0035670D01*
Y0037625D01*
X0048375Y0005100D02*
Y0006250D01*
X0048500Y0006375D01*
Y0008625D01*
X0047125Y0010000D01*
Y0011750D01*
X0047375Y0012000D01*
X0048000D01*
X0045000Y0026500D02*
X0043000Y0028500D01*
Y0033750D01*
X0045000Y0035750D01*
Y0036500D01*
X0041375Y0005100D02*
X0042025D01*
X0042250Y0004875D01*
Y0002000D01*
X0041775Y0001525D01*
X0040875D01*
X0043000Y0038500D02*
Y0039500D01*
X0048000Y0013000D02*
X0047000Y0014000D01*
Y0021000D01*
X0045000Y0023000D01*
X0044000D01*
X0048000Y0021000D02*
Y0015500D01*
X0049000Y0014500D01*
Y0011375D01*
X0048625Y0011000D01*
X0048000D01*
X0050500Y0016000D02*
X0049250Y0017250D01*
Y0026750D01*
X0048125Y0027875D01*
X0045125D01*
X0044000Y0029000D01*
Y0033250D01*
X0035250Y0036500D02*
X0031500D01*
X0027500Y0040500D01*
X0005250D01*
X0004500Y0039750D01*
X0046000Y0012000D02*
X0045375D01*
X0045125Y0011750D01*
Y0010125D01*
X0041375Y0006375D01*
Y0005100D01*
X0048375D02*
X0049025D01*
X0049250Y0004875D01*
Y0002000D01*
X0048775Y0001525D01*
X0047875D01*
X0037000Y0017750D02*
X0039750D01*
X0041750Y0019750D01*
Y0040125D01*
X0042125Y0040500D01*
X0043750D01*
X0044000Y0040250D01*
Y0039500D01*
X0004500Y0038750D02*
X0005585Y0037665D01*
X0006250D01*
X0042920Y0037625D02*
Y0038420D01*
X0043000Y0038500D01*
Y0039500D01*
X0048000D02*
Y0036500D01*
X0007500Y0039500D02*
X0006625D01*
X0006375Y0039750D01*
X0005500D01*
X0006250Y0037665D02*
X0007380D01*
X0007420Y0037625D01*
X0048000Y0022000D02*
X0047000D01*
X0045000Y0024000D01*
Y0026500D01*
X0047875Y0001525D02*
X0046525D01*
X0046500Y0001500D01*
X0055275Y0024875D02*
X0055250Y0024850D01*
Y0023000D01*
X0040875Y0001525D02*
X0039525D01*
X0039500Y0001500D01*
X0049000Y0039500D02*
Y0037500D01*
X0050000Y0036500D01*
X0047000Y0039500D02*
Y0036500D01*
X0044000Y0012000D02*
X0043000D01*
X0042500Y0011500D01*
Y0010500D01*
X0041500Y0009500D01*
X0035000D01*
X0030000Y0014500D01*
X0028500D01*
X0026000Y0017000D01*
Y0031500D01*
X0024000Y0033500D01*
X0010000D01*
X0008750Y0034750D01*
X0006500D01*
X0006250Y0034500D01*
Y0033790D01*
G54D56*
G01X0056250Y0039750D02*
X0057750D01*
X0058150Y0040150D01*
X0059875D01*
Y0000850D02*
X0058150D01*
X0057750Y0001250D01*
X0056250D01*
X0052500Y0016000D02*
X0054000Y0017500D01*
Y0021750D01*
X0055250Y0023000D01*
X0054875Y0030625D02*
Y0028500D01*
X0054125Y0027750D01*
X0051750D01*
X0050500Y0026500D01*
Y0022000D02*
X0051750Y0020750D01*
X0054000D01*
Y0021750D01*
X0055250Y0023000D01*
X0054875Y0030625D02*
Y0032375D01*
X0055250Y0032750D01*
X0056250Y0003250D02*
X0057750D01*
X0058125Y0003625D01*
Y0005375D01*
X0057250Y0006250D01*
X0050500Y0007500D02*
X0051750Y0006250D01*
X0055250D01*
X0050500Y0012000D02*
Y0009875D01*
X0049500Y0008875D01*
Y0006625D01*
X0052000Y0004125D01*
Y0001500D01*
X0059875Y0037350D02*
X0058150D01*
X0057750Y0037750D01*
X0056250D01*
X0059875Y0003650D02*
X0058150D01*
X0058125Y0003625D01*
Y0005375D01*
X0057250Y0006250D01*
X0055250Y0023000D02*
X0057000D01*
X0057750Y0023750D01*
Y0026125D01*
X0065000Y0030500D02*
Y0034250D01*
X0061900Y0037350D01*
X0059875D01*
Y0035150D01*
X0060275Y0034750D01*
X0057250Y0032750D02*
X0058250Y0033750D01*
X0059275D01*
X0060275Y0034750D01*
Y0008250D02*
X0062025Y0010000D01*
X0064000D01*
X0065000Y0011000D01*
Y0028500D01*
X0060275Y0008250D02*
X0059250D01*
X0057250Y0006250D01*
X0062250D02*
X0059475D01*
X0050500Y0016000D02*
Y0012000D01*
X0062250Y0032750D02*
X0059475D01*
G54D57*
G01X0054000Y0029680D02*
Y0029250D01*
X0050000Y0029680D02*
Y0029250D01*
X0049000Y0029680D02*
Y0029250D01*
X0050000D02*
X0049000D01*
X0050000D02*
X0050375Y0028875D01*
X0053625D01*
X0054000Y0029250D01*
X0027000Y0005500D02*
Y0001500D01*
X0028000Y0000500D01*
X0049250D01*
X0049750Y0001000D01*
Y0005250D01*
X0049000Y0006000D01*
Y0010375D01*
X0049625Y0011000D01*
Y0015625D01*
X0048750Y0016500D01*
Y0026500D01*
X0047875Y0027375D01*
X0044875D01*
X0043500Y0028750D01*
Y0033500D01*
X0043750Y0033750D01*
X0047250D01*
X0048500Y0032500D01*
Y0029500D01*
X0048750Y0029250D01*
X0049000D01*
X0047750Y0006690D02*
X0048065D01*
X0048125Y0006750D01*
Y0008125D01*
X0046750Y0009500D01*
Y0013250D01*
X0046000Y0014000D01*
Y0015500D01*
X0007250Y0029500D02*
X0006375Y0028625D01*
Y0027500D01*
X0006750Y0027125D01*
Y0024500D02*
X0006390Y0024140D01*
Y0023625D01*
X0033745Y0018625D02*
X0034125D01*
X0034190Y0018690D01*
X0034625D01*
X0033745Y0034125D02*
X0034125D01*
X0034190Y0034190D01*
X0034625D01*
X0046305Y0005750D02*
Y0006195D01*
X0046250Y0006250D01*
Y0006630D01*
X0034625Y0019310D02*
X0034310D01*
X0034000Y0019000D01*
X0033375D01*
X0033250Y0019125D01*
Y0019250D01*
X0033125Y0019375D01*
X0032755D01*
X0007250Y0019695D02*
X0006945D01*
X0006750Y0019500D01*
X0006000D01*
X0005875Y0019625D01*
Y0019750D01*
X0005750Y0019875D01*
X0005380D01*
X0006390Y0026625D02*
Y0027110D01*
X0005500Y0028000D01*
Y0028750D01*
X0007250Y0006195D02*
X0006820D01*
X0006625Y0006000D01*
X0006000D01*
X0005875Y0006125D01*
Y0006250D01*
X0005750Y0006375D01*
X0005380D01*
X0034625Y0034810D02*
X0034310D01*
X0034000Y0034500D01*
X0033375D01*
X0033250Y0034625D01*
Y0034750D01*
X0033125Y0034875D01*
X0032755D01*
X0007250Y0014695D02*
X0006820D01*
X0006625Y0014500D01*
X0006000D01*
X0005875Y0014625D01*
Y0014750D01*
X0005750Y0014875D01*
X0005380D01*
X0007250Y0010195D02*
X0006820D01*
X0006625Y0010000D01*
X0006000D01*
X0005875Y0010125D01*
Y0010250D01*
X0005750Y0010375D01*
X0005380D01*
X0039305Y0005750D02*
Y0006195D01*
X0039250Y0006250D01*
Y0006630D01*
X0006390Y0023625D02*
X0006000D01*
X0005875Y0023750D01*
Y0027125D01*
X0004625Y0028375D01*
X0039945Y0005750D02*
Y0006055D01*
X0039625Y0006375D01*
Y0007000D01*
X0039750Y0007125D01*
X0039875D01*
X0040000Y0007250D01*
Y0007620D01*
Y0008375D01*
X0039875Y0008500D01*
X0038570D01*
X0046000Y0029680D02*
Y0029250D01*
X0048000Y0029680D02*
Y0029250D01*
X0052000Y0029680D02*
Y0029250D01*
X0047000Y0029680D02*
Y0029250D01*
X0046945Y0005750D02*
Y0006055D01*
X0046625Y0006375D01*
Y0007000D01*
X0046750Y0007125D01*
X0046875D01*
X0047000Y0007250D01*
Y0007620D01*
X0028500Y0002500D02*
X0029000Y0003000D01*
Y0004250D01*
X0029250Y0004500D01*
X0033750D01*
X0034750Y0005500D01*
Y0006000D01*
X0037250Y0008500D01*
X0037930D01*
X0053000Y0029680D02*
Y0029250D01*
X0051000Y0029680D02*
Y0029250D01*
X0047000Y0007620D02*
Y0008375D01*
X0046875Y0008500D01*
X0045570D01*
X0006390Y0023625D02*
X0006000D01*
X0005875Y0023750D01*
Y0027125D01*
X0004625Y0028375D01*
Y0029250D01*
X0004875Y0029500D01*
X0007250D01*
X0027500Y0002500D02*
X0029250Y0000750D01*
X0042000D01*
X0042750Y0001500D01*
Y0006875D01*
X0044375Y0008500D01*
X0044930D01*
X0028500Y0003500D02*
Y0004375D01*
X0028875Y0004750D01*
X0033625D01*
X0034500Y0005625D01*
Y0007500D01*
X0036000Y0009000D01*
X0043000D01*
X0044625Y0010625D01*
Y0014375D01*
X0044250Y0014750D01*
X0042860D01*
X0045000Y0029680D02*
Y0029250D01*
G54D58*
G01X0029500Y0003500D02*
X0034250D01*
X0036500Y0005750D01*
X0037500D01*
X0006000Y0007125D02*
X0001750D01*
X0001500Y0007375D01*
Y0008000D01*
X0006000Y0011125D02*
X0000875D01*
X0000500Y0010750D01*
Y0008250D01*
X0000750Y0008000D01*
X0001500D01*
X0006000Y0015625D02*
X0005750Y0015875D01*
X0000875D01*
X0000500Y0015500D01*
Y0014250D01*
X0000750Y0014000D01*
X0001500D01*
X0006000Y0020625D02*
X0005750Y0020875D01*
X0000875D01*
X0000500Y0020500D01*
Y0019250D01*
X0000750Y0019000D01*
X0001500D01*
X0033690Y0035625D02*
X0027625D01*
X0027000Y0035000D01*
X0028000Y0034000D02*
Y0023875D01*
X0028560Y0023315D01*
X0031190D01*
X0007420Y0036125D02*
X0008170Y0036875D01*
X0012125D01*
X0014000Y0035000D01*
X0027000D01*
X0027625Y0035625D01*
X0033690D01*
X0033815Y0023315D02*
Y0020125D01*
X0032220Y0003500D02*
X0029500D01*
Y0002500D01*
G54D61*
G01X0006750Y0027125D02*
Y0024500D01*
G54D10*
X0062250Y0008250D03*
Y0034750D03*
G54D11*
Y0006250D03*
Y0032750D03*
G54D12*
X0051000Y0001500D03*
X0053000Y0039500D03*
X0045500Y0001500D03*
X0038500D03*
X0044000Y0039500D03*
X0033500D03*
X0048000D03*
X0049000D03*
X0050000D03*
X0008500D03*
G54D13*
X0052000Y0001500D03*
Y0039500D03*
X0046500Y0001500D03*
X0039500D03*
X0043000Y0039500D03*
X0032500D03*
X0047000D03*
X0007500D03*
G54D14*
X0005500Y0039750D03*
X0004500Y0038750D03*
X0005500D03*
X0044000Y0012000D03*
Y0013000D03*
X0065000Y0029500D03*
Y0030500D03*
X0048000Y0031500D03*
X0049000D03*
X0047000D03*
X0046000D03*
X0050000D03*
X0051000D03*
X0052000D03*
Y0036500D03*
X0051000D03*
X0050000D03*
X0049000D03*
X0048000D03*
X0047000D03*
X0046000D03*
X0045000D03*
X0029500Y0024100D03*
Y0025100D03*
Y0026100D03*
Y0027100D03*
Y0028100D03*
Y0029100D03*
Y0030100D03*
Y0031100D03*
Y0032100D03*
Y0033100D03*
Y0015500D03*
Y0016500D03*
Y0017500D03*
Y0018500D03*
Y0019500D03*
Y0020500D03*
Y0021500D03*
Y0022500D03*
Y0006500D03*
Y0007500D03*
Y0008500D03*
Y0009500D03*
Y0010500D03*
Y0011500D03*
Y0012500D03*
Y0013500D03*
Y0003500D03*
Y0002500D03*
X0028500Y0003500D03*
Y0002500D03*
X0027500Y0003500D03*
Y0002500D03*
X0026500Y0003500D03*
Y0002500D03*
X0025500Y0003500D03*
Y0002500D03*
X0024500Y0003500D03*
Y0002500D03*
X0023500Y0003500D03*
Y0002500D03*
X0022500Y0003500D03*
Y0002500D03*
X0021500Y0003500D03*
Y0002500D03*
X0020500Y0003500D03*
Y0002500D03*
X0019500Y0003500D03*
Y0002500D03*
X0018500Y0003500D03*
Y0002500D03*
X0017500Y0003500D03*
Y0002500D03*
X0016500Y0003500D03*
Y0002500D03*
X0015500Y0003500D03*
Y0002500D03*
X0014500Y0003500D03*
Y0002500D03*
X0013500Y0003500D03*
Y0002500D03*
X0012500Y0003500D03*
Y0002500D03*
X0010500Y0029500D03*
Y0028500D03*
Y0027500D03*
Y0026500D03*
Y0025500D03*
Y0024500D03*
Y0023500D03*
Y0022500D03*
Y0020500D03*
Y0019500D03*
Y0018500D03*
Y0017500D03*
Y0016500D03*
Y0015500D03*
Y0014500D03*
Y0013500D03*
Y0011500D03*
Y0010500D03*
Y0009500D03*
Y0008500D03*
Y0007500D03*
Y0006500D03*
Y0005500D03*
Y0004500D03*
X0021500Y0015450D03*
Y0014450D03*
X0020500Y0015450D03*
Y0014450D03*
X0019500Y0015450D03*
Y0014450D03*
G54D15*
X0004500Y0039750D03*
X0044000Y0011000D03*
X0065000Y0028500D03*
X0045000Y0031500D03*
G54D16*
X0063250Y0018000D03*
Y0015000D03*
X0055250D03*
Y0019000D03*
Y0023000D03*
X0046000Y0018500D03*
G54D17*
X0063250Y0020000D03*
X0046000Y0015500D03*
G54D18*
X0052500Y0018000D03*
Y0016000D03*
X0051500Y0017000D03*
Y0015000D03*
X0050500Y0018000D03*
Y0016000D03*
X0057250Y0008250D03*
Y0006250D03*
X0056250Y0007250D03*
Y0005250D03*
X0055250Y0008250D03*
Y0006250D03*
X0057250Y0034750D03*
Y0032750D03*
X0056250Y0033750D03*
Y0031750D03*
X0055250Y0034750D03*
Y0032750D03*
X0047000Y0026500D03*
X0057750Y0011875D03*
X0063750D03*
X0052500Y0012000D03*
Y0022000D03*
X0057750Y0026125D03*
X0063750D03*
X0052500Y0007500D03*
X0056250Y0001250D03*
X0052500Y0026500D03*
X0056250Y0039750D03*
G54D19*
X0045000Y0026500D03*
X0050500Y0012000D03*
Y0022000D03*
Y0007500D03*
X0056250Y0003250D03*
X0050500Y0026500D03*
X0056250Y0037750D03*
G54D20*
X0055275Y0024875D03*
X0055975D03*
G54D21*
X0008750Y0028955D03*
Y0027795D03*
Y0030045D03*
Y0031205D03*
X0063750Y0029580D03*
Y0028420D03*
G54D22*
X0042920Y0037625D03*
X0044080D03*
X0032420D03*
X0033580D03*
X0007295Y0033750D03*
X0008455D03*
X0007295Y0032250D03*
X0008455D03*
X0007420Y0037625D03*
X0008580D03*
X0007420Y0036125D03*
X0008580D03*
G54D23*
X0042860Y0014750D03*
X0042140D03*
X0006390Y0024875D03*
X0007110D03*
X0006390Y0025750D03*
X0007110D03*
X0032235Y0002625D03*
X0031515D03*
X0006390Y0023625D03*
X0007110D03*
X0055765Y0030625D03*
X0056485D03*
X0006390Y0026625D03*
X0007110D03*
G54D24*
X0043750Y0036475D03*
Y0035775D03*
X0040875Y0001525D03*
Y0002225D03*
X0047875Y0001525D03*
Y0002225D03*
X0003375Y0008150D03*
Y0008850D03*
Y0013850D03*
Y0013150D03*
Y0018850D03*
Y0018150D03*
G54D25*
X0006440Y0007125D03*
X0007060D03*
X0033815Y0020125D03*
X0034435D03*
X0033690Y0035625D03*
X0034310D03*
X0006440Y0011125D03*
X0007060D03*
X0006440Y0015625D03*
X0007060D03*
X0006440Y0020625D03*
X0007060D03*
G54D26*
X0004500Y0004935D03*
Y0004315D03*
X0008000Y0005565D03*
Y0006185D03*
X0031875Y0017815D03*
Y0018435D03*
X0034625Y0018690D03*
Y0019310D03*
X0040750Y0006690D03*
Y0007310D03*
X0034625Y0034190D03*
Y0034810D03*
X0047750Y0006690D03*
Y0007310D03*
X0031875Y0033315D03*
Y0033935D03*
X0008000Y0009565D03*
Y0010185D03*
Y0014065D03*
Y0014685D03*
Y0019065D03*
Y0019685D03*
G54D27*
X0006250Y0032210D03*
Y0033790D03*
Y0037665D03*
Y0036085D03*
G54D28*
X0045375Y0037775D03*
Y0039475D03*
X0041375Y0005100D03*
Y0003400D03*
X0048375Y0005100D03*
Y0003400D03*
X0035000Y0037775D03*
Y0039475D03*
G54D29*
X0048000Y0022000D03*
Y0023000D03*
X0046000Y0012000D03*
Y0013000D03*
X0044000Y0022000D03*
Y0023000D03*
X0048000Y0012000D03*
Y0013000D03*
X0059475Y0006250D03*
X0060275Y0008250D03*
X0059475Y0032750D03*
X0060275Y0034750D03*
G54D30*
X0038625Y0022750D03*
Y0012750D03*
Y0038250D03*
Y0028250D03*
X0002875Y0024500D03*
Y0034500D03*
G54D31*
X0001500Y0009000D03*
Y0010000D03*
Y0006000D03*
Y0018000D03*
Y0019000D03*
Y0020000D03*
Y0013000D03*
Y0014000D03*
Y0015000D03*
X0032250Y0009500D03*
Y0008500D03*
Y0007500D03*
Y0006500D03*
Y0005500D03*
G54D32*
X0001500Y0008000D03*
Y0005000D03*
Y0017000D03*
Y0012000D03*
X0032250Y0010500D03*
G54D33*
X0048000Y0021000D03*
X0046000Y0011000D03*
X0044000Y0021000D03*
X0048000Y0011000D03*
G54D34*
X0062250Y0028580D03*
Y0029420D03*
G54D35*
X0037150Y0001625D03*
X0036350D03*
X0044150D03*
X0043350D03*
X0032275D03*
X0031475D03*
X0006350Y0022375D03*
X0007150D03*
X0054600Y0011500D03*
X0055400D03*
X0058150Y0030625D03*
X0057350D03*
G54D36*
X0064000Y0002000D03*
Y0039000D03*
X0002000D03*
Y0002000D03*
G54D37*
X0042125Y0015690D03*
X0042875D03*
X0042500Y0016560D03*
G54D38*
X0037000Y0017750D03*
Y0016750D03*
Y0033250D03*
Y0032250D03*
G54D39*
Y0018750D03*
Y0034250D03*
G54D40*
X0038500Y0004250D03*
X0037500D03*
X0045500D03*
X0044500D03*
G54D41*
X0039500D03*
X0046500D03*
G54D42*
X0037455Y0002625D03*
X0036295D03*
X0044455D03*
X0043295D03*
X0054295Y0010375D03*
X0055455D03*
G54D43*
X0042500Y0018580D03*
Y0017420D03*
G54D44*
X0003305Y0006000D03*
X0003945D03*
X0037930Y0007625D03*
X0038570D03*
X0037930Y0006625D03*
X0038570D03*
X0037930Y0008500D03*
X0038570D03*
X0039945Y0005750D03*
X0039305D03*
X0037930D03*
X0038570D03*
X0044930Y0007625D03*
X0045570D03*
X0044930Y0006625D03*
X0045570D03*
X0044930Y0008500D03*
X0045570D03*
X0031055Y0020500D03*
X0031695D03*
X0046945Y0005750D03*
X0046305D03*
X0044930D03*
X0045570D03*
X0003305Y0010000D03*
X0003945D03*
X0003305Y0015000D03*
X0003945D03*
X0003305Y0020000D03*
X0003945D03*
G54D45*
X0007250Y0004305D03*
Y0004945D03*
Y0005555D03*
Y0006195D03*
X0006375Y0004305D03*
Y0004945D03*
X0005375D03*
Y0004305D03*
X0031125Y0017805D03*
Y0018445D03*
X0034625Y0017945D03*
Y0017305D03*
X0035375Y0019320D03*
Y0018680D03*
X0052000Y0029680D03*
Y0030320D03*
X0051000Y0029680D03*
Y0030320D03*
X0048000Y0029680D03*
Y0030320D03*
X0047000Y0029680D03*
Y0030320D03*
X0046000Y0029680D03*
Y0030320D03*
X0045000Y0029680D03*
Y0030320D03*
X0053000Y0029680D03*
Y0030320D03*
X0054000Y0029680D03*
Y0030320D03*
X0049000Y0029680D03*
Y0030320D03*
X0050000Y0029680D03*
Y0030320D03*
X0034625Y0033445D03*
Y0032805D03*
X0031125Y0033305D03*
Y0033945D03*
X0035375Y0034820D03*
Y0034180D03*
X0007250Y0008305D03*
Y0008945D03*
Y0009555D03*
Y0010195D03*
X0006375Y0008305D03*
Y0008945D03*
X0005375D03*
Y0008305D03*
X0007250Y0012805D03*
Y0013445D03*
Y0014055D03*
Y0014695D03*
X0006375Y0012805D03*
Y0013445D03*
X0005375D03*
Y0012805D03*
X0007250Y0017805D03*
Y0018445D03*
Y0019055D03*
Y0019695D03*
X0006375Y0017805D03*
Y0018445D03*
X0005375D03*
Y0017805D03*
G54D46*
X0032500Y0016420D03*
Y0014080D03*
X0034500Y0016420D03*
Y0014080D03*
X0032500Y0031920D03*
Y0029580D03*
X0034500Y0031920D03*
Y0029580D03*
G54D47*
X0059875Y0003650D03*
Y0000850D03*
Y0037350D03*
Y0040150D03*
G54D48*
X0005500Y0028750D03*
X0007250Y0029500D03*
X0005500Y0030250D03*
X0007250Y0031000D03*
G54D49*
Y0028000D03*
G54D50*
X0005380Y0006375D03*
Y0006000D03*
Y0005625D03*
X0006370D03*
Y0006375D03*
X0032755Y0019375D03*
Y0019000D03*
Y0018625D03*
X0033745D03*
Y0019375D03*
X0032755Y0034875D03*
Y0034500D03*
Y0034125D03*
X0033745D03*
Y0034875D03*
X0005380Y0010375D03*
Y0010000D03*
Y0009625D03*
X0006370D03*
Y0010375D03*
X0005380Y0014875D03*
Y0014500D03*
Y0014125D03*
X0006370D03*
Y0014875D03*
X0005380Y0019875D03*
Y0019500D03*
Y0019125D03*
X0006370D03*
Y0019875D03*
G54D51*
X0040000Y0007620D03*
X0039625D03*
X0039250D03*
Y0006630D03*
X0040000D03*
X0047000Y0007620D03*
X0046625D03*
X0046250D03*
Y0006630D03*
X0047000D03*
G54D52*
X0034875Y0020125D03*
X0007500Y0011125D03*
X0035000Y0013500D03*
X0034500D03*
X0034000D03*
X0032000D03*
X0032500D03*
X0033000D03*
X0033500D03*
X0035000Y0029000D03*
X0034500D03*
X0034000D03*
X0033000D03*
X0033500D03*
X0032500D03*
X0032000D03*
X0043250Y0015625D03*
X0037500Y0005750D03*
Y0007625D03*
X0032875Y0001625D03*
X0044500Y0005750D03*
X0039625Y0008125D03*
X0046625D03*
X0044500Y0007625D03*
X0040750Y0007750D03*
X0047750D03*
X0047500Y0006250D03*
X0040500D03*
X0031190Y0023315D03*
X0033815D03*
X0054000Y0030750D03*
X0043500Y0037375D03*
Y0037875D03*
X0043750Y0035250D03*
X0058150Y0029975D03*
X0009125Y0037375D03*
Y0035875D03*
X0008500Y0033125D03*
X0009000Y0032000D03*
Y0032500D03*
Y0033750D03*
X0009125Y0036375D03*
Y0037875D03*
X0048475Y0002225D03*
X0041475D03*
X0034125Y0037375D03*
Y0037875D03*
X0034750Y0035625D03*
X0007750Y0035500D03*
X0007250D03*
X0006250D03*
X0005750D03*
X0006750D03*
X0008500Y0030625D03*
X0009000D03*
Y0027250D03*
X0008500D03*
X0007625Y0025750D03*
Y0026625D03*
Y0024875D03*
X0006375Y0021750D03*
X0006000Y0011125D03*
X0004875Y0006000D03*
X0006000Y0007125D03*
X0007500D03*
X0007250Y0003875D03*
X0006375D03*
X0005375D03*
X0004500D03*
X0054000Y0029250D03*
X0053000D03*
X0052000D03*
X0051000D03*
X0050000D03*
X0049000D03*
X0048000D03*
X0047000D03*
X0046000D03*
X0045000D03*
X0031125Y0018875D03*
X0031750D03*
X0032250Y0019000D03*
X0031125Y0034375D03*
X0031750D03*
X0032250Y0034500D03*
X0056500Y0024875D03*
X0063750Y0027875D03*
X0007250Y0007875D03*
X0004875Y0010000D03*
X0006375Y0007875D03*
X0005375D03*
X0007250Y0012375D03*
X0006375D03*
X0005375D03*
X0006000Y0015625D03*
X0007500D03*
X0004875Y0014500D03*
X0007500Y0020625D03*
X0006000D03*
X0007250Y0017375D03*
X0006375D03*
X0005375D03*
X0004875Y0019500D03*
G54D59*
X0044000Y0033250D03*
X0035250Y0036500D03*
G54D60*
X0054000Y0011500D03*
M02*
