*
G04 Mass Parameters ***
*
G04 Image ***
*
%INC:\DOCUMENTS AND SETTINGS\JUANBALA\ESCRITORIO\ORCAD\RESPIRADOR HGGM-UC3M.SMB*%
%ICAS*%
%MOIN*%
%IPPOS*%
%ASAXBY*%
G74*%FSLAN2X34Y34*%
*
G04 Aperture Definitions ***
*
%ADD10C,0.1500*%
%ADD11R,0.1500X0.1500*%
%ADD12O,0.0800X0.1000*%
%ADD13R,0.0800X0.1000*%
%ADD14C,0.0640*%
%ADD15R,0.0640X0.0640*%
%ADD16C,0.1000*%
%ADD17R,0.1000X0.1000*%
%ADD18C,0.0880*%
%ADD19R,0.0880X0.0880*%
%ADD20R,0.0460X0.0580*%
%ADD21R,0.0720X0.0460*%
%ADD22R,0.0460X0.0720*%
%ADD23R,0.0410X0.0560*%
%ADD24R,0.0580X0.0460*%
%ADD25R,0.0380X0.0370*%
%ADD26R,0.0370X0.0380*%
%ADD27R,0.0700X0.0560*%
%ADD28R,0.0700X0.0880*%
%ADD29C,0.0760*%
%ADD30C,0.3000*%
%ADD31O,0.1000X0.0800*%
%ADD32R,0.1000X0.0800*%
%ADD33R,0.0760X0.0760*%
%ADD34R,0.1300X0.0520*%
%ADD35R,0.0500X0.0520*%
%ADD36C,0.2900*%
%ADD37R,0.0260X0.0480*%
%ADD38O,0.1200X0.0800*%
%ADD39R,0.1200X0.0800*%
%ADD40O,0.0800X0.1200*%
%ADD41R,0.0800X0.1200*%
%ADD42R,0.0450X0.0700*%
%ADD43R,0.0700X0.0450*%
%ADD44R,0.0320X0.0380*%
%ADD45R,0.0380X0.0320*%
%ADD46R,0.1330X0.0500*%
%ADD47R,0.1260X0.1000*%
%ADD48O,0.1200X0.0760*%
%ADD49R,0.1200X0.0760*%
%ADD50R,0.0480X0.0240*%
%ADD51R,0.0240X0.0480*%
%ADD52C,0.0280*%
%ADD53C,0.0100*%
%ADD54C,0.0200*%
%ADD55C,0.0400*%
%ADD56C,0.0600*%
%ADD57C,0.0120*%
%ADD58C,0.0250*%
%ADD59C,0.0500*%
%ADD60C,0.0280*%
%ADD61C,0.0080*%
%ADD62C,0.0240*%
%ADD63C,0.1620*%
%ADD64R,0.1620X0.1620*%
%ADD65O,0.0880X0.1080*%
%ADD66R,0.0880X0.1080*%
%ADD67C,0.1120*%
%ADD68R,0.1120X0.1120*%
%ADD69R,0.0540X0.0660*%
%ADD70R,0.0800X0.0540*%
%ADD71R,0.0540X0.0800*%
%ADD72R,0.0490X0.0640*%
%ADD73R,0.0660X0.0540*%
%ADD74R,0.0440X0.0430*%
%ADD75R,0.0430X0.0440*%
%ADD76R,0.0780X0.0640*%
%ADD77R,0.0800X0.0980*%
%ADD78C,0.3200*%
%ADD79O,0.1080X0.0880*%
%ADD80R,0.1080X0.0880*%
%ADD81R,0.1380X0.0600*%
%ADD82R,0.0580X0.0600*%
%ADD83C,0.3100*%
%ADD84R,0.0360X0.0580*%
%ADD85O,0.1320X0.0920*%
%ADD86R,0.1320X0.0920*%
%ADD87O,0.0920X0.1320*%
%ADD88R,0.0920X0.1320*%
%ADD89R,0.0530X0.0780*%
%ADD90R,0.0780X0.0530*%
%ADD91R,0.0400X0.0460*%
%ADD92R,0.0460X0.0400*%
%ADD93R,0.1410X0.0580*%
%ADD94R,0.1360X0.1100*%
%ADD95O,0.1320X0.0880*%
%ADD96R,0.1320X0.0880*%
%ADD97R,0.0580X0.0340*%
%ADD98R,0.0340X0.0580*%
%ADD99C,0.0360*%
%ADD100C,0.0580*%
%ADD101C,0.0360*%
*
G04 Plot Data ***
*
G54D16*
X0052500Y0018000D03*
Y0016000D03*
X0051500Y0017000D03*
Y0015000D03*
X0050500Y0018000D03*
Y0016000D03*
X0057250Y0008250D03*
Y0006250D03*
X0056250Y0007250D03*
Y0005250D03*
X0055250Y0008250D03*
Y0006250D03*
X0057250Y0034750D03*
Y0032750D03*
X0056250Y0033750D03*
Y0031750D03*
X0055250Y0034750D03*
Y0032750D03*
X0047000Y0026500D03*
X0057750Y0011875D03*
X0063750D03*
X0052500Y0012000D03*
Y0022000D03*
X0057750Y0026125D03*
X0063750D03*
X0052500Y0007500D03*
X0056250Y0001250D03*
X0052500Y0026500D03*
X0056250Y0039750D03*
G54D17*
X0045000Y0026500D03*
X0050500Y0012000D03*
Y0022000D03*
Y0007500D03*
X0056250Y0003250D03*
X0050500Y0026500D03*
X0056250Y0037750D03*
G54D18*
X0048000Y0022000D03*
Y0023000D03*
X0046000Y0012000D03*
Y0013000D03*
X0044000Y0022000D03*
Y0023000D03*
X0048000Y0012000D03*
Y0013000D03*
X0059475Y0006250D03*
X0060275Y0008250D03*
X0059475Y0032750D03*
X0060275Y0034750D03*
G54D19*
X0048000Y0021000D03*
X0046000Y0011000D03*
X0044000Y0021000D03*
X0048000Y0011000D03*
G54D29*
X0005500Y0039750D03*
X0004500Y0038750D03*
X0005500D03*
X0044000Y0012000D03*
Y0013000D03*
X0065000Y0029500D03*
Y0030500D03*
X0048000Y0031500D03*
X0049000D03*
X0047000D03*
X0046000D03*
X0050000D03*
X0051000D03*
X0052000D03*
Y0036500D03*
X0051000D03*
X0050000D03*
X0049000D03*
X0048000D03*
X0047000D03*
X0046000D03*
X0045000D03*
X0029500Y0024100D03*
Y0025100D03*
Y0026100D03*
Y0027100D03*
Y0028100D03*
Y0029100D03*
Y0030100D03*
Y0031100D03*
Y0032100D03*
Y0033100D03*
Y0015500D03*
Y0016500D03*
Y0017500D03*
Y0018500D03*
Y0019500D03*
Y0020500D03*
Y0021500D03*
Y0022500D03*
Y0006500D03*
Y0007500D03*
Y0008500D03*
Y0009500D03*
Y0010500D03*
Y0011500D03*
Y0012500D03*
Y0013500D03*
Y0003500D03*
Y0002500D03*
X0028500Y0003500D03*
Y0002500D03*
X0027500Y0003500D03*
Y0002500D03*
X0026500Y0003500D03*
Y0002500D03*
X0025500Y0003500D03*
Y0002500D03*
X0024500Y0003500D03*
Y0002500D03*
X0023500Y0003500D03*
Y0002500D03*
X0022500Y0003500D03*
Y0002500D03*
X0021500Y0003500D03*
Y0002500D03*
X0020500Y0003500D03*
Y0002500D03*
X0019500Y0003500D03*
Y0002500D03*
X0018500Y0003500D03*
Y0002500D03*
X0017500Y0003500D03*
Y0002500D03*
X0016500Y0003500D03*
Y0002500D03*
X0015500Y0003500D03*
Y0002500D03*
X0014500Y0003500D03*
Y0002500D03*
X0013500Y0003500D03*
Y0002500D03*
X0012500Y0003500D03*
Y0002500D03*
X0010500Y0029500D03*
Y0028500D03*
Y0027500D03*
Y0026500D03*
Y0025500D03*
Y0024500D03*
Y0023500D03*
Y0022500D03*
Y0020500D03*
Y0019500D03*
Y0018500D03*
Y0017500D03*
Y0016500D03*
Y0015500D03*
Y0014500D03*
Y0013500D03*
Y0011500D03*
Y0010500D03*
Y0009500D03*
Y0008500D03*
Y0007500D03*
Y0006500D03*
Y0005500D03*
Y0004500D03*
X0021500Y0015450D03*
Y0014450D03*
X0020500Y0015450D03*
Y0014450D03*
X0019500Y0015450D03*
Y0014450D03*
G54D33*
X0004500Y0039750D03*
X0044000Y0011000D03*
X0065000Y0028500D03*
X0045000Y0031500D03*
G54D63*
X0062250Y0008250D03*
Y0034750D03*
G54D64*
Y0006250D03*
Y0032750D03*
G54D65*
X0051000Y0001500D03*
X0053000Y0039500D03*
X0045500Y0001500D03*
X0038500D03*
X0044000Y0039500D03*
X0033500D03*
X0048000D03*
X0049000D03*
X0050000D03*
X0008500D03*
G54D66*
X0052000Y0001500D03*
Y0039500D03*
X0046500Y0001500D03*
X0039500D03*
X0043000Y0039500D03*
X0032500D03*
X0047000D03*
X0007500D03*
G54D67*
X0063250Y0018000D03*
Y0015000D03*
X0055250D03*
Y0019000D03*
Y0023000D03*
X0046000Y0018500D03*
G54D68*
X0063250Y0020000D03*
X0046000Y0015500D03*
G54D78*
X0038625Y0022750D03*
Y0012750D03*
Y0038250D03*
Y0028250D03*
X0002875Y0024500D03*
Y0034500D03*
G54D79*
X0001500Y0009000D03*
Y0010000D03*
Y0006000D03*
Y0018000D03*
Y0019000D03*
Y0020000D03*
Y0013000D03*
Y0014000D03*
Y0015000D03*
X0032250Y0009500D03*
Y0008500D03*
Y0007500D03*
Y0006500D03*
Y0005500D03*
G54D80*
X0001500Y0008000D03*
Y0005000D03*
Y0017000D03*
Y0012000D03*
X0032250Y0010500D03*
G54D83*
X0064000Y0002000D03*
Y0039000D03*
X0002000D03*
Y0002000D03*
G54D85*
X0037000Y0017750D03*
Y0016750D03*
Y0033250D03*
Y0032250D03*
G54D86*
Y0018750D03*
Y0034250D03*
G54D87*
X0038500Y0004250D03*
X0037500D03*
X0045500D03*
X0044500D03*
G54D88*
X0039500D03*
X0046500D03*
G54D95*
X0005500Y0028750D03*
X0007250Y0029500D03*
X0005500Y0030250D03*
X0007250Y0031000D03*
G54D96*
Y0028000D03*
G54D99*
X0034875Y0020125D03*
X0007500Y0011125D03*
X0035000Y0013500D03*
X0034500D03*
X0034000D03*
X0032000D03*
X0032500D03*
X0033000D03*
X0033500D03*
X0035000Y0029000D03*
X0034500D03*
X0034000D03*
X0033000D03*
X0033500D03*
X0032500D03*
X0032000D03*
X0043250Y0015625D03*
X0037500Y0005750D03*
Y0007625D03*
X0032875Y0001625D03*
X0044500Y0005750D03*
X0039625Y0008125D03*
X0046625D03*
X0044500Y0007625D03*
X0040750Y0007750D03*
X0047750D03*
X0047500Y0006250D03*
X0040500D03*
X0031190Y0023315D03*
X0033815D03*
X0054000Y0030750D03*
X0043500Y0037375D03*
Y0037875D03*
X0043750Y0035250D03*
X0058150Y0029975D03*
X0009125Y0037375D03*
Y0035875D03*
X0008500Y0033125D03*
X0009000Y0032000D03*
Y0032500D03*
Y0033750D03*
X0009125Y0036375D03*
Y0037875D03*
X0048475Y0002225D03*
X0041475D03*
X0034125Y0037375D03*
Y0037875D03*
X0034750Y0035625D03*
X0007750Y0035500D03*
X0007250D03*
X0006250D03*
X0005750D03*
X0006750D03*
X0008500Y0030625D03*
X0009000D03*
Y0027250D03*
X0008500D03*
X0007625Y0025750D03*
Y0026625D03*
Y0024875D03*
X0006375Y0021750D03*
X0006000Y0011125D03*
X0004875Y0006000D03*
X0006000Y0007125D03*
X0007500D03*
X0007250Y0003875D03*
X0006375D03*
X0005375D03*
X0004500D03*
X0054000Y0029250D03*
X0053000D03*
X0052000D03*
X0051000D03*
X0050000D03*
X0049000D03*
X0048000D03*
X0047000D03*
X0046000D03*
X0045000D03*
X0031125Y0018875D03*
X0031750D03*
X0032250Y0019000D03*
X0031125Y0034375D03*
X0031750D03*
X0032250Y0034500D03*
X0056500Y0024875D03*
X0063750Y0027875D03*
X0007250Y0007875D03*
X0004875Y0010000D03*
X0006375Y0007875D03*
X0005375D03*
X0007250Y0012375D03*
X0006375D03*
X0005375D03*
X0006000Y0015625D03*
X0007500D03*
X0004875Y0014500D03*
X0007500Y0020625D03*
X0006000D03*
X0007250Y0017375D03*
X0006375D03*
X0005375D03*
X0004875Y0019500D03*
G54D100*
X0044000Y0033250D03*
X0035250Y0036500D03*
G54D101*
X0054000Y0011500D03*
M02*
