%
T1C0.0120F200S100
X004500Y003875
X004875Y006000
X004875Y010000
X004875Y014500
X004875Y019500
X005375Y003875
X005375Y007875
X005375Y012375
X005375Y017375
X005750Y035500
X006000Y007125
X006000Y011125
X006000Y015625
X006000Y020625
X006250Y035500
X006375Y003875
X006375Y007875
X006375Y012375
X006375Y017375
X006375Y021750
X006750Y035500
X007250Y003875
X007500Y007125
X007250Y007875
X007250Y012375
X007500Y015625
X007250Y017375
X007500Y020625
X007250Y035500
X007625Y024875
X007625Y025750
X007625Y026625
X007750Y035500
X008500Y027250
X009000Y027250
X009000Y030625
X008500Y030625
X031125Y018875
X031750Y018875
X031750Y034375
X031125Y034375
X032250Y019000
X032250Y034500
X034125Y037375
X034125Y037875
X034750Y035625
X045000Y029250
X046000Y029250
X047000Y029250
X048000Y029250
X049000Y029250
X050000Y029250
X051000Y029250
X052000Y029250
X053000Y029250
X054000Y029250
X056500Y024875
X063750Y027875
T3C0.0280F200S100
X007500Y011125
X008500Y033125
X009000Y032000
X009000Y032500
X009000Y033750
X009125Y035875
X009125Y036375
X009125Y037375
X009125Y037875
X031190Y023315
X032000Y013500
X032000Y029000
X032500Y013500
X032875Y001625
X032500Y029000
X033000Y013500
X033500Y013500
X033500Y029000
X033000Y029000
X033815Y023315
X034000Y013500
X034000Y029000
X034500Y013500
X034875Y020125
X034500Y029000
X035000Y013500
X037500Y005750
X037500Y007625
X035000Y029000
X039625Y008125
X040500Y006250
X040750Y007750
X041475Y002225
X043250Y015625
X043500Y037375
X043500Y037875
X043750Y035250
X044500Y005750
X044500Y007625
X046625Y008125
X047500Y006250
X047750Y007750
X048475Y002225
X054000Y011500
X058150Y029975
X054000Y030750
T2C0.0200F200S100
X035250Y036500
X044000Y033250
T8C0.0470F200S100
X001500Y005000
X001500Y006000
X001500Y008000
X001500Y009000
X001500Y010000
X001500Y012000
X001500Y013000
X001500Y014000
X001500Y015000
X001500Y017000
X001500Y018000
X001500Y019000
X001500Y020000
X007500Y039500
X008500Y039500
X032250Y005500
X032250Y006500
X032250Y007500
X032250Y008500
X032250Y009500
X032250Y010500
X032500Y039500
X033500Y039500
X038500Y001500
X039500Y001500
X043000Y039500
X044000Y039500
X045500Y001500
X046500Y001500
X047000Y039500
X048000Y039500
X049000Y039500
X050000Y039500
X051000Y001500
X052000Y001500
X052000Y039500
X053000Y039500
T10C0.0500F200S100
X050500Y016000
X051500Y015000
X051500Y017000
X050500Y018000
X052500Y016000
X052500Y018000
X055250Y006250
X055250Y008250
X055250Y032750
X055250Y034750
X056250Y005250
X057250Y006250
X056250Y007250
X057250Y008250
X056250Y031750
X057250Y032750
X056250Y033750
X057250Y034750
T5C0.0400F200S100
X004500Y038750
X004500Y039750
X005500Y038750
X005500Y039750
X010500Y004500
X010500Y005500
X010500Y006500
X010500Y007500
X010500Y008500
X010500Y009500
X010500Y010500
X010500Y011500
X010500Y013500
X010500Y014500
X010500Y015500
X010500Y016500
X010500Y017500
X010500Y018500
X010500Y019500
X010500Y020500
X010500Y022500
X010500Y023500
X010500Y024500
X010500Y025500
X010500Y026500
X010500Y027500
X010500Y028500
X010500Y029500
X012500Y002500
X012500Y003500
X013500Y002500
X013500Y003500
X014500Y002500
X014500Y003500
X015500Y002500
X015500Y003500
X016500Y002500
X016500Y003500
X017500Y002500
X017500Y003500
X018500Y002500
X018500Y003500
X019500Y002500
X019500Y003500
X020500Y002500
X020500Y003500
X020500Y014450
X019500Y014450
X019500Y015450
X020500Y015450
X021500Y002500
X021500Y003500
X022500Y002500
X022500Y003500
X021500Y014450
X021500Y015450
X023500Y002500
X023500Y003500
X024500Y002500
X024500Y003500
X025500Y002500
X025500Y003500
X026500Y002500
X026500Y003500
X027500Y002500
X027500Y003500
X028500Y002500
X028500Y003500
X029500Y002500
X029500Y003500
X029500Y006500
X029500Y007500
X029500Y008500
X029500Y009500
X029500Y010500
X029500Y011500
X029500Y012500
X029500Y013500
X029500Y015500
X029500Y016500
X029500Y017500
X029500Y018500
X029500Y019500
X029500Y020500
X029500Y021500
X029500Y022500
X029500Y024100
X029500Y025100
X029500Y026100
X029500Y027100
X029500Y028100
X029500Y029100
X029500Y030100
X029500Y031100
X029500Y032100
X029500Y033100
X044000Y011000
X044000Y012000
X044000Y013000
X044000Y021000
X044000Y022000
X044000Y023000
X045000Y031500
X045000Y036500
X046000Y011000
X046000Y012000
X046000Y013000
X046000Y031500
X046000Y036500
X047000Y031500
X047000Y036500
X048000Y011000
X048000Y012000
X048000Y013000
X048000Y021000
X048000Y022000
X048000Y023000
X048000Y031500
X048000Y036500
X049000Y031500
X050000Y031500
X050000Y036500
X049000Y036500
X051000Y031500
X052000Y031500
X052000Y036500
X051000Y036500
X059475Y006250
X060275Y008250
X059475Y032750
X060275Y034750
X065000Y028500
X065000Y029500
X065000Y030500
T6C0.0420F200S100
X057750Y011875
X063750Y011875
X063750Y026125
X057750Y026125
T4C0.0360F200S100
X045000Y026500
X047000Y026500
X050500Y007500
X052500Y007500
X052500Y012000
X050500Y012000
X050500Y022000
X052500Y022000
X052500Y026500
X050500Y026500
X056250Y001250
X056250Y003250
X056250Y037750
X056250Y039750
T11C0.0520F200S100
X037000Y016750
X037000Y017750
X037000Y018750
X037000Y032250
X037000Y033250
X037000Y034250
X037500Y004250
X038500Y004250
X039500Y004250
X044500Y004250
X045500Y004250
X046500Y004250
X055250Y015000
X055250Y019000
X055250Y023000
X063250Y015000
X063250Y018000
X063250Y020000
T9C0.0480F200S100
X005500Y028750
X005500Y030250
X007250Y028000
X007250Y029500
X007250Y031000
T12C0.0600F200S100
X062250Y006250
X062250Y008250
X062250Y032750
X062250Y034750
T7C0.0440F200S100
X046000Y015500
X046000Y018500
T14C0.1400F200S100
X002875Y024500
X002875Y034500
X038625Y012750
X038625Y022750
X038625Y028250
X038625Y038250
T13C0.1250F200S100
X002000Y002000
X002000Y039000
X064000Y002000
X064000Y039000
M30
